M48
;Layer_Color=9474304
;FILE_FORMAT=2:5
INCH,LZ
;TYPE=PLATED
T1F00S00C0.01200
T2F00S00C0.03346
T3F00S00C0.04016
T4F00S00C0.05807
;TYPE=NON_PLATED
T5F00S00C0.05000
T6F00S00C0.05906
%
T01
X0042653Y0044549
X00435Y0059
X00595Y004751
Y0038234
Y0028813
Y0020059
X0075Y0012
X0095Y0005338
X0118629Y0017116
X01165Y00205
X01235Y00425
X01405Y0040186
X0158718Y0039522
X0147Y00585
X0164Y00655
X0089272Y0057
X0082313Y0059512
X0063683Y0068859
X02325Y006908
Y00595
X02475Y00365
X0340642Y0066
Y00695
X0344142
X0347642
Y0066
X0344142
X0351142
X0354642
X0358142
Y00695
X0354642
X0351142
X0361642
X0365142
Y0066
X0361642
X0362Y0059748
X0368642Y0066
Y00695
X0347Y0059748
X0382
X0383642Y0066
Y00695
X0380142
X0376642
Y0066
X0380142
X0387142
X0390642
X0394142
Y00695
X0390642
X0387142
X0397642
X0401142
Y0066
X0397642
X0398Y0059748
X0404642Y0066
Y00695
X042Y007025
X041Y00365
X0404642Y0073
X0401142
Y00765
Y008
Y00835
Y0087
Y00905
Y0094
Y00975
Y0101
Y01045
X0397642
X0394142
Y0101
Y00975
Y0094
X0390642
X0387142
X0383642
X0380142
X0376642
Y00975
Y0101
X0380142
X0383642
X0387142
X0390642
Y00975
X0387142
X0383642
X0380142
Y00905
X0376642
Y0087
Y00835
Y008
Y00765
Y0073
X0380142
X0383642
Y00765
Y008
X0380142
Y00765
Y00835
Y0087
X0383642
X0387142
X0390642
X0394142
Y00835
Y008
Y00765
Y0073
X0390642
Y00765
Y008
X0387142
Y00765
Y0073
Y00835
X0383642
Y00905
X0387142
X0390642
X0394142
X0397642
Y0094
Y00975
Y0101
X0404642
Y00975
Y0094
Y00905
Y0087
Y00835
Y008
Y00765
X0397642
Y008
Y00835
Y0087
X0390642Y00835
X0397642Y0073
X0390642Y01045
X0387142
X0383642
X0380142
X0376642
Y01125
Y0116
Y01195
Y0123
Y01265
Y013
Y01335
Y0137
Y01405
Y0144
Y01475
X0380142
X0383642
X0387142
X0390642
X0394142
Y0144
Y01405
X0390642
X0387142
X0383642
X0380142
Y0144
X0383642
X0387142
X0390642
Y0151
X0394142
X0397642
X0401142
Y01475
Y0144
Y01405
X0397642
Y0144
Y01475
X0404642
Y0144
Y01405
Y0137
X0401142
Y01335
Y013
Y01265
Y0123
Y01195
Y0116
Y01125
X0397642
X0394142
Y0116
Y01195
Y0123
Y01265
Y013
Y01335
Y0137
X0390642
Y01335
X0387142
X0383642
X0380142
Y013
Y01265
X0383642
X0387142
X0390642
Y0123
X0387142
X0383642
Y01195
Y0116
X0380142
Y01125
X0383642
X0387142
X0390642
Y0116
X0387142
Y01195
X0390642
X0397642
Y0116
Y0123
Y01265
Y013
Y01335
Y0137
X0404642Y01335
Y013
Y01265
Y0123
Y01195
Y0116
Y01125
Y01045
X042Y011675
X0380142Y01195
Y0123
X0383642Y013
X0387142
X0390642
X0387142Y0137
X0383642
X0380142
Y0151
X0383642
X0387142
X0376642
X0404642
X0368642
X0365142
Y01475
Y0144
Y01405
X0361642
X0358142
Y0144
Y01475
Y0151
X0354642
Y01475
X0351142
X0347642
X0344142
X0340642
Y0144
Y01405
X0344142
X0347642
X0351142
X0354642
Y0144
X0351142
X0347642
X0344142
Y0137
X0340642
Y01335
Y013
Y01265
Y0123
Y01195
Y0116
Y01125
X0344142
Y0116
X0347642
Y01125
X0351142
X0354642
X0358142
Y0116
Y01195
Y0123
Y01265
Y013
Y01335
Y0137
X0354642
Y01335
X0351142
X0347642
X0344142
Y013
Y01265
X0347642
X0351142
X0354642
Y0123
X0351142
X0347642
Y01195
X0344142
Y0123
X0347642Y013
X0351142
X0354642
X0361642
X0365142
Y01265
Y0123
Y01195
Y0116
Y01125
X0361642
Y0116
Y01195
Y0123
Y01265
Y01335
X0365142
Y0137
X0361642
Y0144
Y01475
Y0151
X0368642Y01475
Y0144
Y01405
Y0137
Y01335
Y013
Y01265
Y0123
Y01195
Y0116
Y01125
Y01045
X0365142
Y0101
Y00975
Y0094
X0361642
X0358142
Y00975
Y0101
Y01045
X0354642
Y0101
X0351142
X0347642
X0344142
X0340642
Y00975
Y0094
X0344142
X0347642
X0351142
X0354642
Y00975
X0351142
X0347642
X0344142
Y00905
X0340642
Y0087
Y00835
Y008
Y00765
Y0073
X0344142
X0347642
Y00765
Y008
X0344142
Y00765
Y00835
Y0087
X0347642
X0351142
X0354642
X0358142
Y00835
Y008
Y00765
Y0073
X0354642
Y00765
Y008
X0351142
Y00765
Y0073
Y00835
X0347642
Y00905
X0351142
X0354642
X0358142
X0361642
X0365142
Y0087
Y00835
Y008
Y00765
Y0073
X0361642
Y00765
Y008
Y00835
Y0087
X0368642
Y00835
Y008
Y00765
Y0073
Y00905
Y0094
Y00975
Y0101
X0361642
Y00975
Y01045
X0351142
X0347642
X0344142
X0340642
X0325Y0100252
X0351142Y0116
X0354642
Y01195
X0351142
Y0137
X0347642
Y0151
X0351142
X0344142
X0340642
X0325Y0146878
X0354642Y00835
X02325Y0087737
Y00975
X01985Y0086
X017Y00835
X01615Y00875
X0138Y0092
X01255Y00905
Y00835
X0119077Y0079
X01105Y00765
X0093644Y0077863
X0091Y008
X0076041Y0077979
X0073Y00795
Y00985
X007Y01005
X0076041Y011
X0079598Y0108475
X0084Y01075
X0088
X0091154Y0104954
X0095Y0107988
X0098Y011
Y00985
X0101Y01005
X01255Y00975
Y0103808
X01435Y0116
X0134165Y0155078
X0119885
X01065Y01335
X00997Y0133842
X0093091Y0133432
X00815Y0133
X0074
X0067
X0183992Y0137508
X0189Y0124
X0043339Y01293
X0044576Y0108763
X0030879Y01013
X00275Y0116
X0029Y015
X003795Y00745
X0043608
T02
X0007913Y0014512
Y0024512
Y0034512
Y0044512
Y0054512
Y0064512
X0017913Y0059512
Y0049512
Y0039512
Y0029512
Y0019512
Y0069512
T03
X0244514Y0119251
Y0131062
Y0142873
Y0154684
T04
X02995Y00095
Y00195
X03095
X03195
Y00295
X03095
X02995
X03095Y00095
X03195
X04555
Y00195
X04655
X04755
Y00295
X04655
X04555
X04655Y00095
X04755
T05
X025223Y010744
Y0166495
T06
X0015Y0009
M30
