%TF.GenerationSoftware,Altium Limited,Altium Designer,20.1.14 (287)*%
G04 Layer_Color=16711935*
%FSLAX26Y26*%
%MOIN*%
%TF.SameCoordinates,99935E59-988C-4C8E-A83C-0B030DBE8EB2*%
%TF.FilePolarity,Positive*%
%TF.FileFunction,Keep-out,Top*%
%TF.Part,Single*%
G01*
G75*
%TA.AperFunction,NonConductor*%
%ADD62C,0.010000*%
%ADD91C,0.001000*%
D62*
X221227Y1678851D02*
G03*
X171529Y1728550I-49485J213D01*
G01*
X1205348Y1727565D02*
G03*
X1155650Y1677866I-213J-49485D01*
G01*
X4807323Y1114D02*
G03*
X4857021Y50813I213J49485D01*
G01*
X650D02*
G03*
X50348Y1114I49485J-213D01*
G01*
X4857021Y1677866D02*
G03*
X4807323Y1727565I-49485J213D01*
G01*
X50348D02*
G03*
X650Y1677866I-213J-49485D01*
G01*
X50571Y1727788D02*
X171227D01*
X221811Y1578293D02*
X221825Y1677138D01*
X221811Y1580000D02*
X1155135Y1580000D01*
X116Y1677138D02*
X116Y52527D01*
X49572Y963D02*
X4807323Y963D01*
X1155135Y1578293D02*
Y1677565D01*
X4857235D02*
X4857235Y51328D01*
X1205237Y1727565D02*
X4809962D01*
D91*
X221742Y1679065D02*
G03*
X171742Y1729065I-50000J0D01*
G01*
X631Y51497D02*
G03*
X50631Y1497I50000J0D01*
G01*
X4857537Y1678080D02*
G03*
X4807537Y1728080I-50000J0D01*
G01*
X50135D02*
G03*
X135Y1678080I0J-50000D01*
G01*
X4807021Y813D02*
G03*
X4857021Y50813I0J50000D01*
G01*
X1205135Y1728080D02*
G03*
X1155135Y1678080I0J-50000D01*
G01*
X176717Y1729580D02*
X221227D01*
X222000Y1684813D02*
Y1729322D01*
X4812769Y1070D02*
X4857279D01*
X888Y1239D02*
Y45749D01*
X1154877Y1727822D02*
X1199387D01*
X-123D02*
X44387D01*
X4857279Y1683828D02*
Y1728337D01*
X4857537Y1328D02*
Y45837D01*
X1146Y982D02*
X45655D01*
X-380Y1683055D02*
Y1727565D01*
X4812512Y1728595D02*
X4857021D01*
X1154620Y1683055D02*
Y1727565D01*
%TF.MD5,7d520c745f95b12cc86e4db4a6e4305a*%
M02*
