%TF.GenerationSoftware,Altium Limited,Altium Designer,20.1.14 (287)*%
G04 Layer_Color=8421504*
%FSLAX26Y26*%
%MOIN*%
%TF.SameCoordinates,99935E59-988C-4C8E-A83C-0B030DBE8EB2*%
%TF.FilePolarity,Positive*%
%TF.FileFunction,Paste,Top*%
%TF.Part,Single*%
G01*
G75*
%TA.AperFunction,SMDPad,CuDef*%
%ADD10R,0.150000X0.036000*%
%ADD11R,0.310000X0.424000*%
%ADD12R,0.027559X0.035433*%
%ADD13R,0.090551X0.090551*%
%ADD14R,0.038268X0.031575*%
%ADD15R,0.035433X0.027559*%
%ADD16R,0.090551X0.090551*%
G04:AMPARAMS|DCode=17|XSize=39.37mil|YSize=80.709mil|CornerRadius=1.968mil|HoleSize=0mil|Usage=FLASHONLY|Rotation=0.000|XOffset=0mil|YOffset=0mil|HoleType=Round|Shape=RoundedRectangle|*
%AMROUNDEDRECTD17*
21,1,0.039370,0.076772,0,0,0.0*
21,1,0.035433,0.080709,0,0,0.0*
1,1,0.003937,0.017717,-0.038386*
1,1,0.003937,-0.017717,-0.038386*
1,1,0.003937,-0.017717,0.038386*
1,1,0.003937,0.017717,0.038386*
%
%ADD17ROUNDEDRECTD17*%
%TA.AperFunction,TestPad*%
G04:AMPARAMS|DCode=18|XSize=30mil|YSize=30mil|CornerRadius=7.5mil|HoleSize=0mil|Usage=FLASHONLY|Rotation=90.000|XOffset=0mil|YOffset=0mil|HoleType=Round|Shape=RoundedRectangle|*
%AMROUNDEDRECTD18*
21,1,0.030000,0.015000,0,0,90.0*
21,1,0.015000,0.030000,0,0,90.0*
1,1,0.015000,0.007500,0.007500*
1,1,0.015000,0.007500,-0.007500*
1,1,0.015000,-0.007500,-0.007500*
1,1,0.015000,-0.007500,0.007500*
%
%ADD18ROUNDEDRECTD18*%
%TA.AperFunction,SMDPad,CuDef*%
%ADD19R,0.031496X0.035433*%
%ADD20R,0.035433X0.031496*%
G04:AMPARAMS|DCode=21|XSize=25.591mil|YSize=64.961mil|CornerRadius=1.919mil|HoleSize=0mil|Usage=FLASHONLY|Rotation=180.000|XOffset=0mil|YOffset=0mil|HoleType=Round|Shape=RoundedRectangle|*
%AMROUNDEDRECTD21*
21,1,0.025591,0.061122,0,0,180.0*
21,1,0.021752,0.064961,0,0,180.0*
1,1,0.003839,-0.010876,0.030561*
1,1,0.003839,0.010876,0.030561*
1,1,0.003839,0.010876,-0.030561*
1,1,0.003839,-0.010876,-0.030561*
%
%ADD21ROUNDEDRECTD21*%
%ADD22R,0.023622X0.043307*%
G04:AMPARAMS|DCode=23|XSize=9.842mil|YSize=49.213mil|CornerRadius=1.968mil|HoleSize=0mil|Usage=FLASHONLY|Rotation=180.000|XOffset=0mil|YOffset=0mil|HoleType=Round|Shape=RoundedRectangle|*
%AMROUNDEDRECTD23*
21,1,0.009842,0.045276,0,0,180.0*
21,1,0.005906,0.049213,0,0,180.0*
1,1,0.003937,-0.002953,0.022638*
1,1,0.003937,0.002953,0.022638*
1,1,0.003937,0.002953,-0.022638*
1,1,0.003937,-0.002953,-0.022638*
%
%ADD23ROUNDEDRECTD23*%
G04:AMPARAMS|DCode=24|XSize=9.842mil|YSize=49.213mil|CornerRadius=1.968mil|HoleSize=0mil|Usage=FLASHONLY|Rotation=90.000|XOffset=0mil|YOffset=0mil|HoleType=Round|Shape=RoundedRectangle|*
%AMROUNDEDRECTD24*
21,1,0.009842,0.045276,0,0,90.0*
21,1,0.005906,0.049213,0,0,90.0*
1,1,0.003937,0.022638,0.002953*
1,1,0.003937,0.022638,-0.002953*
1,1,0.003937,-0.022638,-0.002953*
1,1,0.003937,-0.022638,0.002953*
%
%ADD24ROUNDEDRECTD24*%
%ADD25R,0.043307X0.066929*%
%ADD26R,0.039000X0.065000*%
%TA.AperFunction,TestPad*%
G04:AMPARAMS|DCode=27|XSize=30mil|YSize=30mil|CornerRadius=7.5mil|HoleSize=0mil|Usage=FLASHONLY|Rotation=0.000|XOffset=0mil|YOffset=0mil|HoleType=Round|Shape=RoundedRectangle|*
%AMROUNDEDRECTD27*
21,1,0.030000,0.015000,0,0,0.0*
21,1,0.015000,0.030000,0,0,0.0*
1,1,0.015000,0.007500,-0.007500*
1,1,0.015000,-0.007500,-0.007500*
1,1,0.015000,-0.007500,0.007500*
1,1,0.015000,0.007500,0.007500*
%
%ADD27ROUNDEDRECTD27*%
%TA.AperFunction,SMDPad,CuDef*%
%ADD28R,0.072835X0.023622*%
%ADD29R,0.035433X0.055118*%
%ADD30R,0.035433X0.055118*%
G04:AMPARAMS|DCode=31|XSize=21.654mil|YSize=31.496mil|CornerRadius=1.949mil|HoleSize=0mil|Usage=FLASHONLY|Rotation=90.000|XOffset=0mil|YOffset=0mil|HoleType=Round|Shape=RoundedRectangle|*
%AMROUNDEDRECTD31*
21,1,0.021654,0.027599,0,0,90.0*
21,1,0.017756,0.031496,0,0,90.0*
1,1,0.003898,0.013799,0.008878*
1,1,0.003898,0.013799,-0.008878*
1,1,0.003898,-0.013799,-0.008878*
1,1,0.003898,-0.013799,0.008878*
%
%ADD31ROUNDEDRECTD31*%
G04:AMPARAMS|DCode=32|XSize=127.953mil|YSize=80.709mil|CornerRadius=2.018mil|HoleSize=0mil|Usage=FLASHONLY|Rotation=0.000|XOffset=0mil|YOffset=0mil|HoleType=Round|Shape=RoundedRectangle|*
%AMROUNDEDRECTD32*
21,1,0.127953,0.076673,0,0,0.0*
21,1,0.123917,0.080709,0,0,0.0*
1,1,0.004035,0.061959,-0.038337*
1,1,0.004035,-0.061959,-0.038337*
1,1,0.004035,-0.061959,0.038337*
1,1,0.004035,0.061959,0.038337*
%
%ADD32ROUNDEDRECTD32*%
%ADD33O,0.055118X0.017716*%
%ADD34R,0.062992X0.031890*%
%ADD35R,0.217000X0.106000*%
%ADD36R,0.055118X0.045276*%
%TA.AperFunction,TestPad*%
G04:AMPARAMS|DCode=37|XSize=90.551mil|YSize=149.606mil|CornerRadius=22.638mil|HoleSize=0mil|Usage=FLASHONLY|Rotation=0.000|XOffset=0mil|YOffset=0mil|HoleType=Round|Shape=RoundedRectangle|*
%AMROUNDEDRECTD37*
21,1,0.090551,0.104331,0,0,0.0*
21,1,0.045276,0.149606,0,0,0.0*
1,1,0.045276,0.022638,-0.052165*
1,1,0.045276,-0.022638,-0.052165*
1,1,0.045276,-0.022638,0.052165*
1,1,0.045276,0.022638,0.052165*
%
%ADD37ROUNDEDRECTD37*%
%TA.AperFunction,SMDPad,CuDef*%
%ADD38R,0.118110X0.082677*%
D10*
X3095000Y1467520D02*
D03*
Y1269520D02*
D03*
Y1365520D02*
D03*
Y1416520D02*
D03*
Y1219520D02*
D03*
Y1168520D02*
D03*
X4355000Y1167520D02*
D03*
Y1365520D02*
D03*
Y1269520D02*
D03*
Y1218520D02*
D03*
Y1415520D02*
D03*
Y1466520D02*
D03*
Y702520D02*
D03*
Y900520D02*
D03*
Y804520D02*
D03*
Y753520D02*
D03*
Y950520D02*
D03*
Y1001520D02*
D03*
X3095000Y1002520D02*
D03*
Y804520D02*
D03*
Y900520D02*
D03*
Y951520D02*
D03*
Y754520D02*
D03*
Y703520D02*
D03*
D11*
X3545000Y1317520D02*
D03*
X3905000D02*
D03*
Y852520D02*
D03*
X3545000D02*
D03*
D12*
X2195472Y690796D02*
D03*
X2254528D02*
D03*
X3575528Y597480D02*
D03*
X3516472D02*
D03*
X3870472Y597480D02*
D03*
X3929528D02*
D03*
X2195472Y491838D02*
D03*
X2254528D02*
D03*
X2195472Y594200D02*
D03*
X2254528D02*
D03*
X2191277Y975954D02*
D03*
X2250332D02*
D03*
X2191277Y877371D02*
D03*
X2250332D02*
D03*
X2191277Y782236D02*
D03*
X2250332D02*
D03*
X531709Y89000D02*
D03*
X645607Y93159D02*
D03*
X1941080Y1546841D02*
D03*
X2000135D02*
D03*
X321843Y171159D02*
D03*
X645742Y196278D02*
D03*
X321843Y321159D02*
D03*
X645742Y288129D02*
D03*
X322315Y471159D02*
D03*
X645742Y382341D02*
D03*
X320448Y623079D02*
D03*
X645742Y473365D02*
D03*
X529503Y623080D02*
D03*
X530898Y321159D02*
D03*
X472654Y89000D02*
D03*
X531370Y471159D02*
D03*
X530898Y171159D02*
D03*
X1099528Y40000D02*
D03*
X1164528Y255000D02*
D03*
X704662Y93159D02*
D03*
X1040473Y40000D02*
D03*
Y107321D02*
D03*
X1105473Y255000D02*
D03*
X380898Y246159D02*
D03*
Y396159D02*
D03*
X381370Y546159D02*
D03*
X379503Y696159D02*
D03*
X724482Y555559D02*
D03*
Y634338D02*
D03*
X1570000Y625000D02*
D03*
X1099528Y107321D02*
D03*
X379503Y623079D02*
D03*
X320448Y696159D02*
D03*
X470448Y623080D02*
D03*
X380898Y321159D02*
D03*
X321843Y396159D02*
D03*
X471843Y321159D02*
D03*
X381370Y471159D02*
D03*
X322315Y546159D02*
D03*
X472315Y471159D02*
D03*
X380898Y171159D02*
D03*
X321843Y246159D02*
D03*
X471843Y171159D02*
D03*
X1510945Y625000D02*
D03*
X704797Y196278D02*
D03*
Y288129D02*
D03*
Y382341D02*
D03*
Y473365D02*
D03*
X665427Y555559D02*
D03*
Y634338D02*
D03*
D13*
X1892283Y414231D02*
D03*
Y591396D02*
D03*
X2200000Y1303583D02*
D03*
Y1126417D02*
D03*
D14*
X1690158Y576315D02*
D03*
Y651118D02*
D03*
X1759842Y613717D02*
D03*
D15*
X2023757Y589254D02*
D03*
Y530199D02*
D03*
X1725000Y1000472D02*
D03*
X1645000Y1000472D02*
D03*
X1017826Y1449851D02*
D03*
X1092826Y1390796D02*
D03*
X1153293Y760559D02*
D03*
X1229551D02*
D03*
X1388560Y779031D02*
D03*
X1535000Y335472D02*
D03*
X75135Y923080D02*
D03*
X250135D02*
D03*
X160135D02*
D03*
X1364528Y397556D02*
D03*
X1514999Y1279360D02*
D03*
X531370Y1370048D02*
D03*
X451788Y1370079D02*
D03*
X1645000Y1059527D02*
D03*
X1600354Y1368330D02*
D03*
X1686945D02*
D03*
X1600354Y1309275D02*
D03*
X1686945D02*
D03*
X1514999Y1338415D02*
D03*
X1315000Y779528D02*
D03*
X1388560Y719976D02*
D03*
X531370Y1429103D02*
D03*
X451788Y1429134D02*
D03*
X1725000Y1059528D02*
D03*
X1422559Y1030551D02*
D03*
X1092826Y1449851D02*
D03*
X1454527Y397556D02*
D03*
X1535000Y394527D02*
D03*
X1017826Y1390796D02*
D03*
X1315000Y720472D02*
D03*
X1229551Y701504D02*
D03*
X1153293D02*
D03*
X1364528Y456611D02*
D03*
X1454527Y456611D02*
D03*
X75135Y982135D02*
D03*
X250135D02*
D03*
X160135D02*
D03*
X1422559Y971496D02*
D03*
D16*
X2177510Y366353D02*
D03*
X2354676D02*
D03*
X2022599Y1160000D02*
D03*
X1845433D02*
D03*
D17*
X1826907Y1019182D02*
D03*
X2008009D02*
D03*
X1917458D02*
D03*
D18*
X619794Y1293470D02*
D03*
X1725000Y940000D02*
D03*
X2275000Y1585000D02*
D03*
Y1475000D02*
D03*
X379810Y1016977D02*
D03*
Y896977D02*
D03*
Y956977D02*
D03*
X1210000Y1095000D02*
D03*
X1515000Y1410000D02*
D03*
X1514999Y1585000D02*
D03*
X550000Y785000D02*
D03*
X380000Y785000D02*
D03*
X435000D02*
D03*
X490000D02*
D03*
X781417Y555559D02*
D03*
Y634338D02*
D03*
X1318937Y835000D02*
D03*
X920000Y365000D02*
D03*
Y418000D02*
D03*
X1690158Y477223D02*
D03*
Y365000D02*
D03*
X1230000Y655000D02*
D03*
X1153000D02*
D03*
X1512913Y456611D02*
D03*
X1425000Y920000D02*
D03*
D19*
X1385796Y1161159D02*
D03*
X1727559Y883080D02*
D03*
X1330678Y1161159D02*
D03*
X528929Y696159D02*
D03*
Y396159D02*
D03*
Y546159D02*
D03*
Y246159D02*
D03*
X1672441Y883080D02*
D03*
X1577559Y1150630D02*
D03*
X1562559Y925000D02*
D03*
Y855000D02*
D03*
X1213848Y971496D02*
D03*
Y903000D02*
D03*
Y1038080D02*
D03*
Y835000D02*
D03*
X851096Y197775D02*
D03*
X1427559Y650000D02*
D03*
Y585000D02*
D03*
Y518000D02*
D03*
X797576Y93160D02*
D03*
X1097734Y179939D02*
D03*
X1162559Y315000D02*
D03*
X592559Y1515000D02*
D03*
X405828Y1515000D02*
D03*
X1512913Y550000D02*
D03*
X1158730Y971496D02*
D03*
Y903000D02*
D03*
Y1038080D02*
D03*
Y835000D02*
D03*
X1522441Y1150630D02*
D03*
X1372441Y518000D02*
D03*
X852694Y93160D02*
D03*
X1107441Y315000D02*
D03*
X473811Y246159D02*
D03*
Y396159D02*
D03*
Y546159D02*
D03*
Y696159D02*
D03*
X851096Y472341D02*
D03*
X795978Y382341D02*
D03*
X851096D02*
D03*
X795978Y288129D02*
D03*
X851096D02*
D03*
X795978Y197775D02*
D03*
X980079Y300000D02*
D03*
X1035197D02*
D03*
X1042616Y179939D02*
D03*
X537441Y1515000D02*
D03*
X460946Y1515000D02*
D03*
X1568032Y550000D02*
D03*
X1372441Y585000D02*
D03*
Y650000D02*
D03*
X795978Y472341D02*
D03*
X1507441Y925000D02*
D03*
Y855000D02*
D03*
D20*
X1064000Y1237441D02*
D03*
X810000D02*
D03*
X740000D02*
D03*
X997000D02*
D03*
X930000D02*
D03*
X670000D02*
D03*
X1925000Y1482559D02*
D03*
X2010000D02*
D03*
X1925000Y1427441D02*
D03*
X2010000D02*
D03*
X1775000Y1311441D02*
D03*
X948000Y1447559D02*
D03*
X617826Y1442441D02*
D03*
X875000Y1447559D02*
D03*
X1064000Y1292559D02*
D03*
X810000D02*
D03*
X740000D02*
D03*
X997000D02*
D03*
X930000D02*
D03*
X670000D02*
D03*
X951851Y97058D02*
D03*
X1347489Y1028237D02*
D03*
X1725000Y1187559D02*
D03*
X1514999Y1469111D02*
D03*
Y1524230D02*
D03*
X1775000Y1366559D02*
D03*
X617826Y1387323D02*
D03*
X875000Y1392441D02*
D03*
X951851Y152176D02*
D03*
X1725000Y1132441D02*
D03*
X1347489Y973119D02*
D03*
X948000Y1392441D02*
D03*
D21*
X1386693Y1255339D02*
D03*
X1336693D02*
D03*
X1386693Y1477780D02*
D03*
X1336693D02*
D03*
X1286693Y1255339D02*
D03*
X1436693D02*
D03*
X1286693Y1477780D02*
D03*
X1436693D02*
D03*
D22*
X426528Y1145787D02*
D03*
Y1244213D02*
D03*
X389126Y1145787D02*
D03*
X463929Y1244213D02*
D03*
X389126D02*
D03*
X463929Y1145787D02*
D03*
D23*
X732047Y723543D02*
D03*
X909213D02*
D03*
X928898Y1166457D02*
D03*
X830472D02*
D03*
X751732Y723543D02*
D03*
X928898D02*
D03*
X987953Y1166457D02*
D03*
X968268D02*
D03*
X948583D02*
D03*
X889528D02*
D03*
X771417D02*
D03*
X751732D02*
D03*
X1007638Y723543D02*
D03*
X850158Y1166457D02*
D03*
X869842D02*
D03*
X830472Y723543D02*
D03*
X850158D02*
D03*
X810787Y1166457D02*
D03*
X791102D02*
D03*
X909213D02*
D03*
X712362Y723543D02*
D03*
X771417D02*
D03*
X791102D02*
D03*
X810787D02*
D03*
X869842D02*
D03*
X889528D02*
D03*
X948583D02*
D03*
X968268D02*
D03*
X987953D02*
D03*
X1007638Y1166457D02*
D03*
X732047D02*
D03*
X712362D02*
D03*
D24*
X1081457Y974528D02*
D03*
X638543Y994213D02*
D03*
Y797362D02*
D03*
Y935158D02*
D03*
Y895787D02*
D03*
Y915472D02*
D03*
X1081457Y994213D02*
D03*
X638543Y974528D02*
D03*
X1081457Y954842D02*
D03*
X638543D02*
D03*
Y817047D02*
D03*
Y876102D02*
D03*
Y856417D02*
D03*
Y836732D02*
D03*
X1081457Y1072953D02*
D03*
Y1013898D02*
D03*
Y1092638D02*
D03*
Y797362D02*
D03*
X638543Y1033583D02*
D03*
Y1072953D02*
D03*
Y1092638D02*
D03*
Y1053268D02*
D03*
X1081457Y915472D02*
D03*
Y935158D02*
D03*
Y817047D02*
D03*
Y836732D02*
D03*
Y856417D02*
D03*
Y876102D02*
D03*
Y895787D02*
D03*
Y1033583D02*
D03*
Y1053268D02*
D03*
X638543Y1013898D02*
D03*
D25*
X2023757Y1310621D02*
D03*
X1917458D02*
D03*
D26*
X1624314Y760559D02*
D03*
X1485314D02*
D03*
D27*
X2090000Y1070000D02*
D03*
X920000Y471159D02*
D03*
Y525000D02*
D03*
D28*
X1804567Y1525000D02*
D03*
Y1475000D02*
D03*
X1625433D02*
D03*
Y1525000D02*
D03*
D29*
X2097599Y1532323D02*
D03*
D30*
X2172402D02*
D03*
X2135000Y1447677D02*
D03*
D31*
X1578307Y1038080D02*
D03*
X1491693Y1075482D02*
D03*
Y1000678D02*
D03*
D32*
X1917458Y769182D02*
D03*
D33*
X1288228Y426042D02*
D03*
Y528404D02*
D03*
X1055945Y451632D02*
D03*
Y426042D02*
D03*
Y400451D02*
D03*
Y374861D02*
D03*
X1288228Y553995D02*
D03*
Y579585D02*
D03*
Y605176D02*
D03*
X1055945Y477223D02*
D03*
Y502813D02*
D03*
Y553995D02*
D03*
Y528404D02*
D03*
Y579585D02*
D03*
X1288228Y400451D02*
D03*
Y374861D02*
D03*
Y477223D02*
D03*
Y451632D02*
D03*
Y502813D02*
D03*
X1055945Y605176D02*
D03*
D34*
X214173Y1451457D02*
D03*
Y1205394D02*
D03*
Y1254606D02*
D03*
Y1353032D02*
D03*
Y1402244D02*
D03*
Y1303819D02*
D03*
D35*
X2725000Y140000D02*
D03*
Y456000D02*
D03*
D36*
X701212Y1387804D02*
D03*
X787826Y1450796D02*
D03*
Y1387804D02*
D03*
X701212Y1450796D02*
D03*
D37*
X1422559Y1625000D02*
D03*
X1263843D02*
D03*
D38*
X100000Y1105000D02*
D03*
Y1551850D02*
D03*
%TF.MD5,7adaa093fd0ab787e494dbed1878406a*%
M02*
