%TF.GenerationSoftware,Altium Limited,Altium Designer,20.1.14 (287)*%
G04 Layer_Color=0*
%FSLAX26Y26*%
%MOIN*%
%TF.SameCoordinates,99935E59-988C-4C8E-A83C-0B030DBE8EB2*%
%TF.FilePolarity,Positive*%
%TF.FileFunction,Profile,NP*%
%TF.Part,Single*%
G01*
G75*
%TA.AperFunction,Profile*%
%ADD92C,0.001000*%
G36*
X171742Y1728550D02*
X171529D01*
X171227Y1728851D01*
Y1729278D01*
X171529Y1729580D01*
X171742D01*
X172305D01*
X173432Y1729555D01*
X174558Y1729504D01*
X175682Y1729429D01*
X176243Y1729379D01*
X176192Y1729498D01*
X176216Y1729756D01*
X176359Y1729972D01*
X176588Y1730095D01*
X176717D01*
D01*
X221227D01*
X221301D01*
X221444Y1730053D01*
X221569Y1729972D01*
X221666Y1729859D01*
X221696Y1729792D01*
X221764Y1729761D01*
X221877Y1729664D01*
X221957Y1729539D01*
X222000Y1729397D01*
Y1729322D01*
D01*
Y1684813D01*
Y1684785D01*
X221994Y1684730D01*
X221982Y1684676D01*
X221964Y1684624D01*
X221953Y1684599D01*
X222029Y1683910D01*
X222143Y1682528D01*
X222219Y1681144D01*
X222257Y1679758D01*
Y1679065D01*
Y1678851D01*
X221955Y1678550D01*
X221529D01*
X221227Y1678851D01*
Y1679065D01*
X220989Y1683915D01*
X219096Y1693429D01*
X215384Y1702392D01*
X209994Y1710458D01*
X203135Y1717317D01*
X195069Y1722707D01*
X186107Y1726419D01*
X176592Y1728312D01*
X171742Y1728550D01*
D01*
D02*
G37*
G36*
X4810135Y84D02*
X4809922D01*
X4809620Y386D01*
Y813D01*
X4809922Y1114D01*
X4810135D01*
X4814985Y1353D01*
X4824500Y3245D01*
X4833462Y6957D01*
X4841528Y12347D01*
X4848387Y19206D01*
X4853777Y27272D01*
X4857489Y36235D01*
X4859382Y45749D01*
X4859620Y50599D01*
Y50813D01*
X4859922Y51114D01*
X4860348D01*
X4860650Y50813D01*
Y50599D01*
Y50036D01*
X4860625Y48909D01*
X4860574Y47784D01*
X4860499Y46660D01*
X4860449Y46098D01*
X4860568Y46149D01*
X4860826Y46125D01*
X4861042Y45982D01*
X4861165Y45754D01*
Y45624D01*
D01*
Y1114D01*
Y1040D01*
X4861123Y897D01*
X4861042Y772D01*
X4860930Y676D01*
X4860862Y645D01*
X4860831Y577D01*
X4860734Y464D01*
X4860609Y384D01*
X4860467Y342D01*
X4860392D01*
D01*
X4815883D01*
X4815855D01*
X4815800Y348D01*
X4815746Y360D01*
X4815694Y377D01*
X4815669Y388D01*
Y388D01*
X4814980Y312D01*
X4813598Y198D01*
X4812214Y122D01*
X4810828Y84D01*
X4810135D01*
D01*
D02*
G37*
G36*
X-123Y342D02*
Y44852D01*
Y44879D01*
X-117Y44934D01*
X-105Y44988D01*
X-88Y45040D01*
X-76Y45065D01*
X-76D01*
X-152Y45754D01*
X-266Y47136D01*
X-342Y48520D01*
X-380Y49906D01*
Y50599D01*
Y50813D01*
X-78Y51114D01*
X348D01*
X650Y50813D01*
Y50599D01*
X888Y45749D01*
X2781Y36235D01*
X6493Y27272D01*
X11882Y19206D01*
X18742Y12347D01*
X26808Y6957D01*
X35770Y3245D01*
X45285Y1353D01*
X50135Y1114D01*
X50237D01*
X50427Y1036D01*
X50571Y891D01*
X50650Y702D01*
Y599D01*
Y497D01*
X50571Y308D01*
X50427Y163D01*
X50237Y84D01*
X50135D01*
X49572D01*
X48445Y110D01*
X47319Y160D01*
X46195Y235D01*
X45634Y285D01*
X45644Y262D01*
X45659Y212D01*
X45669Y162D01*
X45675Y110D01*
Y84D01*
Y-18D01*
X45596Y-207D01*
X45451Y-352D01*
X45262Y-431D01*
X45160D01*
D01*
X650D01*
X576D01*
X433Y-389D01*
X308Y-308D01*
X211Y-195D01*
X180Y-128D01*
X113Y-97D01*
X0Y0D01*
X-81Y125D01*
X-123Y268D01*
Y342D01*
D01*
D02*
G37*
G36*
X1154105Y1683055D02*
Y1682925D01*
X1154227Y1682697D01*
X1154444Y1682554D01*
X1154701Y1682530D01*
X1154821Y1682581D01*
X1154771Y1682020D01*
X1154695Y1680895D01*
X1154645Y1679770D01*
X1154620Y1678643D01*
Y1678080D01*
Y1677866D01*
X1154921Y1677565D01*
X1155348D01*
X1155650Y1677866D01*
Y1678080D01*
X1155888Y1682930D01*
X1157781Y1692444D01*
X1161493Y1701407D01*
X1166882Y1709473D01*
X1173742Y1716332D01*
X1181808Y1721722D01*
X1190770Y1725434D01*
X1200284Y1727326D01*
X1205135Y1727565D01*
X1205237D01*
X1205427Y1727643D01*
X1205571Y1727788D01*
X1205650Y1727977D01*
Y1728080D01*
Y1728182D01*
X1205571Y1728371D01*
X1205427Y1728516D01*
X1205237Y1728595D01*
X1205135D01*
X1204442D01*
X1203056Y1728557D01*
X1201671Y1728481D01*
X1200290Y1728367D01*
X1199601Y1728291D01*
Y1728291D01*
X1199576Y1728302D01*
X1199523Y1728320D01*
X1199469Y1728331D01*
X1199415Y1728337D01*
X1199387D01*
D01*
X1154877D01*
X1154803D01*
X1154660Y1728295D01*
X1154535Y1728215D01*
X1154439Y1728102D01*
X1154408Y1728034D01*
X1154340Y1728003D01*
X1154227Y1727907D01*
X1154147Y1727782D01*
X1154105Y1727639D01*
Y1727565D01*
D01*
Y1683055D01*
D02*
G37*
G36*
X4807537Y1727565D02*
X4807323D01*
X4807021Y1727866D01*
Y1728293D01*
X4807323Y1728595D01*
X4807537D01*
X4808100D01*
X4809226Y1728570D01*
X4810352Y1728519D01*
X4811476Y1728444D01*
X4812038Y1728394D01*
X4811987Y1728513D01*
X4812011Y1728771D01*
X4812154Y1728987D01*
X4812382Y1729110D01*
X4812512D01*
D01*
X4857021D01*
X4857096D01*
X4857238Y1729068D01*
X4857363Y1728987D01*
X4857460Y1728874D01*
X4857491Y1728807D01*
X4857559Y1728776D01*
X4857671Y1728679D01*
X4857752Y1728554D01*
X4857794Y1728411D01*
Y1728337D01*
D01*
Y1683828D01*
Y1683800D01*
X4857788Y1683745D01*
X4857776Y1683691D01*
X4857759Y1683639D01*
X4857748Y1683614D01*
X4857823Y1682925D01*
X4857937Y1681543D01*
X4858013Y1680159D01*
X4858051Y1678773D01*
Y1678080D01*
Y1677866D01*
X4857750Y1677565D01*
X4857323D01*
X4857021Y1677866D01*
Y1678080D01*
X4856783Y1682930D01*
X4854891Y1692444D01*
X4851178Y1701407D01*
X4845789Y1709473D01*
X4838929Y1716332D01*
X4830864Y1721722D01*
X4821901Y1725434D01*
X4812387Y1727326D01*
X4807537Y1727565D01*
D01*
D02*
G37*
G36*
X-179Y1682581D02*
X-298Y1682530D01*
X-556Y1682554D01*
X-772Y1682697D01*
X-895Y1682925D01*
Y1683055D01*
D01*
Y1727565D01*
Y1727615D01*
X-875Y1727715D01*
X-836Y1727809D01*
X-780Y1727893D01*
X-744Y1727929D01*
Y1727929D01*
X-229Y1728444D01*
X-144Y1728529D01*
X83Y1728606D01*
X321Y1728575D01*
X521Y1728441D01*
X581Y1728337D01*
D01*
X44387D01*
X44415D01*
X44469Y1728331D01*
X44523Y1728320D01*
X44576Y1728302D01*
X44601Y1728291D01*
X45290Y1728367D01*
X46672Y1728481D01*
X48056Y1728557D01*
X49442Y1728595D01*
X50135D01*
X50237D01*
X50427Y1728516D01*
X50571Y1728371D01*
X50650Y1728182D01*
Y1728080D01*
Y1727977D01*
X50571Y1727788D01*
X50427Y1727643D01*
X50237Y1727565D01*
X50135D01*
X45285Y1727326D01*
X35770Y1725434D01*
X26808Y1721722D01*
X18742Y1716332D01*
X11882Y1709473D01*
X6493Y1701407D01*
X2781Y1692444D01*
X888Y1682930D01*
X650Y1678080D01*
Y1677866D01*
X348Y1677565D01*
X-78D01*
X-380Y1677866D01*
Y1678080D01*
Y1678643D01*
X-355Y1679770D01*
X-305Y1680895D01*
X-229Y1682020D01*
X-179Y1682581D01*
D01*
D02*
G37*
G36*
X-380Y1678080D02*
Y1677866D01*
X-78Y1677565D01*
X348D01*
X650Y1677866D01*
Y1678080D01*
X888Y1682930D01*
X2781Y1692444D01*
X6493Y1701407D01*
X11882Y1709473D01*
X18742Y1716332D01*
X26808Y1721722D01*
X35770Y1725434D01*
X45285Y1727326D01*
X50135Y1727565D01*
X50237D01*
X50427Y1727643D01*
X50571Y1727788D01*
X50650Y1727977D01*
Y1728080D01*
Y1728182D01*
X50571Y1728371D01*
X50427Y1728516D01*
X50237Y1728595D01*
X50135D01*
X45160D01*
X35400Y1726653D01*
X26207Y1722845D01*
X17933Y1717317D01*
X10897Y1710281D01*
X5369Y1702007D01*
X1561Y1692814D01*
X-380Y1683055D01*
Y1678080D01*
D01*
D02*
G37*
G36*
X221108Y1580000D02*
X1155000D01*
Y1730000D01*
X221108D01*
Y1580000D01*
D02*
G37*
D92*
X373Y1239D02*
Y28371D01*
D02*
G02*
X-4365Y50274I49762J22228D01*
G01*
X-4365D01*
D02*
G02*
X-4899Y52527I4480J2253D01*
G01*
X-4899Y1677138D01*
D02*
G02*
X-4349Y1679422I5015J0D01*
G01*
D02*
G02*
X-895Y1697217I54484J-1342D01*
G01*
Y1727565D01*
D02*
G02*
X-592Y1728034I515J0D01*
G01*
D02*
G02*
X-123Y1728337I469J-212D01*
G01*
X29052D01*
D02*
G02*
X49060Y1732570I21083J-50258D01*
G01*
D02*
G02*
X50571Y1732803I1512J-4782D01*
G01*
X168871D01*
D02*
G02*
X171507Y1733565I2657J-4253D01*
G01*
D02*
G02*
X190880Y1730095I235J-54500D01*
G01*
X221227D01*
D02*
G02*
X221713Y1729750I0J-515D01*
G01*
D02*
G02*
X222514Y1729322I286J-428D01*
G01*
Y1698875D01*
D02*
G02*
X226241Y1679515I-50773J-19811D01*
G01*
X226241D01*
D02*
G02*
X226840Y1677138I-4416J-2377D01*
G01*
D02*
G02*
X226840Y1677137I-5015J0D01*
G01*
X226827Y1585015D01*
X1150120Y1585015D01*
Y1677565D01*
D02*
G02*
X1150662Y1679833I5015J0D01*
G01*
D02*
G02*
X1154105Y1697217I54472J-1754D01*
G01*
Y1727565D01*
D02*
G02*
X1154408Y1728034I515J0D01*
G01*
D02*
G02*
X1154877Y1728337I469J-212D01*
G01*
X1184052D01*
D02*
G02*
X1205368Y1732580I21083J-50258D01*
G01*
D02*
G02*
X1205370Y1732580I-234J-54500D01*
G01*
X4809962D01*
D02*
G02*
X4811006Y1732470I0J-5015D01*
G01*
Y1732470D01*
D02*
G02*
X4826674Y1729110I-3470J-54390D01*
G01*
X4857021D01*
D02*
G02*
X4857491Y1728807I0J-515D01*
G01*
D02*
G02*
X4857794Y1728337I-212J-469D01*
G01*
Y1699163D01*
D02*
G02*
X4862029Y1679037I-50258J-21083D01*
G01*
X4862029D01*
D02*
G02*
X4862250Y1677565I-4794J-1472D01*
G01*
X4862250Y51328D01*
D02*
G02*
X4862032Y49866I-5015J0D01*
G01*
D02*
G02*
X4858051Y30141I-54496J733D01*
G01*
Y1328D01*
D02*
G02*
X4857748Y858I-515J0D01*
G01*
D02*
G02*
X4857279Y555I-469J212D01*
G01*
X4829121D01*
D02*
G02*
X4808581Y-3891I-21584J50044D01*
G01*
D02*
G02*
X4807323Y-4052I-1258J4855D01*
G01*
X49572Y-4052D01*
D02*
G02*
X48225Y-3868I0J5015D01*
G01*
Y-3868D01*
D02*
G02*
X28756Y467I1910J54467D01*
G01*
X1146D01*
D02*
G02*
X676Y770I0J515D01*
G01*
D02*
G02*
X373Y1239I212J469D01*
G01*
%TF.MD5,d3e01acc3216bd60b92652b10ad3f1e6*%
M02*
