%TF.GenerationSoftware,Altium Limited,Altium Designer,20.1.14 (287)*%
G04 Layer_Physical_Order=3*
G04 Layer_Color=16440176*
%FSLAX26Y26*%
%MOIN*%
%TF.SameCoordinates,99935E59-988C-4C8E-A83C-0B030DBE8EB2*%
%TF.FilePolarity,Positive*%
%TF.FileFunction,Copper,L3,Inr,Signal*%
%TF.Part,Single*%
G01*
G75*
%TA.AperFunction,ViaPad*%
%ADD41C,0.024000*%
%TA.AperFunction,ComponentPad*%
%ADD42C,0.062992*%
%ADD43C,0.059843*%
%ADD44R,0.059843X0.059843*%
%ADD45C,0.053150*%
%ADD46R,0.053150X0.053150*%
%ADD47C,0.050000*%
%ADD48C,0.059055*%
%TA.AperFunction,ViaPad*%
%ADD49C,0.028000*%
G36*
X180614Y1712176D02*
X188881Y1708751D01*
X195981Y1703304D01*
X201428Y1696204D01*
X204853Y1687937D01*
X205412Y1683691D01*
X205946Y1678917D01*
X205933Y1678851D01*
X206103Y1677994D01*
X206531Y1674141D01*
X206517Y1580001D01*
X206517Y1580000D01*
X206517Y1579999D01*
X206517Y1578295D01*
X207680Y1572442D01*
X210995Y1567480D01*
X215956Y1564164D01*
X221809Y1562999D01*
X227662Y1564162D01*
X228476Y1564706D01*
X1148470Y1564706D01*
X1149282Y1564163D01*
X1155135Y1562999D01*
X1160988Y1564163D01*
X1165949Y1567479D01*
X1169265Y1572440D01*
X1170429Y1578293D01*
Y1673123D01*
X1170804Y1677166D01*
X1170944Y1677866D01*
X1170931Y1677932D01*
X1171465Y1682706D01*
X1172024Y1686952D01*
X1175448Y1695219D01*
X1180896Y1702319D01*
X1187995Y1707766D01*
X1196263Y1711190D01*
X1204931Y1712332D01*
X1205237Y1712271D01*
X2555000D01*
Y1688044D01*
X2550000Y1686346D01*
X2547263Y1689914D01*
X2539951Y1695524D01*
X2531437Y1699050D01*
X2522300Y1700253D01*
X2513164Y1699050D01*
X2504649Y1695524D01*
X2497338Y1689914D01*
X2491728Y1682602D01*
X2488201Y1674088D01*
X2486998Y1664951D01*
X2488201Y1655814D01*
X2491728Y1647300D01*
X2497338Y1639989D01*
X2504649Y1634379D01*
X2513164Y1630852D01*
X2522300Y1629649D01*
X2531437Y1630852D01*
X2539951Y1634379D01*
X2547263Y1639989D01*
X2550000Y1643556D01*
X2555000Y1641859D01*
Y1097491D01*
X2550000Y1095794D01*
X2547263Y1099361D01*
X2539951Y1104971D01*
X2531437Y1108498D01*
X2522300Y1109701D01*
X2513164Y1108498D01*
X2504649Y1104971D01*
X2497338Y1099361D01*
X2491728Y1092050D01*
X2488201Y1083535D01*
X2486998Y1074399D01*
X2488201Y1065262D01*
X2491728Y1056748D01*
X2497338Y1049436D01*
X2504649Y1043826D01*
X2513164Y1040300D01*
X2522300Y1039097D01*
X2531437Y1040300D01*
X2539951Y1043826D01*
X2547263Y1049436D01*
X2550000Y1053004D01*
X2555000Y1051306D01*
Y16257D01*
X55241Y16257D01*
X50729Y16333D01*
X50348Y16408D01*
X50282Y16395D01*
X45509Y16930D01*
X41263Y17488D01*
X32995Y20913D01*
X25896Y26360D01*
X20448Y33460D01*
X17024Y41727D01*
X16465Y45973D01*
X15931Y50747D01*
X15944Y50813D01*
X15798Y51545D01*
X15409Y55548D01*
X15409Y1673130D01*
X15798Y1677134D01*
X15944Y1677866D01*
X15931Y1677932D01*
X16465Y1682706D01*
X17024Y1686952D01*
X20448Y1695219D01*
X25896Y1702319D01*
X32995Y1707766D01*
X41263Y1711190D01*
X45509Y1711749D01*
X50282Y1712284D01*
X50348Y1712271D01*
X50768Y1712354D01*
X55212Y1712494D01*
X171227D01*
X174002Y1713046D01*
X180614Y1712176D01*
D02*
G37*
G36*
X4816408Y1711190D02*
X4824676Y1707766D01*
X4831775Y1702319D01*
X4837223Y1695219D01*
X4840647Y1686952D01*
X4841206Y1682706D01*
X4841741Y1677932D01*
X4841727Y1677866D01*
X4841810Y1677453D01*
X4841941Y1672999D01*
X4841941Y55680D01*
X4841810Y51226D01*
X4841727Y50813D01*
X4841741Y50747D01*
X4841206Y45973D01*
X4840647Y41727D01*
X4837223Y33460D01*
X4831775Y26360D01*
X4824676Y20913D01*
X4816408Y17488D01*
X4812163Y16930D01*
X4807389Y16395D01*
X4807323Y16408D01*
X4806943Y16333D01*
X4802430Y16257D01*
X2600000Y16257D01*
Y1712271D01*
X4808203D01*
X4816408Y1711190D01*
D02*
G37*
%LPC*%
G36*
X1341647Y1573209D02*
X1333063Y1571502D01*
X1325786Y1566639D01*
X1320923Y1559362D01*
X1319216Y1550778D01*
X1320923Y1542194D01*
X1325786Y1534917D01*
X1333063Y1530054D01*
X1341647Y1528347D01*
X1350231Y1530054D01*
X1357508Y1534917D01*
X1362370Y1542194D01*
X1364078Y1550778D01*
X1362370Y1559362D01*
X1357508Y1566639D01*
X1350231Y1571502D01*
X1341647Y1573209D01*
D02*
G37*
G36*
X1198852D02*
X1190268Y1571502D01*
X1182991Y1566639D01*
X1178128Y1559362D01*
X1176421Y1550778D01*
X1178128Y1542194D01*
X1182991Y1534917D01*
X1190268Y1530054D01*
X1198852Y1528347D01*
X1207436Y1530054D01*
X1214713Y1534917D01*
X1219575Y1542194D01*
X1221283Y1550778D01*
X1219575Y1559362D01*
X1214713Y1566639D01*
X1207436Y1571502D01*
X1198852Y1573209D01*
D02*
G37*
G36*
X2485056Y1586762D02*
X2405214D01*
Y1506920D01*
X2485056D01*
Y1586762D01*
D02*
G37*
G36*
X290000Y1522431D02*
X281416Y1520724D01*
X274139Y1515861D01*
X269276Y1508584D01*
X267569Y1500000D01*
X269276Y1491416D01*
X274139Y1484139D01*
X281416Y1479276D01*
X290000Y1477569D01*
X298584Y1479276D01*
X305861Y1484139D01*
X310724Y1491416D01*
X312431Y1500000D01*
X310724Y1508584D01*
X305861Y1515861D01*
X298584Y1520724D01*
X290000Y1522431D01*
D02*
G37*
G36*
X2445135Y1468996D02*
X2434713Y1467624D01*
X2425002Y1463602D01*
X2416663Y1457203D01*
X2410264Y1448864D01*
X2406241Y1439152D01*
X2404869Y1428731D01*
X2406241Y1418309D01*
X2410264Y1408598D01*
X2416663Y1400259D01*
X2425002Y1393860D01*
X2434713Y1389837D01*
X2445135Y1388465D01*
X2455557Y1389837D01*
X2465268Y1393860D01*
X2473607Y1400259D01*
X2480006Y1408598D01*
X2484029Y1418309D01*
X2485401Y1428731D01*
X2484029Y1439152D01*
X2480006Y1448864D01*
X2473607Y1457203D01*
X2465268Y1463602D01*
X2455557Y1467624D01*
X2445135Y1468996D01*
D02*
G37*
G36*
X1839921Y1397510D02*
X1831337Y1395802D01*
X1824060Y1390940D01*
X1819198Y1383663D01*
X1817490Y1375079D01*
X1819198Y1366495D01*
X1824060Y1359218D01*
X1831337Y1354355D01*
X1839921Y1352648D01*
X1848505Y1354355D01*
X1855782Y1359218D01*
X1860645Y1366495D01*
X1862352Y1375079D01*
X1860645Y1383663D01*
X1855782Y1390940D01*
X1848505Y1395802D01*
X1839921Y1397510D01*
D02*
G37*
G36*
X997000Y1360846D02*
X988416Y1359138D01*
X981139Y1354276D01*
X976276Y1346999D01*
X974569Y1338415D01*
X976276Y1329831D01*
X981139Y1322554D01*
X988416Y1317691D01*
X997000Y1315984D01*
X1005584Y1317691D01*
X1012861Y1322554D01*
X1017723Y1329831D01*
X1019431Y1338415D01*
X1017723Y1346999D01*
X1012861Y1354276D01*
X1005584Y1359138D01*
X997000Y1360846D01*
D02*
G37*
G36*
X1065000Y1357431D02*
X1056416Y1355724D01*
X1049139Y1350861D01*
X1044276Y1343584D01*
X1042569Y1335000D01*
X1044276Y1326416D01*
X1049139Y1319139D01*
X1056416Y1314276D01*
X1065000Y1312569D01*
X1073584Y1314276D01*
X1080861Y1319139D01*
X1085724Y1326416D01*
X1087431Y1335000D01*
X1085724Y1343584D01*
X1080861Y1350861D01*
X1073584Y1355724D01*
X1065000Y1357431D01*
D02*
G37*
G36*
X930911Y1356756D02*
X922327Y1355049D01*
X915050Y1350187D01*
X910187Y1342909D01*
X908480Y1334325D01*
X910187Y1325741D01*
X915050Y1318464D01*
X922327Y1313602D01*
X930911Y1311894D01*
X939495Y1313602D01*
X946772Y1318464D01*
X951634Y1325741D01*
X953342Y1334325D01*
X951634Y1342909D01*
X946772Y1350187D01*
X939495Y1355049D01*
X930911Y1356756D01*
D02*
G37*
G36*
X815000Y1352431D02*
X806416Y1350724D01*
X799139Y1345861D01*
X794277Y1338584D01*
X792569Y1330000D01*
X794277Y1321416D01*
X799139Y1314139D01*
X806416Y1309276D01*
X815000Y1307569D01*
X823584Y1309276D01*
X830861Y1314139D01*
X835723Y1321416D01*
X837431Y1330000D01*
X835723Y1338584D01*
X830861Y1345861D01*
X823584Y1350724D01*
X815000Y1352431D01*
D02*
G37*
G36*
X740000D02*
X731416Y1350724D01*
X724139Y1345861D01*
X719277Y1338584D01*
X717569Y1330000D01*
X719277Y1321416D01*
X724139Y1314139D01*
X731416Y1309276D01*
X740000Y1307569D01*
X748584Y1309276D01*
X755861Y1314139D01*
X760723Y1321416D01*
X762431Y1330000D01*
X760723Y1338584D01*
X755861Y1345861D01*
X748584Y1350724D01*
X740000Y1352431D01*
D02*
G37*
G36*
X670000D02*
X661416Y1350724D01*
X654139Y1345861D01*
X649277Y1338584D01*
X647569Y1330000D01*
X649277Y1321416D01*
X654139Y1314139D01*
X661416Y1309276D01*
X670000Y1307569D01*
X678584Y1309276D01*
X685861Y1314139D01*
X690723Y1321416D01*
X692431Y1330000D01*
X690723Y1338584D01*
X685861Y1345861D01*
X678584Y1350724D01*
X670000Y1352431D01*
D02*
G37*
G36*
X433387Y1315431D02*
X424803Y1313724D01*
X417526Y1308861D01*
X412664Y1301584D01*
X410956Y1293000D01*
X412664Y1284416D01*
X417526Y1277139D01*
X424803Y1272276D01*
X433387Y1270569D01*
X441971Y1272276D01*
X449248Y1277139D01*
X454111Y1284416D01*
X455818Y1293000D01*
X454111Y1301584D01*
X449248Y1308861D01*
X441971Y1313724D01*
X433387Y1315431D01*
D02*
G37*
G36*
X2445135Y1350886D02*
X2434713Y1349514D01*
X2425002Y1345492D01*
X2416663Y1339093D01*
X2410264Y1330754D01*
X2406241Y1321042D01*
X2404869Y1310621D01*
X2406241Y1300199D01*
X2410264Y1290488D01*
X2416663Y1282149D01*
X2425002Y1275749D01*
X2434713Y1271727D01*
X2445135Y1270355D01*
X2455557Y1271727D01*
X2465268Y1275749D01*
X2473607Y1282149D01*
X2480006Y1290488D01*
X2484029Y1300199D01*
X2485401Y1310621D01*
X2484029Y1321042D01*
X2480006Y1330754D01*
X2473607Y1339093D01*
X2465268Y1345492D01*
X2455557Y1349514D01*
X2445135Y1350886D01*
D02*
G37*
G36*
X1890000Y1264470D02*
X1880636Y1262608D01*
X1872697Y1257303D01*
X1867392Y1249364D01*
X1865530Y1240000D01*
X1867392Y1230636D01*
X1872697Y1222697D01*
X1880636Y1217392D01*
X1890000Y1215530D01*
X1899364Y1217392D01*
X1907303Y1222697D01*
X1912608Y1230636D01*
X1914470Y1240000D01*
X1912608Y1249364D01*
X1907303Y1257303D01*
X1899364Y1262608D01*
X1890000Y1264470D01*
D02*
G37*
G36*
X2445135Y1232776D02*
X2434713Y1231404D01*
X2425002Y1227381D01*
X2416663Y1220983D01*
X2410264Y1212643D01*
X2406241Y1202932D01*
X2404869Y1192510D01*
X2406241Y1182089D01*
X2410264Y1172378D01*
X2416663Y1164038D01*
X2425002Y1157639D01*
X2434713Y1153617D01*
X2445135Y1152245D01*
X2455557Y1153617D01*
X2465268Y1157639D01*
X2473607Y1164038D01*
X2480006Y1172378D01*
X2484029Y1182089D01*
X2485401Y1192510D01*
X2484029Y1202932D01*
X2480006Y1212643D01*
X2473607Y1220983D01*
X2465268Y1227381D01*
X2455557Y1231404D01*
X2445135Y1232776D01*
D02*
G37*
G36*
X275000Y1182431D02*
X266416Y1180724D01*
X259139Y1175861D01*
X254276Y1168584D01*
X252569Y1160000D01*
X254276Y1151416D01*
X259139Y1144139D01*
X266416Y1139276D01*
X275000Y1137569D01*
X283584Y1139276D01*
X290861Y1144139D01*
X295724Y1151416D01*
X297431Y1160000D01*
X295724Y1168584D01*
X290861Y1175861D01*
X283584Y1180724D01*
X275000Y1182431D01*
D02*
G37*
G36*
X980000Y1122431D02*
X971416Y1120724D01*
X964139Y1115861D01*
X959277Y1108584D01*
X957569Y1100000D01*
X959277Y1091416D01*
X964139Y1084139D01*
X971416Y1079276D01*
X980000Y1077569D01*
X988584Y1079276D01*
X995861Y1084139D01*
X1000723Y1091416D01*
X1002431Y1100000D01*
X1000723Y1108584D01*
X995861Y1115861D01*
X988584Y1120724D01*
X980000Y1122431D01*
D02*
G37*
G36*
X760410D02*
X751827Y1120724D01*
X744549Y1115861D01*
X739687Y1108584D01*
X737980Y1100000D01*
X739687Y1091416D01*
X744549Y1084139D01*
X751827Y1079276D01*
X760410Y1077569D01*
X768995Y1079276D01*
X770234Y1080104D01*
X774853Y1078191D01*
X775255Y1076171D01*
X780117Y1068894D01*
X787394Y1064032D01*
X795978Y1062324D01*
X804562Y1064032D01*
X811839Y1068894D01*
X816702Y1076171D01*
X818409Y1084755D01*
X816702Y1093340D01*
X811839Y1100617D01*
X804562Y1105479D01*
X795978Y1107187D01*
X787394Y1105479D01*
X786155Y1104651D01*
X781536Y1106564D01*
X781134Y1108584D01*
X776272Y1115861D01*
X768995Y1120724D01*
X760410Y1122431D01*
D02*
G37*
G36*
X880000Y1097431D02*
X871416Y1095724D01*
X864139Y1090861D01*
X859277Y1083584D01*
X857569Y1075000D01*
X859277Y1066416D01*
X864139Y1059139D01*
X871416Y1054276D01*
X880000Y1052569D01*
X884808Y1053525D01*
X889112Y1049537D01*
X890820Y1040953D01*
X895682Y1033676D01*
X902959Y1028813D01*
X911543Y1027106D01*
X920127Y1028813D01*
X927404Y1033676D01*
X932267Y1040953D01*
X933974Y1049537D01*
X932267Y1058121D01*
X927404Y1065398D01*
X920127Y1070260D01*
X911543Y1071968D01*
X906736Y1071011D01*
X902431Y1075000D01*
X900723Y1083584D01*
X895861Y1090861D01*
X888584Y1095724D01*
X880000Y1097431D01*
D02*
G37*
G36*
X1255000Y1060511D02*
X1246416Y1058803D01*
X1239139Y1053941D01*
X1234276Y1046664D01*
X1232569Y1038080D01*
X1234276Y1029496D01*
X1239139Y1022219D01*
X1246416Y1017356D01*
X1255000Y1015649D01*
X1263584Y1017356D01*
X1270861Y1022219D01*
X1275724Y1029496D01*
X1277431Y1038080D01*
X1275724Y1046664D01*
X1270861Y1053941D01*
X1263584Y1058803D01*
X1255000Y1060511D01*
D02*
G37*
G36*
X308788Y1035431D02*
X300204Y1033724D01*
X292927Y1028861D01*
X288065Y1021584D01*
X286357Y1013000D01*
X288065Y1004416D01*
X292927Y997139D01*
X300204Y992277D01*
X308788Y990569D01*
X317372Y992277D01*
X324649Y997139D01*
X329512Y1004416D01*
X331219Y1013000D01*
X329512Y1021584D01*
X324649Y1028861D01*
X317372Y1033724D01*
X308788Y1035431D01*
D02*
G37*
G36*
X1010000Y1027431D02*
X1001416Y1025724D01*
X994139Y1020861D01*
X989277Y1013584D01*
X987569Y1005000D01*
X989277Y996416D01*
X994139Y989139D01*
X1001416Y984277D01*
X1010000Y982569D01*
X1018584Y984277D01*
X1025861Y989139D01*
X1030724Y996416D01*
X1032431Y1005000D01*
X1030724Y1013584D01*
X1025861Y1020861D01*
X1018584Y1025724D01*
X1010000Y1027431D01*
D02*
G37*
G36*
X730000Y1007431D02*
X721416Y1005723D01*
X714139Y1000861D01*
X709277Y993584D01*
X707569Y985000D01*
X709277Y976416D01*
X714139Y969139D01*
X721416Y964277D01*
X730000Y962569D01*
X738584Y964277D01*
X745861Y969139D01*
X750723Y976416D01*
X752431Y985000D01*
X750723Y993584D01*
X745861Y1000861D01*
X738584Y1005723D01*
X730000Y1007431D01*
D02*
G37*
G36*
X2325000Y997431D02*
X2316416Y995723D01*
X2309139Y990861D01*
X2304276Y983584D01*
X2302569Y975000D01*
X2304276Y966416D01*
X2309139Y959139D01*
X2316416Y954277D01*
X2325000Y952569D01*
X2333584Y954277D01*
X2340861Y959139D01*
X2345724Y966416D01*
X2347431Y975000D01*
X2345724Y983584D01*
X2340861Y990861D01*
X2333584Y995723D01*
X2325000Y997431D01*
D02*
G37*
G36*
X1255000D02*
X1246416Y995723D01*
X1239139Y990861D01*
X1234276Y983584D01*
X1232569Y975000D01*
X1234276Y966416D01*
X1239139Y959139D01*
X1246416Y954277D01*
X1255000Y952569D01*
X1263584Y954277D01*
X1270861Y959139D01*
X1275724Y966416D01*
X1277431Y975000D01*
X1275724Y983584D01*
X1270861Y990861D01*
X1263584Y995723D01*
X1255000Y997431D01*
D02*
G37*
G36*
X1380000Y942431D02*
X1371416Y940723D01*
X1364139Y935861D01*
X1359276Y928584D01*
X1357569Y920000D01*
X1359276Y911416D01*
X1364139Y904139D01*
X1371416Y899277D01*
X1380000Y897569D01*
X1388584Y899277D01*
X1395861Y904139D01*
X1400724Y911416D01*
X1402431Y920000D01*
X1400724Y928584D01*
X1395861Y935861D01*
X1388584Y940723D01*
X1380000Y942431D01*
D02*
G37*
G36*
X1255000Y927431D02*
X1246416Y925723D01*
X1239139Y920861D01*
X1234276Y913584D01*
X1232569Y905000D01*
X1234276Y896416D01*
X1239139Y889139D01*
X1246416Y884277D01*
X1255000Y882569D01*
X1263584Y884277D01*
X1270861Y889139D01*
X1275724Y896416D01*
X1277431Y905000D01*
X1275724Y913584D01*
X1270861Y920861D01*
X1263584Y925723D01*
X1255000Y927431D01*
D02*
G37*
G36*
X2325000Y899803D02*
X2316416Y898095D01*
X2309139Y893233D01*
X2304276Y885956D01*
X2302569Y877371D01*
X2304276Y868788D01*
X2309139Y861510D01*
X2316416Y856648D01*
X2325000Y854941D01*
X2333584Y856648D01*
X2340861Y861510D01*
X2345724Y868788D01*
X2347431Y877371D01*
X2345724Y885956D01*
X2340861Y893233D01*
X2333584Y898095D01*
X2325000Y899803D01*
D02*
G37*
G36*
X1615000Y897431D02*
X1606416Y895723D01*
X1599139Y890861D01*
X1594276Y883584D01*
X1592569Y875000D01*
X1594276Y866416D01*
X1599139Y859139D01*
X1606416Y854277D01*
X1615000Y852569D01*
X1623584Y854277D01*
X1630861Y859139D01*
X1635724Y866416D01*
X1637431Y875000D01*
X1635724Y883584D01*
X1630861Y890861D01*
X1623584Y895723D01*
X1615000Y897431D01*
D02*
G37*
G36*
X1985000Y882431D02*
X1976416Y880723D01*
X1969139Y875861D01*
X1964276Y868584D01*
X1962569Y860000D01*
X1964276Y851416D01*
X1969139Y844139D01*
X1976416Y839277D01*
X1985000Y837569D01*
X1993584Y839277D01*
X2000861Y844139D01*
X2005724Y851416D01*
X2007431Y860000D01*
X2005724Y868584D01*
X2000861Y875861D01*
X1993584Y880723D01*
X1985000Y882431D01*
D02*
G37*
G36*
X1255000Y857431D02*
X1246416Y855723D01*
X1239139Y850861D01*
X1234276Y843584D01*
X1232569Y835000D01*
X1234276Y826416D01*
X1239139Y819139D01*
X1246416Y814277D01*
X1255000Y812569D01*
X1263584Y814277D01*
X1270861Y819139D01*
X1275724Y826416D01*
X1277431Y835000D01*
X1275724Y843584D01*
X1270861Y850861D01*
X1263584Y855723D01*
X1255000Y857431D01*
D02*
G37*
G36*
X760410Y802226D02*
X751827Y800518D01*
X744549Y795656D01*
X739687Y788379D01*
X737980Y779795D01*
X739687Y771211D01*
X744549Y763934D01*
X751827Y759071D01*
X760410Y757364D01*
X768995Y759071D01*
X776272Y763934D01*
X781134Y771211D01*
X782841Y779795D01*
X781134Y788379D01*
X776272Y795656D01*
X768995Y800518D01*
X760410Y802226D01*
D02*
G37*
G36*
X936443Y801059D02*
X927859Y799352D01*
X920582Y794489D01*
X915720Y787212D01*
X914012Y778628D01*
X915720Y770044D01*
X920582Y762767D01*
X927859Y757905D01*
X936443Y756197D01*
X945027Y757905D01*
X952304Y762767D01*
X957167Y770044D01*
X958874Y778628D01*
X957167Y787212D01*
X952304Y794489D01*
X945027Y799352D01*
X936443Y801059D01*
D02*
G37*
G36*
X1105000Y787431D02*
X1096416Y785723D01*
X1089139Y780861D01*
X1084276Y773584D01*
X1082569Y765000D01*
X1084276Y756416D01*
X1089139Y749139D01*
X1096416Y744277D01*
X1105000Y742569D01*
X1113584Y744277D01*
X1120861Y749139D01*
X1125724Y756416D01*
X1127431Y765000D01*
X1125724Y773584D01*
X1120861Y780861D01*
X1113584Y785723D01*
X1105000Y787431D01*
D02*
G37*
G36*
X436082Y767431D02*
X427498Y765723D01*
X420221Y760861D01*
X415358Y753584D01*
X413651Y745000D01*
X415358Y736416D01*
X420221Y729139D01*
X427498Y724277D01*
X436082Y722569D01*
X444666Y724277D01*
X451943Y729139D01*
X456805Y736416D01*
X458513Y745000D01*
X456805Y753584D01*
X451943Y760861D01*
X444666Y765723D01*
X436082Y767431D01*
D02*
G37*
G36*
X379503D02*
X370919Y765723D01*
X363642Y760861D01*
X358779Y753584D01*
X357072Y745000D01*
X358779Y736416D01*
X363642Y729139D01*
X370919Y724277D01*
X379503Y722569D01*
X388087Y724277D01*
X395364Y729139D01*
X400226Y736416D01*
X401934Y745000D01*
X400226Y753584D01*
X395364Y760861D01*
X388087Y765723D01*
X379503Y767431D01*
D02*
G37*
G36*
X2325000Y713227D02*
X2316416Y711520D01*
X2309139Y706658D01*
X2304276Y699380D01*
X2302569Y690796D01*
X2304276Y682212D01*
X2309139Y674935D01*
X2316416Y670073D01*
X2325000Y668365D01*
X2333584Y670073D01*
X2340861Y674935D01*
X2345724Y682212D01*
X2347431Y690796D01*
X2345724Y699380D01*
X2340861Y706658D01*
X2333584Y711520D01*
X2325000Y713227D01*
D02*
G37*
G36*
X636828Y711024D02*
X628244Y709316D01*
X620967Y704454D01*
X616104Y697177D01*
X614397Y688593D01*
X616104Y680009D01*
X620967Y672731D01*
X628244Y667869D01*
X636828Y666162D01*
X645412Y667869D01*
X652689Y672731D01*
X657551Y680009D01*
X659259Y688593D01*
X657551Y697177D01*
X652689Y704454D01*
X645412Y709316D01*
X636828Y711024D01*
D02*
G37*
G36*
X179134Y732009D02*
X169586Y730751D01*
X160689Y727066D01*
X153048Y721204D01*
X147186Y713563D01*
X143500Y704666D01*
X142244Y695118D01*
X143500Y685570D01*
X147186Y676673D01*
X153048Y669033D01*
X160689Y663170D01*
X169586Y659485D01*
X179134Y658228D01*
X188682Y659485D01*
X197579Y663170D01*
X205219Y669033D01*
X211082Y676673D01*
X214767Y685570D01*
X216024Y695118D01*
X214767Y704666D01*
X211082Y713563D01*
X205219Y721204D01*
X197579Y727066D01*
X188682Y730751D01*
X179134Y732009D01*
D02*
G37*
G36*
X1640000Y677431D02*
X1631416Y675723D01*
X1624139Y670861D01*
X1619276Y663584D01*
X1617569Y655000D01*
X1619276Y646416D01*
X1624139Y639139D01*
X1631416Y634277D01*
X1640000Y632569D01*
X1648584Y634277D01*
X1655861Y639139D01*
X1660724Y646416D01*
X1662431Y655000D01*
X1660724Y663584D01*
X1655861Y670861D01*
X1648584Y675723D01*
X1640000Y677431D01*
D02*
G37*
G36*
X79134Y682009D02*
X69586Y680751D01*
X60689Y677066D01*
X53048Y671204D01*
X47186Y663563D01*
X43501Y654666D01*
X42243Y645118D01*
X43501Y635570D01*
X47186Y626673D01*
X53048Y619033D01*
X60689Y613170D01*
X69586Y609485D01*
X79134Y608228D01*
X88682Y609485D01*
X97579Y613170D01*
X105219Y619033D01*
X111082Y626673D01*
X114767Y635570D01*
X116024Y645118D01*
X114767Y654666D01*
X111082Y663563D01*
X105219Y671204D01*
X97579Y677066D01*
X88682Y680751D01*
X79134Y682009D01*
D02*
G37*
G36*
X823126Y617549D02*
X814542Y615842D01*
X807265Y610979D01*
X802403Y603702D01*
X800695Y595118D01*
X802403Y586534D01*
X807265Y579257D01*
X814542Y574395D01*
X823126Y572687D01*
X831710Y574395D01*
X838987Y579257D01*
X843850Y586534D01*
X845557Y595118D01*
X843850Y603702D01*
X838987Y610979D01*
X831710Y615842D01*
X823126Y617549D01*
D02*
G37*
G36*
X2325000Y617431D02*
X2316416Y615723D01*
X2309139Y610861D01*
X2304276Y603584D01*
X2302569Y595000D01*
X2304276Y586416D01*
X2309139Y579139D01*
X2316416Y574277D01*
X2325000Y572569D01*
X2333584Y574277D01*
X2340861Y579139D01*
X2345724Y586416D01*
X2347431Y595000D01*
X2345724Y603584D01*
X2340861Y610861D01*
X2333584Y615723D01*
X2325000Y617431D01*
D02*
G37*
G36*
X435000Y612431D02*
X426416Y610723D01*
X419139Y605861D01*
X414276Y598584D01*
X412569Y590000D01*
X414276Y581416D01*
X419139Y574139D01*
X426416Y569277D01*
X435000Y567569D01*
X443584Y569277D01*
X450861Y574139D01*
X455724Y581416D01*
X457431Y590000D01*
X455724Y598584D01*
X450861Y605861D01*
X443584Y610723D01*
X435000Y612431D01*
D02*
G37*
G36*
X1470000Y607431D02*
X1461416Y605723D01*
X1454139Y600861D01*
X1449276Y593584D01*
X1447569Y585000D01*
X1449276Y576416D01*
X1454139Y569139D01*
X1461416Y564277D01*
X1470000Y562569D01*
X1478584Y564277D01*
X1485861Y569139D01*
X1490724Y576416D01*
X1492431Y585000D01*
X1490724Y593584D01*
X1485861Y600861D01*
X1478584Y605723D01*
X1470000Y607431D01*
D02*
G37*
G36*
X179134Y632009D02*
X169586Y630751D01*
X160689Y627066D01*
X153048Y621204D01*
X147186Y613563D01*
X143500Y604666D01*
X142244Y595118D01*
X143500Y585570D01*
X147186Y576673D01*
X153048Y569033D01*
X160689Y563170D01*
X169586Y559485D01*
X179134Y558228D01*
X188682Y559485D01*
X197579Y563170D01*
X205219Y569033D01*
X211082Y576673D01*
X214767Y585570D01*
X216024Y595118D01*
X214767Y604666D01*
X211082Y613563D01*
X205219Y621204D01*
X197579Y627066D01*
X188682Y630751D01*
X179134Y632009D01*
D02*
G37*
G36*
X892716Y592431D02*
X884132Y590723D01*
X876855Y585861D01*
X871993Y578584D01*
X870285Y570000D01*
X871993Y561416D01*
X876855Y554139D01*
X884132Y549277D01*
X892716Y547569D01*
X901300Y549277D01*
X908577Y554139D01*
X913440Y561416D01*
X915147Y570000D01*
X913440Y578584D01*
X908577Y585861D01*
X901300Y590723D01*
X892716Y592431D01*
D02*
G37*
G36*
X79134Y582009D02*
X69586Y580751D01*
X60689Y577066D01*
X53048Y571204D01*
X47186Y563563D01*
X43501Y554666D01*
X42243Y545118D01*
X43501Y535570D01*
X47186Y526673D01*
X53048Y519033D01*
X60689Y513170D01*
X69586Y509485D01*
X79134Y508228D01*
X88682Y509485D01*
X97579Y513170D01*
X105219Y519033D01*
X111082Y526673D01*
X114767Y535570D01*
X116024Y545118D01*
X114767Y554666D01*
X111082Y563563D01*
X105219Y571204D01*
X97579Y577066D01*
X88682Y580751D01*
X79134Y582009D01*
D02*
G37*
G36*
X179134Y532009D02*
X169586Y530751D01*
X160689Y527066D01*
X153048Y521204D01*
X147186Y513563D01*
X143500Y504666D01*
X142244Y495118D01*
X143500Y485570D01*
X147186Y476673D01*
X153048Y469033D01*
X160689Y463170D01*
X169586Y459485D01*
X179134Y458228D01*
X188682Y459485D01*
X197579Y463170D01*
X205219Y469033D01*
X211082Y476673D01*
X214767Y485570D01*
X216024Y495118D01*
X214767Y504666D01*
X211082Y513563D01*
X205219Y521204D01*
X197579Y527066D01*
X188682Y530751D01*
X179134Y532009D01*
D02*
G37*
G36*
X595000Y497527D02*
X586416Y495820D01*
X579139Y490957D01*
X574277Y483680D01*
X572569Y475096D01*
X574277Y466512D01*
X579139Y459235D01*
X586416Y454373D01*
X595000Y452665D01*
X603584Y454373D01*
X610861Y459235D01*
X615723Y466512D01*
X617431Y475096D01*
X615723Y483680D01*
X610861Y490957D01*
X603584Y495820D01*
X595000Y497527D01*
D02*
G37*
G36*
X426528Y467920D02*
X417944Y466212D01*
X410667Y461350D01*
X405804Y454072D01*
X404097Y445488D01*
X405804Y436904D01*
X410667Y429627D01*
X417944Y424765D01*
X426528Y423058D01*
X435112Y424765D01*
X442389Y429627D01*
X447251Y436904D01*
X448959Y445488D01*
X447251Y454072D01*
X442389Y461350D01*
X435112Y466212D01*
X426528Y467920D01*
D02*
G37*
G36*
X79134Y482009D02*
X69586Y480752D01*
X60689Y477066D01*
X53048Y471204D01*
X47186Y463563D01*
X43501Y454666D01*
X42243Y445118D01*
X43501Y435570D01*
X47186Y426673D01*
X53048Y419033D01*
X60689Y413170D01*
X69586Y409485D01*
X79134Y408228D01*
X88682Y409485D01*
X97579Y413170D01*
X105219Y419033D01*
X111082Y426673D01*
X114767Y435570D01*
X116024Y445118D01*
X114767Y454666D01*
X111082Y463563D01*
X105219Y471204D01*
X97579Y477066D01*
X88682Y480752D01*
X79134Y482009D01*
D02*
G37*
G36*
X1235000Y447431D02*
X1226416Y445724D01*
X1219139Y440861D01*
X1214276Y433584D01*
X1212569Y425000D01*
X1214276Y416416D01*
X1219139Y409139D01*
X1226416Y404276D01*
X1235000Y402569D01*
X1243584Y404276D01*
X1250861Y409139D01*
X1255724Y416416D01*
X1257431Y425000D01*
X1255724Y433584D01*
X1250861Y440861D01*
X1243584Y445724D01*
X1235000Y447431D01*
D02*
G37*
G36*
X1405000Y424292D02*
X1396416Y422584D01*
X1389139Y417722D01*
X1384276Y410445D01*
X1382569Y401861D01*
X1384276Y393277D01*
X1389139Y386000D01*
X1396416Y381137D01*
X1405000Y379430D01*
X1413584Y381137D01*
X1420861Y386000D01*
X1425724Y393277D01*
X1427431Y401861D01*
X1425724Y410445D01*
X1420861Y417722D01*
X1413584Y422584D01*
X1405000Y424292D01*
D02*
G37*
G36*
X1587176Y417656D02*
X1578592Y415948D01*
X1571315Y411086D01*
X1566453Y403809D01*
X1564745Y395225D01*
X1566453Y386641D01*
X1571315Y379364D01*
X1578592Y374501D01*
X1587176Y372794D01*
X1595760Y374501D01*
X1603037Y379364D01*
X1607900Y386641D01*
X1609607Y395225D01*
X1607900Y403809D01*
X1603037Y411086D01*
X1595760Y415948D01*
X1587176Y417656D01*
D02*
G37*
G36*
X595000Y404772D02*
X586416Y403065D01*
X579139Y398203D01*
X574277Y390925D01*
X572569Y382341D01*
X574277Y373757D01*
X579139Y366480D01*
X586416Y361618D01*
X595000Y359911D01*
X603584Y361618D01*
X610861Y366480D01*
X615723Y373757D01*
X617431Y382341D01*
X615723Y390925D01*
X610861Y398203D01*
X603584Y403065D01*
X595000Y404772D01*
D02*
G37*
G36*
X179134Y432009D02*
X169586Y430752D01*
X160689Y427066D01*
X153048Y421204D01*
X147186Y413563D01*
X143500Y404666D01*
X142244Y395118D01*
X143500Y385570D01*
X147186Y376673D01*
X153048Y369033D01*
X160689Y363170D01*
X169586Y359485D01*
X179134Y358228D01*
X188682Y359485D01*
X197579Y363170D01*
X205219Y369033D01*
X211082Y376673D01*
X214767Y385570D01*
X216024Y395118D01*
X214767Y404666D01*
X211082Y413563D01*
X205219Y421204D01*
X197579Y427066D01*
X188682Y430752D01*
X179134Y432009D01*
D02*
G37*
G36*
X2475000Y387431D02*
X2466416Y385724D01*
X2459139Y380861D01*
X2454276Y373584D01*
X2452569Y365000D01*
X2454276Y356416D01*
X2459139Y349139D01*
X2466416Y344276D01*
X2475000Y342569D01*
X2483584Y344276D01*
X2490861Y349139D01*
X2495724Y356416D01*
X2497431Y365000D01*
X2495724Y373584D01*
X2490861Y380861D01*
X2483584Y385724D01*
X2475000Y387431D01*
D02*
G37*
G36*
X79134Y382009D02*
X69586Y380752D01*
X60689Y377066D01*
X53048Y371204D01*
X47186Y363563D01*
X43501Y354666D01*
X42243Y345118D01*
X43501Y335570D01*
X47186Y326673D01*
X53048Y319033D01*
X60689Y313170D01*
X69586Y309485D01*
X79134Y308228D01*
X88682Y309485D01*
X97579Y313170D01*
X105219Y319033D01*
X111082Y326673D01*
X114767Y335570D01*
X116024Y345118D01*
X114767Y354666D01*
X111082Y363563D01*
X105219Y371204D01*
X97579Y377066D01*
X88682Y380752D01*
X79134Y382009D01*
D02*
G37*
G36*
X595000Y310560D02*
X586416Y308853D01*
X579139Y303990D01*
X574277Y296713D01*
X572569Y288129D01*
X574277Y279545D01*
X579139Y272268D01*
X586416Y267406D01*
X595000Y265698D01*
X603584Y267406D01*
X610861Y272268D01*
X615723Y279545D01*
X617431Y288129D01*
X615723Y296713D01*
X610861Y303990D01*
X603584Y308853D01*
X595000Y310560D01*
D02*
G37*
G36*
X179134Y332009D02*
X169586Y330752D01*
X160689Y327066D01*
X153048Y321204D01*
X147186Y313563D01*
X143500Y304666D01*
X142244Y295118D01*
X143500Y285570D01*
X147186Y276673D01*
X153048Y269033D01*
X160689Y263170D01*
X169586Y259485D01*
X179134Y258228D01*
X188682Y259485D01*
X197579Y263170D01*
X205219Y269033D01*
X211082Y276673D01*
X214767Y285570D01*
X216024Y295118D01*
X214767Y304666D01*
X211082Y313563D01*
X205219Y321204D01*
X197579Y327066D01*
X188682Y330752D01*
X179134Y332009D01*
D02*
G37*
G36*
X79134Y282009D02*
X69586Y280752D01*
X60689Y277066D01*
X53048Y271204D01*
X47186Y263563D01*
X43501Y254666D01*
X42243Y245118D01*
X43501Y235570D01*
X47186Y226673D01*
X53048Y219033D01*
X60689Y213170D01*
X69586Y209485D01*
X79134Y208228D01*
X88682Y209485D01*
X97579Y213170D01*
X105219Y219033D01*
X111082Y226673D01*
X114767Y235570D01*
X116024Y245118D01*
X114767Y254666D01*
X111082Y263563D01*
X105219Y271204D01*
X97579Y277066D01*
X88682Y280752D01*
X79134Y282009D01*
D02*
G37*
G36*
X595000Y223022D02*
X586416Y221314D01*
X579139Y216452D01*
X574277Y209175D01*
X572569Y200591D01*
X574277Y192007D01*
X579139Y184730D01*
X586416Y179867D01*
X595000Y178160D01*
X603584Y179867D01*
X610861Y184730D01*
X615723Y192007D01*
X617431Y200591D01*
X615723Y209175D01*
X610861Y216452D01*
X603584Y221314D01*
X595000Y223022D01*
D02*
G37*
G36*
X179134Y232008D02*
X169586Y230751D01*
X160689Y227066D01*
X153048Y221204D01*
X147186Y213563D01*
X143500Y204666D01*
X142244Y195118D01*
X143500Y185570D01*
X147186Y176673D01*
X153048Y169033D01*
X160689Y163170D01*
X169586Y159485D01*
X179134Y158228D01*
X188682Y159485D01*
X197579Y163170D01*
X205219Y169033D01*
X211082Y176673D01*
X214767Y185570D01*
X216024Y195118D01*
X214767Y204666D01*
X211082Y213563D01*
X205219Y221204D01*
X197579Y227066D01*
X188682Y230751D01*
X179134Y232008D01*
D02*
G37*
G36*
X1165000Y227431D02*
X1156416Y225724D01*
X1149139Y220861D01*
X1144276Y213584D01*
X1142569Y205000D01*
X1144276Y196416D01*
X1149139Y189139D01*
X1156416Y184276D01*
X1161858Y183194D01*
X1165092Y180184D01*
X1165183Y177823D01*
X1163858Y171159D01*
X1165565Y162575D01*
X1170428Y155298D01*
X1177705Y150436D01*
X1186289Y148728D01*
X1194873Y150436D01*
X1202150Y155298D01*
X1207012Y162575D01*
X1208720Y171159D01*
X1207012Y179743D01*
X1202150Y187020D01*
X1194873Y191883D01*
X1189431Y192965D01*
X1186197Y195976D01*
X1186106Y198337D01*
X1187431Y205000D01*
X1185724Y213584D01*
X1180861Y220861D01*
X1173584Y225724D01*
X1165000Y227431D01*
D02*
G37*
G36*
X750000Y142431D02*
X741416Y140724D01*
X734139Y135861D01*
X729277Y128584D01*
X727569Y120000D01*
X729277Y111416D01*
X734139Y104139D01*
X741416Y99276D01*
X750000Y97569D01*
X758584Y99276D01*
X765861Y104139D01*
X770723Y111416D01*
X772431Y120000D01*
X770723Y128584D01*
X765861Y135861D01*
X758584Y140724D01*
X750000Y142431D01*
D02*
G37*
G36*
X115709Y181693D02*
X42559D01*
Y108543D01*
X110397D01*
X113175Y104386D01*
X111490Y100319D01*
X110131Y90000D01*
X111490Y79681D01*
X115473Y70066D01*
X121809Y61809D01*
X130066Y55473D01*
X139681Y51490D01*
X150000Y50131D01*
X160319Y51490D01*
X169934Y55473D01*
X178191Y61809D01*
X184527Y70066D01*
X188510Y79681D01*
X189869Y90000D01*
X188510Y100319D01*
X184527Y109934D01*
X178191Y118191D01*
X169934Y124527D01*
X160319Y128510D01*
X150000Y129869D01*
X139681Y128510D01*
X130066Y124527D01*
X121809Y118191D01*
X120443Y116412D01*
X115709Y118019D01*
Y181693D01*
D02*
G37*
G36*
X950000Y75808D02*
X941416Y74100D01*
X934139Y69238D01*
X929277Y61961D01*
X927569Y53377D01*
X929277Y44793D01*
X934139Y37516D01*
X941416Y32653D01*
X950000Y30946D01*
X958584Y32653D01*
X965861Y37516D01*
X970723Y44793D01*
X972431Y53377D01*
X970723Y61961D01*
X965861Y69238D01*
X958584Y74100D01*
X950000Y75808D01*
D02*
G37*
G36*
X4046416Y1532431D02*
X4037832Y1530724D01*
X4030555Y1525861D01*
X4027277D01*
X4020000Y1530724D01*
X4011416Y1532431D01*
X4002832Y1530724D01*
X3995555Y1525861D01*
X3992277D01*
X3985000Y1530724D01*
X3976416Y1532431D01*
X3967832Y1530724D01*
X3960555Y1525861D01*
X3957277D01*
X3950000Y1530724D01*
X3941416Y1532431D01*
X3932832Y1530724D01*
X3925555Y1525861D01*
X3922277D01*
X3915000Y1530724D01*
X3906416Y1532431D01*
X3897832Y1530724D01*
X3890555Y1525861D01*
X3887277D01*
X3880000Y1530724D01*
X3871416Y1532431D01*
X3862832Y1530724D01*
X3855555Y1525861D01*
X3852277D01*
X3845000Y1530724D01*
X3836416Y1532431D01*
X3827832Y1530724D01*
X3820555Y1525861D01*
X3817277D01*
X3810000Y1530724D01*
X3801416Y1532431D01*
X3792832Y1530724D01*
X3785555Y1525861D01*
X3782277D01*
X3775000Y1530724D01*
X3766416Y1532431D01*
X3757832Y1530724D01*
X3750555Y1525861D01*
X3745693Y1518584D01*
X3743985Y1510000D01*
X3745693Y1501416D01*
X3750555Y1494139D01*
Y1490861D01*
X3745693Y1483584D01*
X3743985Y1475000D01*
X3745693Y1466416D01*
X3750555Y1459139D01*
Y1455861D01*
X3745693Y1448584D01*
X3743985Y1440000D01*
X3745693Y1431416D01*
X3750555Y1424139D01*
Y1420861D01*
X3745693Y1413584D01*
X3743985Y1405000D01*
X3745693Y1396416D01*
X3750555Y1389139D01*
Y1385861D01*
X3745693Y1378584D01*
X3743985Y1370000D01*
X3745693Y1361416D01*
X3750555Y1354139D01*
Y1350861D01*
X3745693Y1343584D01*
X3743985Y1335000D01*
X3745693Y1326416D01*
X3750555Y1319139D01*
Y1315861D01*
X3745693Y1308584D01*
X3743985Y1300000D01*
X3745693Y1291416D01*
X3750555Y1284139D01*
Y1280861D01*
X3745693Y1273584D01*
X3743985Y1265000D01*
X3745693Y1256416D01*
X3750555Y1249139D01*
Y1245861D01*
X3745693Y1238584D01*
X3743985Y1230000D01*
X3745693Y1221416D01*
X3750555Y1214139D01*
Y1210861D01*
X3745693Y1203584D01*
X3743985Y1195000D01*
X3745693Y1186416D01*
X3750555Y1179139D01*
Y1175861D01*
X3745693Y1168584D01*
X3743985Y1160000D01*
X3745693Y1151416D01*
X3750555Y1144139D01*
Y1140861D01*
X3745693Y1133584D01*
X3743985Y1125000D01*
X3745693Y1116416D01*
X3750555Y1109139D01*
X3757832Y1104276D01*
X3766416Y1102569D01*
X3775000Y1104276D01*
X3782277Y1109139D01*
X3785555D01*
X3792832Y1104276D01*
X3801416Y1102569D01*
X3810000Y1104276D01*
X3817277Y1109139D01*
X3820555D01*
X3827832Y1104276D01*
X3836416Y1102569D01*
X3845000Y1104276D01*
X3852277Y1109139D01*
X3855555D01*
X3862832Y1104276D01*
X3871416Y1102569D01*
X3880000Y1104276D01*
X3887277Y1109139D01*
X3890555D01*
X3897832Y1104276D01*
X3906416Y1102569D01*
X3915000Y1104276D01*
X3922277Y1109139D01*
X3925555D01*
X3932832Y1104276D01*
X3941416Y1102569D01*
X3950000Y1104276D01*
X3957277Y1109139D01*
X3960555D01*
X3967832Y1104276D01*
X3976416Y1102569D01*
X3985000Y1104276D01*
X3992277Y1109139D01*
X3995555D01*
X4002832Y1104276D01*
X4011416Y1102569D01*
X4020000Y1104276D01*
X4027277Y1109139D01*
X4030555D01*
X4037832Y1104276D01*
X4046416Y1102569D01*
X4055000Y1104276D01*
X4062277Y1109139D01*
X4067140Y1116416D01*
X4068847Y1125000D01*
X4067140Y1133584D01*
X4062277Y1140861D01*
Y1144139D01*
X4067140Y1151416D01*
X4068847Y1160000D01*
X4067140Y1168584D01*
X4062277Y1175861D01*
Y1179139D01*
X4067140Y1186416D01*
X4068847Y1195000D01*
X4067140Y1203584D01*
X4062277Y1210861D01*
Y1214139D01*
X4067140Y1221416D01*
X4068847Y1230000D01*
X4067140Y1238584D01*
X4062277Y1245861D01*
Y1249139D01*
X4067140Y1256416D01*
X4068847Y1265000D01*
X4067140Y1273584D01*
X4062277Y1280861D01*
Y1284139D01*
X4067140Y1291416D01*
X4068847Y1300000D01*
X4067140Y1308584D01*
X4062277Y1315861D01*
Y1319139D01*
X4067140Y1326416D01*
X4068847Y1335000D01*
X4067140Y1343584D01*
X4062277Y1350861D01*
Y1354139D01*
X4067140Y1361416D01*
X4068847Y1370000D01*
X4067140Y1378584D01*
X4062277Y1385861D01*
Y1389139D01*
X4067140Y1396416D01*
X4068847Y1405000D01*
X4067140Y1413584D01*
X4062277Y1420861D01*
Y1424139D01*
X4067140Y1431416D01*
X4068847Y1440000D01*
X4067140Y1448584D01*
X4062277Y1455861D01*
Y1459139D01*
X4067140Y1466416D01*
X4068847Y1475000D01*
X4067140Y1483584D01*
X4062277Y1490861D01*
Y1494139D01*
X4067140Y1501416D01*
X4068847Y1510000D01*
X4067140Y1518584D01*
X4062277Y1525861D01*
X4055000Y1530724D01*
X4046416Y1532431D01*
D02*
G37*
G36*
X3686416D02*
X3677832Y1530724D01*
X3670555Y1525861D01*
X3667277D01*
X3660000Y1530724D01*
X3651416Y1532431D01*
X3642832Y1530724D01*
X3635555Y1525861D01*
X3632277D01*
X3625000Y1530724D01*
X3616416Y1532431D01*
X3607832Y1530724D01*
X3600555Y1525861D01*
X3597277D01*
X3590000Y1530724D01*
X3581416Y1532431D01*
X3572832Y1530724D01*
X3565555Y1525861D01*
X3562277D01*
X3555000Y1530724D01*
X3546416Y1532431D01*
X3537832Y1530724D01*
X3530555Y1525861D01*
X3527277D01*
X3520000Y1530724D01*
X3511416Y1532431D01*
X3502832Y1530724D01*
X3495555Y1525861D01*
X3492277D01*
X3485000Y1530724D01*
X3476416Y1532431D01*
X3467832Y1530724D01*
X3460555Y1525861D01*
X3457277D01*
X3450000Y1530724D01*
X3441416Y1532431D01*
X3432832Y1530724D01*
X3425555Y1525861D01*
X3422277D01*
X3415000Y1530724D01*
X3406416Y1532431D01*
X3397832Y1530724D01*
X3390555Y1525861D01*
X3385693Y1518584D01*
X3383985Y1510000D01*
X3385693Y1501416D01*
X3390555Y1494139D01*
Y1490861D01*
X3385693Y1483584D01*
X3383985Y1475000D01*
X3385693Y1466416D01*
X3390555Y1459139D01*
Y1455861D01*
X3385693Y1448584D01*
X3383985Y1440000D01*
X3385693Y1431416D01*
X3390555Y1424139D01*
Y1420861D01*
X3385693Y1413584D01*
X3383985Y1405000D01*
X3385693Y1396416D01*
X3390555Y1389139D01*
Y1385861D01*
X3385693Y1378584D01*
X3383985Y1370000D01*
X3385693Y1361416D01*
X3390555Y1354139D01*
Y1350861D01*
X3385693Y1343584D01*
X3383985Y1335000D01*
X3385693Y1326416D01*
X3390555Y1319139D01*
Y1315861D01*
X3385693Y1308584D01*
X3383985Y1300000D01*
X3385693Y1291416D01*
X3390555Y1284139D01*
Y1280861D01*
X3385693Y1273584D01*
X3383985Y1265000D01*
X3385693Y1256416D01*
X3390555Y1249139D01*
Y1245861D01*
X3385693Y1238584D01*
X3383985Y1230000D01*
X3385693Y1221416D01*
X3390555Y1214139D01*
Y1210861D01*
X3385693Y1203584D01*
X3383985Y1195000D01*
X3385693Y1186416D01*
X3390555Y1179139D01*
Y1175861D01*
X3385693Y1168584D01*
X3383985Y1160000D01*
X3385693Y1151416D01*
X3390555Y1144139D01*
Y1140861D01*
X3385693Y1133584D01*
X3383985Y1125000D01*
X3385693Y1116416D01*
X3390555Y1109139D01*
X3397832Y1104276D01*
X3406416Y1102569D01*
X3415000Y1104276D01*
X3422277Y1109139D01*
X3425555D01*
X3432832Y1104276D01*
X3441416Y1102569D01*
X3450000Y1104276D01*
X3457277Y1109139D01*
X3460555D01*
X3467832Y1104276D01*
X3476416Y1102569D01*
X3485000Y1104276D01*
X3492277Y1109139D01*
X3495555D01*
X3502832Y1104276D01*
X3511416Y1102569D01*
X3520000Y1104276D01*
X3527277Y1109139D01*
X3530555D01*
X3537832Y1104276D01*
X3546416Y1102569D01*
X3555000Y1104276D01*
X3562277Y1109139D01*
X3565555D01*
X3572832Y1104276D01*
X3581416Y1102569D01*
X3590000Y1104276D01*
X3597277Y1109139D01*
X3600555D01*
X3607832Y1104276D01*
X3616416Y1102569D01*
X3625000Y1104276D01*
X3632277Y1109139D01*
X3635555D01*
X3642832Y1104276D01*
X3651416Y1102569D01*
X3660000Y1104276D01*
X3667277Y1109139D01*
X3670555D01*
X3677832Y1104276D01*
X3686416Y1102569D01*
X3695000Y1104276D01*
X3702277Y1109139D01*
X3707140Y1116416D01*
X3708847Y1125000D01*
X3707140Y1133584D01*
X3702277Y1140861D01*
Y1144139D01*
X3707140Y1151416D01*
X3708847Y1160000D01*
X3707140Y1168584D01*
X3702277Y1175861D01*
Y1179139D01*
X3707140Y1186416D01*
X3708847Y1195000D01*
X3707140Y1203584D01*
X3702277Y1210861D01*
Y1214139D01*
X3707140Y1221416D01*
X3708847Y1230000D01*
X3707140Y1238584D01*
X3702277Y1245861D01*
Y1249139D01*
X3707140Y1256416D01*
X3708847Y1265000D01*
X3707140Y1273584D01*
X3702277Y1280861D01*
Y1284139D01*
X3707140Y1291416D01*
X3708847Y1300000D01*
X3707140Y1308584D01*
X3702277Y1315861D01*
Y1319139D01*
X3707140Y1326416D01*
X3708847Y1335000D01*
X3707140Y1343584D01*
X3702277Y1350861D01*
Y1354139D01*
X3707140Y1361416D01*
X3708847Y1370000D01*
X3707140Y1378584D01*
X3702277Y1385861D01*
Y1389139D01*
X3707140Y1396416D01*
X3708847Y1405000D01*
X3707140Y1413584D01*
X3702277Y1420861D01*
Y1424139D01*
X3707140Y1431416D01*
X3708847Y1440000D01*
X3707140Y1448584D01*
X3702277Y1455861D01*
Y1459139D01*
X3707140Y1466416D01*
X3708847Y1475000D01*
X3707140Y1483584D01*
X3702277Y1490861D01*
Y1494139D01*
X3707140Y1501416D01*
X3708847Y1510000D01*
X3707140Y1518584D01*
X3702277Y1525861D01*
X3695000Y1530724D01*
X3686416Y1532431D01*
D02*
G37*
G36*
X3250000Y1491210D02*
X3241416Y1489503D01*
X3234139Y1484641D01*
X3229276Y1477363D01*
X3227569Y1468780D01*
X3229276Y1460196D01*
X3234139Y1452918D01*
X3241416Y1448056D01*
X3250000Y1446349D01*
X3258584Y1448056D01*
X3265861Y1452918D01*
X3270724Y1460196D01*
X3272431Y1468780D01*
X3270724Y1477363D01*
X3265861Y1484641D01*
X3258584Y1489503D01*
X3250000Y1491210D01*
D02*
G37*
G36*
X4200000Y1189931D02*
X4191416Y1188223D01*
X4184139Y1183361D01*
X4179276Y1176084D01*
X4177569Y1167500D01*
X4179276Y1158916D01*
X4184139Y1151639D01*
X4191416Y1146776D01*
X4200000Y1145069D01*
X4208584Y1146776D01*
X4215861Y1151639D01*
X4220724Y1158916D01*
X4222431Y1167500D01*
X4220724Y1176084D01*
X4215861Y1183361D01*
X4208584Y1188223D01*
X4200000Y1189931D01*
D02*
G37*
G36*
X4046416Y1067431D02*
X4037832Y1065724D01*
X4030555Y1060861D01*
X4027277D01*
X4020000Y1065724D01*
X4011416Y1067431D01*
X4002832Y1065724D01*
X3995555Y1060861D01*
X3992277D01*
X3985000Y1065724D01*
X3976416Y1067431D01*
X3967832Y1065724D01*
X3960555Y1060861D01*
X3957277D01*
X3950000Y1065724D01*
X3941416Y1067431D01*
X3932832Y1065724D01*
X3925555Y1060861D01*
X3922277D01*
X3915000Y1065724D01*
X3906416Y1067431D01*
X3897832Y1065724D01*
X3890555Y1060861D01*
X3887277D01*
X3880000Y1065724D01*
X3871416Y1067431D01*
X3862832Y1065724D01*
X3855555Y1060861D01*
X3852277D01*
X3845000Y1065724D01*
X3836416Y1067431D01*
X3827832Y1065724D01*
X3820555Y1060861D01*
X3817277D01*
X3810000Y1065724D01*
X3801416Y1067431D01*
X3792832Y1065724D01*
X3785555Y1060861D01*
X3782277D01*
X3775000Y1065724D01*
X3766416Y1067431D01*
X3757832Y1065724D01*
X3750555Y1060861D01*
X3745693Y1053584D01*
X3743985Y1045000D01*
X3745693Y1036416D01*
X3750555Y1029139D01*
Y1025861D01*
X3745693Y1018584D01*
X3743985Y1010000D01*
X3745693Y1001416D01*
X3750555Y994139D01*
Y990861D01*
X3745693Y983584D01*
X3743985Y975000D01*
X3745693Y966416D01*
X3750555Y959139D01*
Y955861D01*
X3745693Y948584D01*
X3743985Y940000D01*
X3745693Y931416D01*
X3750555Y924139D01*
Y920861D01*
X3745693Y913584D01*
X3743985Y905000D01*
X3745693Y896416D01*
X3750555Y889139D01*
Y885861D01*
X3745693Y878584D01*
X3743985Y870000D01*
X3745693Y861416D01*
X3750555Y854139D01*
Y850861D01*
X3745693Y843584D01*
X3743985Y835000D01*
X3745693Y826416D01*
X3750555Y819139D01*
Y815861D01*
X3745693Y808584D01*
X3743985Y800000D01*
X3745693Y791416D01*
X3750555Y784139D01*
Y780861D01*
X3745693Y773584D01*
X3743985Y765000D01*
X3745693Y756416D01*
X3750555Y749139D01*
Y745861D01*
X3745693Y738584D01*
X3743985Y730000D01*
X3745693Y721416D01*
X3750555Y714139D01*
Y710861D01*
X3745693Y703584D01*
X3743985Y695000D01*
X3745693Y686416D01*
X3750555Y679139D01*
Y675861D01*
X3745693Y668584D01*
X3743985Y660000D01*
X3745693Y651416D01*
X3750555Y644139D01*
X3757832Y639277D01*
X3766416Y637569D01*
X3775000Y639277D01*
X3780386Y642875D01*
X3783916Y643738D01*
X3787446Y642875D01*
X3792832Y639277D01*
X3801416Y637569D01*
X3810000Y639277D01*
X3815386Y642875D01*
X3818916Y643738D01*
X3822446Y642875D01*
X3827832Y639277D01*
X3836416Y637569D01*
X3845000Y639277D01*
X3850386Y642875D01*
X3853916Y643738D01*
X3857446Y642875D01*
X3862832Y639277D01*
X3871416Y637569D01*
X3880000Y639277D01*
X3885386Y642875D01*
X3888916Y643738D01*
X3892446Y642875D01*
X3897832Y639277D01*
X3906416Y637569D01*
X3915000Y639277D01*
X3920386Y642875D01*
X3923916Y643738D01*
X3927446Y642875D01*
X3932832Y639277D01*
X3941416Y637569D01*
X3950000Y639277D01*
X3955386Y642875D01*
X3958916Y643738D01*
X3962446Y642875D01*
X3967832Y639277D01*
X3976416Y637569D01*
X3985000Y639277D01*
X3990386Y642875D01*
X3993916Y643738D01*
X3997446Y642875D01*
X4002832Y639277D01*
X4011416Y637569D01*
X4020000Y639277D01*
X4025386Y642875D01*
X4028916Y643738D01*
X4032446Y642875D01*
X4037832Y639277D01*
X4046416Y637569D01*
X4055000Y639277D01*
X4062277Y644139D01*
X4067140Y651416D01*
X4068847Y660000D01*
X4067140Y668584D01*
X4062277Y675861D01*
Y679139D01*
X4067140Y686416D01*
X4068847Y695000D01*
X4067140Y703584D01*
X4062277Y710861D01*
Y714139D01*
X4067140Y721416D01*
X4068847Y730000D01*
X4067140Y738584D01*
X4062277Y745861D01*
Y749139D01*
X4067140Y756416D01*
X4068847Y765000D01*
X4067140Y773584D01*
X4062277Y780861D01*
Y784139D01*
X4067140Y791416D01*
X4068847Y800000D01*
X4067140Y808584D01*
X4062277Y815861D01*
Y819139D01*
X4067140Y826416D01*
X4068847Y835000D01*
X4067140Y843584D01*
X4062277Y850861D01*
Y854139D01*
X4067140Y861416D01*
X4068847Y870000D01*
X4067140Y878584D01*
X4062277Y885861D01*
Y889139D01*
X4067140Y896416D01*
X4068847Y905000D01*
X4067140Y913584D01*
X4062277Y920861D01*
Y924139D01*
X4067140Y931416D01*
X4068847Y940000D01*
X4067140Y948584D01*
X4062277Y955861D01*
Y959139D01*
X4067140Y966416D01*
X4068847Y975000D01*
X4067140Y983584D01*
X4062277Y990861D01*
Y994139D01*
X4067140Y1001416D01*
X4068847Y1010000D01*
X4067140Y1018584D01*
X4062277Y1025861D01*
Y1029139D01*
X4067140Y1036416D01*
X4068847Y1045000D01*
X4067140Y1053584D01*
X4062277Y1060861D01*
X4055000Y1065724D01*
X4046416Y1067431D01*
D02*
G37*
G36*
X3686416D02*
X3677832Y1065724D01*
X3670555Y1060861D01*
X3667277D01*
X3660000Y1065724D01*
X3651416Y1067431D01*
X3642832Y1065724D01*
X3635555Y1060861D01*
X3632277D01*
X3625000Y1065724D01*
X3616416Y1067431D01*
X3607832Y1065724D01*
X3600555Y1060861D01*
X3597277D01*
X3590000Y1065724D01*
X3581416Y1067431D01*
X3572832Y1065724D01*
X3565555Y1060861D01*
X3562277D01*
X3555000Y1065724D01*
X3546416Y1067431D01*
X3537832Y1065724D01*
X3530555Y1060861D01*
X3527277D01*
X3520000Y1065724D01*
X3511416Y1067431D01*
X3502832Y1065724D01*
X3495555Y1060861D01*
X3492277D01*
X3485000Y1065724D01*
X3476416Y1067431D01*
X3467832Y1065724D01*
X3460555Y1060861D01*
X3457277D01*
X3450000Y1065724D01*
X3441416Y1067431D01*
X3432832Y1065724D01*
X3425555Y1060861D01*
X3422277D01*
X3415000Y1065724D01*
X3406416Y1067431D01*
X3397832Y1065724D01*
X3390555Y1060861D01*
X3385693Y1053584D01*
X3383985Y1045000D01*
X3385693Y1036416D01*
X3390555Y1029139D01*
Y1025861D01*
X3385693Y1018584D01*
X3383985Y1010000D01*
X3385693Y1001416D01*
X3390555Y994139D01*
Y990861D01*
X3385693Y983584D01*
X3383985Y975000D01*
X3385693Y966416D01*
X3390555Y959139D01*
Y955861D01*
X3385693Y948584D01*
X3383985Y940000D01*
X3385693Y931416D01*
X3390555Y924139D01*
Y920861D01*
X3385693Y913584D01*
X3383985Y905000D01*
X3385693Y896416D01*
X3390555Y889139D01*
Y885861D01*
X3385693Y878584D01*
X3383985Y870000D01*
X3385693Y861416D01*
X3390555Y854139D01*
Y850861D01*
X3385693Y843584D01*
X3383985Y835000D01*
X3385693Y826416D01*
X3390555Y819139D01*
Y815861D01*
X3385693Y808584D01*
X3383985Y800000D01*
X3385693Y791416D01*
X3390555Y784139D01*
Y780861D01*
X3385693Y773584D01*
X3383985Y765000D01*
X3385693Y756416D01*
X3390555Y749139D01*
Y745861D01*
X3385693Y738584D01*
X3383985Y730000D01*
X3385693Y721416D01*
X3390555Y714139D01*
Y710861D01*
X3385693Y703584D01*
X3383985Y695000D01*
X3385693Y686416D01*
X3390555Y679139D01*
Y675861D01*
X3385693Y668584D01*
X3383985Y660000D01*
X3385693Y651416D01*
X3390555Y644139D01*
X3397832Y639277D01*
X3406416Y637569D01*
X3415000Y639277D01*
X3420386Y642875D01*
X3423916Y643738D01*
X3427446Y642875D01*
X3432832Y639277D01*
X3441416Y637569D01*
X3450000Y639277D01*
X3455386Y642875D01*
X3458916Y643738D01*
X3462446Y642875D01*
X3467832Y639277D01*
X3476416Y637569D01*
X3485000Y639277D01*
X3490386Y642875D01*
X3493916Y643738D01*
X3497446Y642875D01*
X3502832Y639277D01*
X3511416Y637569D01*
X3520000Y639277D01*
X3525386Y642875D01*
X3528916Y643738D01*
X3532446Y642875D01*
X3537832Y639277D01*
X3546416Y637569D01*
X3555000Y639277D01*
X3560386Y642875D01*
X3563916Y643738D01*
X3567446Y642875D01*
X3572832Y639277D01*
X3581416Y637569D01*
X3590000Y639277D01*
X3595386Y642875D01*
X3598916Y643738D01*
X3602446Y642875D01*
X3607832Y639277D01*
X3616416Y637569D01*
X3625000Y639277D01*
X3630386Y642875D01*
X3633916Y643738D01*
X3637446Y642875D01*
X3642832Y639277D01*
X3651416Y637569D01*
X3660000Y639277D01*
X3665386Y642875D01*
X3668916Y643738D01*
X3672446Y642875D01*
X3677832Y639277D01*
X3686416Y637569D01*
X3695000Y639277D01*
X3702277Y644139D01*
X3707140Y651416D01*
X3708847Y660000D01*
X3707140Y668584D01*
X3702277Y675861D01*
Y679139D01*
X3707140Y686416D01*
X3708847Y695000D01*
X3707140Y703584D01*
X3702277Y710861D01*
Y714139D01*
X3707140Y721416D01*
X3708847Y730000D01*
X3707140Y738584D01*
X3702277Y745861D01*
Y749139D01*
X3707140Y756416D01*
X3708847Y765000D01*
X3707140Y773584D01*
X3702277Y780861D01*
Y784139D01*
X3707140Y791416D01*
X3708847Y800000D01*
X3707140Y808584D01*
X3702277Y815861D01*
Y819139D01*
X3707140Y826416D01*
X3708847Y835000D01*
X3707140Y843584D01*
X3702277Y850861D01*
Y854139D01*
X3707140Y861416D01*
X3708847Y870000D01*
X3707140Y878584D01*
X3702277Y885861D01*
Y889139D01*
X3707140Y896416D01*
X3708847Y905000D01*
X3707140Y913584D01*
X3702277Y920861D01*
Y924139D01*
X3707140Y931416D01*
X3708847Y940000D01*
X3707140Y948584D01*
X3702277Y955861D01*
Y959139D01*
X3707140Y966416D01*
X3708847Y975000D01*
X3707140Y983584D01*
X3702277Y990861D01*
Y994139D01*
X3707140Y1001416D01*
X3708847Y1010000D01*
X3707140Y1018584D01*
X3702277Y1025861D01*
Y1029139D01*
X3707140Y1036416D01*
X3708847Y1045000D01*
X3707140Y1053584D01*
X3702277Y1060861D01*
X3695000Y1065724D01*
X3686416Y1067431D01*
D02*
G37*
G36*
X3250000Y1024951D02*
X3241416Y1023243D01*
X3234139Y1018381D01*
X3229276Y1011104D01*
X3227569Y1002520D01*
X3229276Y993936D01*
X3234139Y986659D01*
X3241416Y981796D01*
X3250000Y980089D01*
X3258584Y981796D01*
X3265861Y986659D01*
X3270724Y993936D01*
X3272431Y1002520D01*
X3270724Y1011104D01*
X3265861Y1018381D01*
X3258584Y1023243D01*
X3250000Y1024951D01*
D02*
G37*
G36*
X4200000Y724931D02*
X4191416Y723223D01*
X4184139Y718361D01*
X4179276Y711084D01*
X4177569Y702500D01*
X4179276Y693916D01*
X4184139Y686639D01*
X4191416Y681776D01*
X4200000Y680069D01*
X4208584Y681776D01*
X4215861Y686639D01*
X4220724Y693916D01*
X4222431Y702500D01*
X4220724Y711084D01*
X4215861Y718361D01*
X4208584Y723223D01*
X4200000Y724931D01*
D02*
G37*
G36*
X3980000Y619911D02*
X3971416Y618204D01*
X3964139Y613341D01*
X3959276Y606064D01*
X3957569Y597480D01*
X3959276Y588896D01*
X3964139Y581619D01*
X3971416Y576757D01*
X3980000Y575049D01*
X3988584Y576757D01*
X3995861Y581619D01*
X4000724Y588896D01*
X4002431Y597480D01*
X4000724Y606064D01*
X3995861Y613341D01*
X3988584Y618204D01*
X3980000Y619911D01*
D02*
G37*
G36*
X3820000D02*
X3811416Y618204D01*
X3804139Y613341D01*
X3799276Y606064D01*
X3797569Y597480D01*
X3799276Y588896D01*
X3804139Y581619D01*
X3811416Y576757D01*
X3820000Y575049D01*
X3828584Y576757D01*
X3835861Y581619D01*
X3840724Y588896D01*
X3842431Y597480D01*
X3840724Y606064D01*
X3835861Y613341D01*
X3828584Y618204D01*
X3820000Y619911D01*
D02*
G37*
G36*
X3620000D02*
X3611416Y618204D01*
X3604139Y613341D01*
X3599276Y606064D01*
X3597569Y597480D01*
X3599276Y588896D01*
X3604139Y581619D01*
X3611416Y576757D01*
X3620000Y575049D01*
X3628584Y576757D01*
X3635861Y581619D01*
X3640724Y588896D01*
X3642431Y597480D01*
X3640724Y606064D01*
X3635861Y613341D01*
X3628584Y618204D01*
X3620000Y619911D01*
D02*
G37*
G36*
X3470000D02*
X3461416Y618204D01*
X3454139Y613341D01*
X3449276Y606064D01*
X3447569Y597480D01*
X3449276Y588896D01*
X3454139Y581619D01*
X3461416Y576757D01*
X3470000Y575049D01*
X3478584Y576757D01*
X3485861Y581619D01*
X3490724Y588896D01*
X3492431Y597480D01*
X3490724Y606064D01*
X3485861Y613341D01*
X3478584Y618204D01*
X3470000Y619911D01*
D02*
G37*
G36*
X3195000Y336854D02*
X3184167Y335428D01*
X3174073Y331247D01*
X3165405Y324595D01*
X3158753Y315927D01*
X3154572Y305833D01*
X3153146Y295000D01*
X3154572Y284167D01*
X3158753Y274073D01*
X3165405Y265405D01*
X3174073Y258753D01*
X3184167Y254572D01*
X3195000Y253146D01*
X3205833Y254572D01*
X3215927Y258753D01*
X3224595Y265405D01*
X3231247Y274073D01*
X3235428Y284167D01*
X3236854Y295000D01*
X3235428Y305833D01*
X3231247Y315927D01*
X3224595Y324595D01*
X3215927Y331247D01*
X3205833Y335428D01*
X3195000Y336854D01*
D02*
G37*
G36*
X3095000D02*
X3084167Y335428D01*
X3074073Y331247D01*
X3065405Y324595D01*
X3058753Y315927D01*
X3054572Y305833D01*
X3053146Y295000D01*
X3054572Y284167D01*
X3058753Y274073D01*
X3065405Y265405D01*
X3074073Y258753D01*
X3084167Y254572D01*
X3095000Y253146D01*
X3105833Y254572D01*
X3115927Y258753D01*
X3124595Y265405D01*
X3131247Y274073D01*
X3135428Y284167D01*
X3136854Y295000D01*
X3135428Y305833D01*
X3131247Y315927D01*
X3124595Y324595D01*
X3115927Y331247D01*
X3105833Y335428D01*
X3095000Y336854D01*
D02*
G37*
G36*
X2995000D02*
X2984167Y335428D01*
X2974073Y331247D01*
X2965405Y324595D01*
X2958753Y315927D01*
X2954572Y305833D01*
X2953146Y295000D01*
X2954572Y284167D01*
X2958753Y274073D01*
X2965405Y265405D01*
X2974073Y258753D01*
X2984167Y254572D01*
X2995000Y253146D01*
X3005833Y254572D01*
X3015927Y258753D01*
X3024595Y265405D01*
X3031247Y274073D01*
X3035428Y284167D01*
X3036854Y295000D01*
X3035428Y305833D01*
X3031247Y315927D01*
X3024595Y324595D01*
X3015927Y331247D01*
X3005833Y335428D01*
X2995000Y336854D01*
D02*
G37*
G36*
X3195000Y236854D02*
X3184167Y235428D01*
X3174073Y231247D01*
X3165405Y224595D01*
X3158753Y215927D01*
X3154572Y205833D01*
X3153146Y195000D01*
X3154572Y184167D01*
X3158753Y174073D01*
X3165405Y165405D01*
X3174073Y158753D01*
X3184167Y154572D01*
X3195000Y153146D01*
X3205833Y154572D01*
X3215927Y158753D01*
X3224595Y165405D01*
X3231247Y174073D01*
X3235428Y184167D01*
X3236854Y195000D01*
X3235428Y205833D01*
X3231247Y215927D01*
X3224595Y224595D01*
X3215927Y231247D01*
X3205833Y235428D01*
X3195000Y236854D01*
D02*
G37*
G36*
X3095000D02*
X3084167Y235428D01*
X3074073Y231247D01*
X3065405Y224595D01*
X3058753Y215927D01*
X3054572Y205833D01*
X3053146Y195000D01*
X3054572Y184167D01*
X3058753Y174073D01*
X3065405Y165405D01*
X3074073Y158753D01*
X3084167Y154572D01*
X3095000Y153146D01*
X3105833Y154572D01*
X3115927Y158753D01*
X3124595Y165405D01*
X3131247Y174073D01*
X3135428Y184167D01*
X3136854Y195000D01*
X3135428Y205833D01*
X3131247Y215927D01*
X3124595Y224595D01*
X3115927Y231247D01*
X3105833Y235428D01*
X3095000Y236854D01*
D02*
G37*
G36*
X2995000D02*
X2984167Y235428D01*
X2974073Y231247D01*
X2965405Y224595D01*
X2958753Y215927D01*
X2954572Y205833D01*
X2953146Y195000D01*
X2954572Y184167D01*
X2958753Y174073D01*
X2965405Y165405D01*
X2974073Y158753D01*
X2984167Y154572D01*
X2995000Y153146D01*
X3005833Y154572D01*
X3015927Y158753D01*
X3024595Y165405D01*
X3031247Y174073D01*
X3035428Y184167D01*
X3036854Y195000D01*
X3035428Y205833D01*
X3031247Y215927D01*
X3024595Y224595D01*
X3015927Y231247D01*
X3005833Y235428D01*
X2995000Y236854D01*
D02*
G37*
G36*
X3195000Y136854D02*
X3184167Y135428D01*
X3174073Y131247D01*
X3165405Y124595D01*
X3158753Y115927D01*
X3154572Y105833D01*
X3153146Y95000D01*
X3154572Y84167D01*
X3158753Y74073D01*
X3165405Y65405D01*
X3174073Y58753D01*
X3184167Y54572D01*
X3195000Y53146D01*
X3205833Y54572D01*
X3215927Y58753D01*
X3224595Y65405D01*
X3231247Y74073D01*
X3235428Y84167D01*
X3236854Y95000D01*
X3235428Y105833D01*
X3231247Y115927D01*
X3224595Y124595D01*
X3215927Y131247D01*
X3205833Y135428D01*
X3195000Y136854D01*
D02*
G37*
G36*
X3095000D02*
X3084167Y135428D01*
X3074073Y131247D01*
X3065405Y124595D01*
X3058753Y115927D01*
X3054572Y105833D01*
X3053146Y95000D01*
X3054572Y84167D01*
X3058753Y74073D01*
X3065405Y65405D01*
X3074073Y58753D01*
X3084167Y54572D01*
X3095000Y53146D01*
X3105833Y54572D01*
X3115927Y58753D01*
X3124595Y65405D01*
X3131247Y74073D01*
X3135428Y84167D01*
X3136854Y95000D01*
X3135428Y105833D01*
X3131247Y115927D01*
X3124595Y124595D01*
X3115927Y131247D01*
X3105833Y135428D01*
X3095000Y136854D01*
D02*
G37*
G36*
X2995000D02*
X2984167Y135428D01*
X2974073Y131247D01*
X2965405Y124595D01*
X2958753Y115927D01*
X2954572Y105833D01*
X2953146Y95000D01*
X2954572Y84167D01*
X2958753Y74073D01*
X2965405Y65405D01*
X2974073Y58753D01*
X2984167Y54572D01*
X2995000Y53146D01*
X3005833Y54572D01*
X3015927Y58753D01*
X3024595Y65405D01*
X3031247Y74073D01*
X3035428Y84167D01*
X3036854Y95000D01*
X3035428Y105833D01*
X3031247Y115927D01*
X3024595Y124595D01*
X3015927Y131247D01*
X3005833Y135428D01*
X2995000Y136854D01*
D02*
G37*
%LPD*%
D41*
X3651416Y940000D02*
D03*
X3406416D02*
D03*
X3651416Y1010000D02*
D03*
X3406416D02*
D03*
X3581416Y940000D02*
D03*
Y1010000D02*
D03*
X3651416Y975000D02*
D03*
X3406416D02*
D03*
X3581416D02*
D03*
X3651416Y1045000D02*
D03*
X3581416D02*
D03*
X3476416Y940000D02*
D03*
Y1010000D02*
D03*
X3441416Y940000D02*
D03*
Y1010000D02*
D03*
X3511416Y940000D02*
D03*
X3546416D02*
D03*
X3511416Y1010000D02*
D03*
X3546416D02*
D03*
X3616416Y940000D02*
D03*
Y1010000D02*
D03*
X3686416Y940000D02*
D03*
Y1010000D02*
D03*
X3476416Y975000D02*
D03*
X3441416D02*
D03*
X3476416Y1045000D02*
D03*
X3511416Y975000D02*
D03*
X3546416D02*
D03*
X3511416Y1045000D02*
D03*
X3546416D02*
D03*
X3616416Y975000D02*
D03*
Y1045000D02*
D03*
X3686416Y975000D02*
D03*
Y1045000D02*
D03*
X3581416Y870000D02*
D03*
X3406416D02*
D03*
X3581416Y800000D02*
D03*
X3406416D02*
D03*
X3651416D02*
D03*
Y870000D02*
D03*
X3581416Y660000D02*
D03*
X3406416D02*
D03*
Y695000D02*
D03*
X3581416D02*
D03*
Y730000D02*
D03*
X3406416D02*
D03*
X3581416Y765000D02*
D03*
X3406416D02*
D03*
Y835000D02*
D03*
X3581416D02*
D03*
X3406416Y905000D02*
D03*
X3581416D02*
D03*
X3651416Y695000D02*
D03*
Y660000D02*
D03*
Y765000D02*
D03*
Y730000D02*
D03*
Y835000D02*
D03*
Y905000D02*
D03*
X3476416Y800000D02*
D03*
Y870000D02*
D03*
X3441416D02*
D03*
Y800000D02*
D03*
X3511416Y870000D02*
D03*
X3546416D02*
D03*
Y800000D02*
D03*
X3511416D02*
D03*
X3616416Y870000D02*
D03*
Y800000D02*
D03*
X3686416Y870000D02*
D03*
Y800000D02*
D03*
X3441416Y695000D02*
D03*
X3476416Y660000D02*
D03*
Y695000D02*
D03*
X3441416Y660000D02*
D03*
X3476416Y730000D02*
D03*
X3441416D02*
D03*
X3476416Y765000D02*
D03*
X3441416D02*
D03*
X3476416Y835000D02*
D03*
X3441416D02*
D03*
Y905000D02*
D03*
X3476416D02*
D03*
X3511416Y660000D02*
D03*
X3546416Y695000D02*
D03*
Y660000D02*
D03*
X3511416Y695000D02*
D03*
X3546416Y765000D02*
D03*
X3511416D02*
D03*
Y730000D02*
D03*
X3546416D02*
D03*
Y835000D02*
D03*
X3511416D02*
D03*
Y905000D02*
D03*
X3546416D02*
D03*
X3616416Y660000D02*
D03*
Y695000D02*
D03*
Y765000D02*
D03*
Y730000D02*
D03*
Y835000D02*
D03*
Y905000D02*
D03*
X3686416Y660000D02*
D03*
Y695000D02*
D03*
Y730000D02*
D03*
Y765000D02*
D03*
Y835000D02*
D03*
Y905000D02*
D03*
X3441416Y1045000D02*
D03*
X3406416D02*
D03*
X4011416Y940000D02*
D03*
X3766416D02*
D03*
X4011416Y1010000D02*
D03*
X3766416D02*
D03*
X3941416Y940000D02*
D03*
Y1010000D02*
D03*
X4011416Y975000D02*
D03*
X3766416D02*
D03*
X3941416D02*
D03*
X4011416Y1045000D02*
D03*
X3941416D02*
D03*
X3836416Y940000D02*
D03*
Y1010000D02*
D03*
X3801416Y940000D02*
D03*
Y1010000D02*
D03*
X3871416Y940000D02*
D03*
X3906416D02*
D03*
X3871416Y1010000D02*
D03*
X3906416D02*
D03*
X3976416Y940000D02*
D03*
Y1010000D02*
D03*
X4046416Y940000D02*
D03*
Y1010000D02*
D03*
X3836416Y975000D02*
D03*
X3801416D02*
D03*
X3836416Y1045000D02*
D03*
X3871416Y975000D02*
D03*
X3906416D02*
D03*
X3871416Y1045000D02*
D03*
X3906416D02*
D03*
X3976416Y975000D02*
D03*
Y1045000D02*
D03*
X4046416Y975000D02*
D03*
Y1045000D02*
D03*
X3941416Y870000D02*
D03*
X3766416D02*
D03*
X3941416Y800000D02*
D03*
X3766416D02*
D03*
X4011416D02*
D03*
Y870000D02*
D03*
X3941416Y660000D02*
D03*
X3766416D02*
D03*
Y695000D02*
D03*
X3941416D02*
D03*
Y730000D02*
D03*
X3766416D02*
D03*
X3941416Y765000D02*
D03*
X3766416D02*
D03*
Y835000D02*
D03*
X3941416D02*
D03*
X3766416Y905000D02*
D03*
X3941416D02*
D03*
X4011416Y695000D02*
D03*
Y660000D02*
D03*
Y765000D02*
D03*
Y730000D02*
D03*
Y835000D02*
D03*
Y905000D02*
D03*
X3836416Y800000D02*
D03*
Y870000D02*
D03*
X3801416D02*
D03*
Y800000D02*
D03*
X3871416Y870000D02*
D03*
X3906416D02*
D03*
Y800000D02*
D03*
X3871416D02*
D03*
X3976416Y870000D02*
D03*
Y800000D02*
D03*
X4046416Y870000D02*
D03*
Y800000D02*
D03*
X3801416Y695000D02*
D03*
X3836416Y660000D02*
D03*
Y695000D02*
D03*
X3801416Y660000D02*
D03*
X3836416Y730000D02*
D03*
X3801416D02*
D03*
X3836416Y765000D02*
D03*
X3801416D02*
D03*
X3836416Y835000D02*
D03*
X3801416D02*
D03*
Y905000D02*
D03*
X3836416D02*
D03*
X3871416Y660000D02*
D03*
X3906416Y695000D02*
D03*
Y660000D02*
D03*
X3871416Y695000D02*
D03*
X3906416Y765000D02*
D03*
X3871416D02*
D03*
Y730000D02*
D03*
X3906416D02*
D03*
Y835000D02*
D03*
X3871416D02*
D03*
Y905000D02*
D03*
X3906416D02*
D03*
X3976416Y660000D02*
D03*
Y695000D02*
D03*
Y765000D02*
D03*
Y730000D02*
D03*
Y835000D02*
D03*
Y905000D02*
D03*
X4046416Y660000D02*
D03*
Y695000D02*
D03*
Y730000D02*
D03*
Y765000D02*
D03*
Y835000D02*
D03*
Y905000D02*
D03*
X3801416Y1045000D02*
D03*
X3766416D02*
D03*
X4011416Y1405000D02*
D03*
X3766416D02*
D03*
X4011416Y1475000D02*
D03*
X3766416D02*
D03*
X3941416Y1405000D02*
D03*
Y1475000D02*
D03*
X4011416Y1440000D02*
D03*
X3766416D02*
D03*
X3941416D02*
D03*
X4011416Y1510000D02*
D03*
X3941416D02*
D03*
X3836416Y1405000D02*
D03*
Y1475000D02*
D03*
X3801416Y1405000D02*
D03*
Y1475000D02*
D03*
X3871416Y1405000D02*
D03*
X3906416D02*
D03*
X3871416Y1475000D02*
D03*
X3906416D02*
D03*
X3976416Y1405000D02*
D03*
Y1475000D02*
D03*
X4046416Y1405000D02*
D03*
Y1475000D02*
D03*
X3836416Y1440000D02*
D03*
X3801416D02*
D03*
X3836416Y1510000D02*
D03*
X3871416Y1440000D02*
D03*
X3906416D02*
D03*
X3871416Y1510000D02*
D03*
X3906416D02*
D03*
X3976416Y1440000D02*
D03*
Y1510000D02*
D03*
X4046416Y1440000D02*
D03*
Y1510000D02*
D03*
X3941416Y1335000D02*
D03*
X3766416D02*
D03*
X3941416Y1265000D02*
D03*
X3766416D02*
D03*
X4011416D02*
D03*
Y1335000D02*
D03*
X3941416Y1125000D02*
D03*
X3766416D02*
D03*
Y1160000D02*
D03*
X3941416D02*
D03*
Y1195000D02*
D03*
X3766416D02*
D03*
X3941416Y1230000D02*
D03*
X3766416D02*
D03*
Y1300000D02*
D03*
X3941416D02*
D03*
X3766416Y1370000D02*
D03*
X3941416D02*
D03*
X4011416Y1160000D02*
D03*
Y1125000D02*
D03*
Y1230000D02*
D03*
Y1195000D02*
D03*
Y1300000D02*
D03*
Y1370000D02*
D03*
X3836416Y1265000D02*
D03*
Y1335000D02*
D03*
X3801416D02*
D03*
Y1265000D02*
D03*
X3871416Y1335000D02*
D03*
X3906416D02*
D03*
Y1265000D02*
D03*
X3871416D02*
D03*
X3976416Y1335000D02*
D03*
Y1265000D02*
D03*
X4046416Y1335000D02*
D03*
Y1265000D02*
D03*
X3801416Y1160000D02*
D03*
X3836416Y1125000D02*
D03*
Y1160000D02*
D03*
X3801416Y1125000D02*
D03*
X3836416Y1195000D02*
D03*
X3801416D02*
D03*
X3836416Y1230000D02*
D03*
X3801416D02*
D03*
X3836416Y1300000D02*
D03*
X3801416D02*
D03*
Y1370000D02*
D03*
X3836416D02*
D03*
X3871416Y1125000D02*
D03*
X3906416Y1160000D02*
D03*
Y1125000D02*
D03*
X3871416Y1160000D02*
D03*
X3906416Y1230000D02*
D03*
X3871416D02*
D03*
Y1195000D02*
D03*
X3906416D02*
D03*
Y1300000D02*
D03*
X3871416D02*
D03*
Y1370000D02*
D03*
X3906416D02*
D03*
X3976416Y1125000D02*
D03*
Y1160000D02*
D03*
Y1230000D02*
D03*
Y1195000D02*
D03*
Y1300000D02*
D03*
Y1370000D02*
D03*
X4046416Y1125000D02*
D03*
Y1160000D02*
D03*
Y1195000D02*
D03*
Y1230000D02*
D03*
Y1300000D02*
D03*
Y1370000D02*
D03*
X3801416Y1510000D02*
D03*
X3766416D02*
D03*
X3651416Y1405000D02*
D03*
X3406416D02*
D03*
X3651416Y1475000D02*
D03*
X3406416D02*
D03*
X3581416Y1405000D02*
D03*
Y1475000D02*
D03*
X3651416Y1440000D02*
D03*
X3406416D02*
D03*
X3581416D02*
D03*
X3651416Y1510000D02*
D03*
X3581416D02*
D03*
X3476416Y1405000D02*
D03*
Y1475000D02*
D03*
X3441416Y1405000D02*
D03*
Y1475000D02*
D03*
X3511416Y1405000D02*
D03*
X3546416D02*
D03*
X3511416Y1475000D02*
D03*
X3546416D02*
D03*
X3616416Y1405000D02*
D03*
Y1475000D02*
D03*
X3686416Y1405000D02*
D03*
Y1475000D02*
D03*
X3476416Y1440000D02*
D03*
X3441416D02*
D03*
X3476416Y1510000D02*
D03*
X3511416Y1440000D02*
D03*
X3546416D02*
D03*
X3511416Y1510000D02*
D03*
X3546416D02*
D03*
X3616416Y1440000D02*
D03*
Y1510000D02*
D03*
X3686416Y1440000D02*
D03*
Y1510000D02*
D03*
X3581416Y1335000D02*
D03*
X3406416D02*
D03*
X3581416Y1265000D02*
D03*
X3406416D02*
D03*
X3651416D02*
D03*
Y1335000D02*
D03*
X3581416Y1125000D02*
D03*
X3406416D02*
D03*
Y1160000D02*
D03*
X3581416D02*
D03*
Y1195000D02*
D03*
X3406416D02*
D03*
X3581416Y1230000D02*
D03*
X3406416D02*
D03*
Y1300000D02*
D03*
X3581416D02*
D03*
X3406416Y1370000D02*
D03*
X3581416D02*
D03*
X3651416Y1160000D02*
D03*
Y1125000D02*
D03*
Y1230000D02*
D03*
Y1195000D02*
D03*
Y1300000D02*
D03*
Y1370000D02*
D03*
X3476416Y1265000D02*
D03*
Y1335000D02*
D03*
X3441416D02*
D03*
Y1265000D02*
D03*
X3511416Y1335000D02*
D03*
X3546416D02*
D03*
Y1265000D02*
D03*
X3511416D02*
D03*
X3616416Y1335000D02*
D03*
Y1265000D02*
D03*
X3686416Y1335000D02*
D03*
Y1265000D02*
D03*
X3441416Y1160000D02*
D03*
X3476416Y1125000D02*
D03*
Y1160000D02*
D03*
X3441416Y1125000D02*
D03*
X3476416Y1195000D02*
D03*
X3441416D02*
D03*
X3476416Y1230000D02*
D03*
X3441416D02*
D03*
X3476416Y1300000D02*
D03*
X3441416D02*
D03*
Y1370000D02*
D03*
X3476416D02*
D03*
X3511416Y1125000D02*
D03*
X3546416Y1160000D02*
D03*
Y1125000D02*
D03*
X3511416Y1160000D02*
D03*
X3546416Y1230000D02*
D03*
X3511416D02*
D03*
Y1195000D02*
D03*
X3546416D02*
D03*
Y1300000D02*
D03*
X3511416D02*
D03*
Y1370000D02*
D03*
X3546416D02*
D03*
X3616416Y1125000D02*
D03*
Y1160000D02*
D03*
Y1230000D02*
D03*
Y1195000D02*
D03*
Y1300000D02*
D03*
Y1370000D02*
D03*
X3686416Y1125000D02*
D03*
Y1160000D02*
D03*
Y1195000D02*
D03*
Y1230000D02*
D03*
Y1300000D02*
D03*
Y1370000D02*
D03*
X3441416Y1510000D02*
D03*
X3406416D02*
D03*
X4100000Y365000D02*
D03*
X2475000D02*
D03*
X3820000Y597480D02*
D03*
X4200000Y702500D02*
D03*
X2325000Y595000D02*
D03*
X4200000Y1167500D02*
D03*
X3250000Y1002520D02*
D03*
X2325000Y690796D02*
D03*
Y877371D02*
D03*
X3250000Y1468780D02*
D03*
X2325000Y975000D02*
D03*
X3620000Y597480D02*
D03*
X3980000D02*
D03*
X3470000D02*
D03*
X1640000Y655000D02*
D03*
X1405000Y401861D02*
D03*
X1435000Y1160000D02*
D03*
X950000Y1079878D02*
D03*
X595000Y288129D02*
D03*
X1235000Y425000D02*
D03*
X1615000Y875000D02*
D03*
X1470000Y585000D02*
D03*
X1839921Y1375079D02*
D03*
X436082Y745000D02*
D03*
X435000Y590000D02*
D03*
X1198852Y1550778D02*
D03*
X760410Y1100000D02*
D03*
X1380000Y920000D02*
D03*
X636828Y688593D02*
D03*
X308788Y1013000D02*
D03*
X1700000Y835000D02*
D03*
X1255000Y1038080D02*
D03*
X823126Y595118D02*
D03*
X795978Y1084755D02*
D03*
X1341647Y1550778D02*
D03*
X840000Y1075000D02*
D03*
X1190770Y790000D02*
D03*
X595000Y382341D02*
D03*
X670000Y1330000D02*
D03*
X980000Y1100000D02*
D03*
X426528Y445488D02*
D03*
X379503Y745000D02*
D03*
X730000Y795000D02*
D03*
X700000Y1005000D02*
D03*
X595000Y475096D02*
D03*
X815000Y1330000D02*
D03*
X290000Y1500000D02*
D03*
X911543Y1049537D02*
D03*
X275000Y1160000D02*
D03*
X910000Y800000D02*
D03*
X1010000Y1005000D02*
D03*
X892716Y570000D02*
D03*
X1587176Y395225D02*
D03*
X1105000Y765000D02*
D03*
X1985000Y860000D02*
D03*
X1165000Y205000D02*
D03*
X750000Y120000D02*
D03*
X1255000Y905000D02*
D03*
X595000Y200591D02*
D03*
X1186289Y171159D02*
D03*
X1065000Y1335000D02*
D03*
X930911Y1334325D02*
D03*
X950000Y53377D02*
D03*
X1255000Y835000D02*
D03*
X433387Y1293000D02*
D03*
X445765Y1087631D02*
D03*
X997000Y1338415D02*
D03*
X980000Y985000D02*
D03*
X740000Y1330000D02*
D03*
X760410Y779795D02*
D03*
X880000Y1075000D02*
D03*
X730000Y985000D02*
D03*
X936443Y778628D02*
D03*
X1255000Y975000D02*
D03*
D42*
X4655000Y195000D02*
D03*
X4755000D02*
D03*
Y295000D02*
D03*
X4655000D02*
D03*
X4555000D02*
D03*
Y195000D02*
D03*
X4755000Y95000D02*
D03*
X4555000D02*
D03*
X4655000D02*
D03*
X3095000Y195000D02*
D03*
X3195000D02*
D03*
Y295000D02*
D03*
X3095000D02*
D03*
X2995000D02*
D03*
Y195000D02*
D03*
X3195000Y95000D02*
D03*
X2995000D02*
D03*
X3095000D02*
D03*
D43*
X2445135Y1310621D02*
D03*
Y1428731D02*
D03*
Y1192510D02*
D03*
D44*
Y1546841D02*
D03*
D45*
X179134Y395118D02*
D03*
Y495118D02*
D03*
Y595118D02*
D03*
Y695118D02*
D03*
X79134Y445118D02*
D03*
Y545118D02*
D03*
Y645118D02*
D03*
X179134Y195118D02*
D03*
X79134Y245118D02*
D03*
X179134Y295118D02*
D03*
X79134Y345118D02*
D03*
D46*
Y145118D02*
D03*
D47*
X2522300Y1664951D02*
D03*
Y1074399D02*
D03*
D48*
X150000Y90000D02*
D03*
D49*
X1890000Y1240000D02*
D03*
%TF.MD5,ad365c8771778000a8a557c4447cc9c3*%
M02*
