%TF.GenerationSoftware,Altium Limited,Altium Designer,20.1.14 (287)*%
G04 Layer_Physical_Order=4*
G04 Layer_Color=16711680*
%FSLAX26Y26*%
%MOIN*%
%TF.SameCoordinates,99935E59-988C-4C8E-A83C-0B030DBE8EB2*%
%TF.FilePolarity,Positive*%
%TF.FileFunction,Copper,L4,Bot,Signal*%
%TF.Part,Single*%
G01*
G75*
%TA.AperFunction,Conductor*%
%ADD39C,0.010000*%
%TA.AperFunction,ViaPad*%
%ADD41C,0.024000*%
%TA.AperFunction,ComponentPad*%
%ADD42C,0.062992*%
%ADD43C,0.059843*%
%ADD44R,0.059843X0.059843*%
%ADD45C,0.053150*%
%ADD46R,0.053150X0.053150*%
%ADD47C,0.050000*%
%ADD48C,0.059055*%
%TA.AperFunction,ViaPad*%
%ADD49C,0.028000*%
G36*
X180614Y1712176D02*
X188881Y1708751D01*
X195981Y1703304D01*
X201428Y1696204D01*
X204853Y1687937D01*
X205412Y1683691D01*
X205946Y1678917D01*
X205933Y1678851D01*
X206103Y1677994D01*
X206531Y1674141D01*
X206517Y1580001D01*
X206517Y1580000D01*
X206517Y1579999D01*
X206517Y1578295D01*
X207680Y1572442D01*
X210995Y1567480D01*
X215956Y1564164D01*
X221809Y1562999D01*
X227662Y1564162D01*
X228476Y1564706D01*
X1051681Y1564706D01*
X1053752Y1559706D01*
X839186Y1345140D01*
X835870Y1340178D01*
X834706Y1334325D01*
Y1195924D01*
X761080Y1122298D01*
X760410Y1122431D01*
X751827Y1120724D01*
X744549Y1115861D01*
X739687Y1108584D01*
X737980Y1100000D01*
X739687Y1091416D01*
X744549Y1084139D01*
X751827Y1079276D01*
X760410Y1077569D01*
X768995Y1079276D01*
X770234Y1080104D01*
X774853Y1078191D01*
X775255Y1076171D01*
X780117Y1068894D01*
X787394Y1064032D01*
X795978Y1062324D01*
X804562Y1064032D01*
X811839Y1068894D01*
X813262Y1071024D01*
X818570Y1069968D01*
X819277Y1066416D01*
X824139Y1059139D01*
X825284Y1058374D01*
X823767Y1053374D01*
X403255D01*
X297298Y1159331D01*
X297431Y1160000D01*
X295724Y1168584D01*
X290861Y1175861D01*
X283584Y1180724D01*
X275000Y1182431D01*
X266416Y1180724D01*
X259139Y1175861D01*
X254276Y1168584D01*
X252569Y1160000D01*
X254276Y1151416D01*
X259139Y1144139D01*
X266416Y1139276D01*
X275000Y1137569D01*
X275669Y1137702D01*
X386106Y1027266D01*
X391067Y1023950D01*
X396920Y1022786D01*
X679412D01*
X682084Y1017786D01*
X679277Y1013584D01*
X677569Y1005000D01*
X679277Y996416D01*
X684139Y989139D01*
X691416Y984277D01*
X700000Y982569D01*
X708584Y984277D01*
X715861Y989139D01*
X720723Y996416D01*
X722431Y1005000D01*
X720723Y1013584D01*
X717916Y1017786D01*
X720588Y1022786D01*
X896298D01*
X902151Y1023950D01*
X907113Y1027266D01*
X907714Y1027867D01*
X911543Y1027106D01*
X920127Y1028813D01*
X927404Y1033676D01*
X932267Y1040953D01*
X933974Y1049537D01*
X932267Y1058121D01*
X930346Y1060995D01*
X934139Y1064017D01*
X941416Y1059154D01*
X950000Y1057447D01*
X958584Y1059154D01*
X965861Y1064017D01*
X970723Y1071294D01*
X972431Y1079878D01*
X970723Y1088462D01*
X965861Y1095739D01*
X958584Y1100601D01*
X950000Y1102309D01*
X941416Y1100601D01*
X934139Y1095739D01*
X929277Y1088462D01*
X927569Y1079878D01*
X929277Y1071294D01*
X931197Y1068419D01*
X927404Y1065398D01*
X920127Y1070260D01*
X911543Y1071968D01*
X902959Y1070260D01*
X895682Y1065398D01*
X890820Y1058121D01*
X889876Y1053374D01*
X856233D01*
X854716Y1058374D01*
X855861Y1059139D01*
X860723Y1066416D01*
X862431Y1075000D01*
X860723Y1083584D01*
X855861Y1090861D01*
X848584Y1095724D01*
X840000Y1097431D01*
X836697Y1096774D01*
X834234Y1101382D01*
X890814Y1157963D01*
X894130Y1162925D01*
X895294Y1168777D01*
Y1323665D01*
X1076335Y1504706D01*
X1255000D01*
X1260853Y1505870D01*
X1265814Y1509186D01*
X1291335Y1534706D01*
X1326101D01*
X1333063Y1530054D01*
X1341647Y1528347D01*
X1350231Y1530054D01*
X1357508Y1534917D01*
X1362370Y1542194D01*
X1364078Y1550778D01*
X1362370Y1559362D01*
X1357508Y1566639D01*
X1350231Y1571502D01*
X1341647Y1573209D01*
X1333063Y1571502D01*
X1325786Y1566639D01*
X1324887Y1565294D01*
X1285000D01*
X1279147Y1564130D01*
X1274186Y1560814D01*
X1248665Y1535294D01*
X1220268D01*
X1217911Y1539704D01*
X1219575Y1542194D01*
X1221283Y1550778D01*
X1219575Y1559362D01*
X1214713Y1566639D01*
X1207436Y1571502D01*
X1198852Y1573209D01*
X1190268Y1571502D01*
X1182991Y1566639D01*
X1182611Y1566072D01*
X1171023D01*
X1168350Y1571072D01*
X1169265Y1572440D01*
X1170429Y1578293D01*
Y1673123D01*
X1170804Y1677166D01*
X1170944Y1677866D01*
X1170931Y1677932D01*
X1171465Y1682706D01*
X1172024Y1686952D01*
X1175448Y1695219D01*
X1180896Y1702319D01*
X1187995Y1707766D01*
X1196263Y1711190D01*
X1204931Y1712332D01*
X1205237Y1712271D01*
X4808203D01*
X4816408Y1711190D01*
X4824676Y1707766D01*
X4831775Y1702319D01*
X4837223Y1695219D01*
X4840647Y1686952D01*
X4841206Y1682706D01*
X4841741Y1677932D01*
X4841727Y1677866D01*
X4841810Y1677453D01*
X4841941Y1672999D01*
X4841941Y55680D01*
X4841810Y51226D01*
X4841727Y50813D01*
X4841741Y50747D01*
X4841206Y45973D01*
X4840647Y41727D01*
X4837223Y33460D01*
X4831775Y26360D01*
X4824676Y20913D01*
X4816408Y17488D01*
X4812163Y16930D01*
X4807389Y16395D01*
X4807323Y16408D01*
X4806943Y16333D01*
X4802430Y16257D01*
X55241Y16257D01*
X50729Y16333D01*
X50348Y16408D01*
X50282Y16395D01*
X45509Y16930D01*
X41263Y17488D01*
X32995Y20913D01*
X25896Y26360D01*
X20448Y33460D01*
X17024Y41727D01*
X16465Y45973D01*
X15931Y50747D01*
X15944Y50813D01*
X15798Y51545D01*
X15409Y55548D01*
X15409Y1673130D01*
X15798Y1677134D01*
X15944Y1677866D01*
X15931Y1677932D01*
X16465Y1682706D01*
X17024Y1686952D01*
X20448Y1695219D01*
X25896Y1702319D01*
X32995Y1707766D01*
X41263Y1711190D01*
X45509Y1711749D01*
X50282Y1712284D01*
X50348Y1712271D01*
X50768Y1712354D01*
X55212Y1712494D01*
X171227D01*
X174002Y1713046D01*
X180614Y1712176D01*
D02*
G37*
%LPC*%
G36*
X2522300Y1700253D02*
X2513164Y1699050D01*
X2504649Y1695524D01*
X2497338Y1689914D01*
X2491728Y1682602D01*
X2488201Y1674088D01*
X2486998Y1664951D01*
X2488201Y1655814D01*
X2491728Y1647300D01*
X2497338Y1639989D01*
X2504649Y1634379D01*
X2513164Y1630852D01*
X2522300Y1629649D01*
X2531437Y1630852D01*
X2539951Y1634379D01*
X2547263Y1639989D01*
X2552873Y1647300D01*
X2556399Y1655814D01*
X2557602Y1664951D01*
X2556399Y1674088D01*
X2552873Y1682602D01*
X2547263Y1689914D01*
X2539951Y1695524D01*
X2531437Y1699050D01*
X2522300Y1700253D01*
D02*
G37*
G36*
X4046416Y1532431D02*
X4037832Y1530724D01*
X4030555Y1525861D01*
X4027277D01*
X4020000Y1530724D01*
X4011416Y1532431D01*
X4002832Y1530724D01*
X3995555Y1525861D01*
X3992277D01*
X3985000Y1530724D01*
X3976416Y1532431D01*
X3967832Y1530724D01*
X3960555Y1525861D01*
X3957277D01*
X3950000Y1530724D01*
X3941416Y1532431D01*
X3932832Y1530724D01*
X3925555Y1525861D01*
X3922277D01*
X3915000Y1530724D01*
X3906416Y1532431D01*
X3897832Y1530724D01*
X3890555Y1525861D01*
X3887277D01*
X3880000Y1530724D01*
X3871416Y1532431D01*
X3862832Y1530724D01*
X3855555Y1525861D01*
X3852277D01*
X3845000Y1530724D01*
X3836416Y1532431D01*
X3827832Y1530724D01*
X3820555Y1525861D01*
X3817277D01*
X3810000Y1530724D01*
X3801416Y1532431D01*
X3792832Y1530724D01*
X3785555Y1525861D01*
X3782277D01*
X3775000Y1530724D01*
X3766416Y1532431D01*
X3757832Y1530724D01*
X3750555Y1525861D01*
X3745693Y1518584D01*
X3743985Y1510000D01*
X3745693Y1501416D01*
X3750555Y1494139D01*
Y1490861D01*
X3745693Y1483584D01*
X3743985Y1475000D01*
X3745693Y1466416D01*
X3750555Y1459139D01*
Y1455861D01*
X3745693Y1448584D01*
X3743985Y1440000D01*
X3745693Y1431416D01*
X3750555Y1424139D01*
Y1420861D01*
X3745693Y1413584D01*
X3743985Y1405000D01*
X3745693Y1396416D01*
X3750555Y1389139D01*
Y1385861D01*
X3745693Y1378584D01*
X3743985Y1370000D01*
X3745693Y1361416D01*
X3750555Y1354139D01*
Y1350861D01*
X3745693Y1343584D01*
X3743985Y1335000D01*
X3745693Y1326416D01*
X3750555Y1319139D01*
Y1315861D01*
X3745693Y1308584D01*
X3743985Y1300000D01*
X3745693Y1291416D01*
X3750555Y1284139D01*
Y1280861D01*
X3745693Y1273584D01*
X3743985Y1265000D01*
X3745693Y1256416D01*
X3750555Y1249139D01*
Y1245861D01*
X3745693Y1238584D01*
X3743985Y1230000D01*
X3745693Y1221416D01*
X3750555Y1214139D01*
Y1210861D01*
X3745693Y1203584D01*
X3743985Y1195000D01*
X3745693Y1186416D01*
X3750555Y1179139D01*
Y1175861D01*
X3745693Y1168584D01*
X3743985Y1160000D01*
X3745693Y1151416D01*
X3750555Y1144139D01*
Y1140861D01*
X3745693Y1133584D01*
X3743985Y1125000D01*
X3745693Y1116416D01*
X3750555Y1109139D01*
X3757832Y1104276D01*
X3766416Y1102569D01*
X3775000Y1104276D01*
X3782277Y1109139D01*
X3785555D01*
X3792832Y1104276D01*
X3801416Y1102569D01*
X3810000Y1104276D01*
X3817277Y1109139D01*
X3820555D01*
X3827832Y1104276D01*
X3836416Y1102569D01*
X3845000Y1104276D01*
X3852277Y1109139D01*
X3855555D01*
X3862832Y1104276D01*
X3871416Y1102569D01*
X3880000Y1104276D01*
X3887277Y1109139D01*
X3890555D01*
X3897832Y1104276D01*
X3906416Y1102569D01*
X3915000Y1104276D01*
X3922277Y1109139D01*
X3925555D01*
X3932832Y1104276D01*
X3941416Y1102569D01*
X3950000Y1104276D01*
X3957277Y1109139D01*
X3960555D01*
X3967832Y1104276D01*
X3976416Y1102569D01*
X3985000Y1104276D01*
X3992277Y1109139D01*
X3995555D01*
X4002832Y1104276D01*
X4011416Y1102569D01*
X4020000Y1104276D01*
X4027277Y1109139D01*
X4030555D01*
X4037832Y1104276D01*
X4046416Y1102569D01*
X4055000Y1104276D01*
X4062277Y1109139D01*
X4067140Y1116416D01*
X4068847Y1125000D01*
X4067140Y1133584D01*
X4062277Y1140861D01*
Y1144139D01*
X4067140Y1151416D01*
X4068847Y1160000D01*
X4067140Y1168584D01*
X4062277Y1175861D01*
Y1179139D01*
X4067140Y1186416D01*
X4068847Y1195000D01*
X4067140Y1203584D01*
X4062277Y1210861D01*
Y1214139D01*
X4067140Y1221416D01*
X4068847Y1230000D01*
X4067140Y1238584D01*
X4062277Y1245861D01*
Y1249139D01*
X4067140Y1256416D01*
X4068847Y1265000D01*
X4067140Y1273584D01*
X4062277Y1280861D01*
Y1284139D01*
X4067140Y1291416D01*
X4068847Y1300000D01*
X4067140Y1308584D01*
X4062277Y1315861D01*
Y1319139D01*
X4067140Y1326416D01*
X4068847Y1335000D01*
X4067140Y1343584D01*
X4062277Y1350861D01*
Y1354139D01*
X4067140Y1361416D01*
X4068847Y1370000D01*
X4067140Y1378584D01*
X4062277Y1385861D01*
Y1389139D01*
X4067140Y1396416D01*
X4068847Y1405000D01*
X4067140Y1413584D01*
X4062277Y1420861D01*
Y1424139D01*
X4067140Y1431416D01*
X4068847Y1440000D01*
X4067140Y1448584D01*
X4062277Y1455861D01*
Y1459139D01*
X4067140Y1466416D01*
X4068847Y1475000D01*
X4067140Y1483584D01*
X4062277Y1490861D01*
Y1494139D01*
X4067140Y1501416D01*
X4068847Y1510000D01*
X4067140Y1518584D01*
X4062277Y1525861D01*
X4055000Y1530724D01*
X4046416Y1532431D01*
D02*
G37*
G36*
X3686416D02*
X3677832Y1530724D01*
X3670555Y1525861D01*
X3667277D01*
X3660000Y1530724D01*
X3651416Y1532431D01*
X3642832Y1530724D01*
X3635555Y1525861D01*
X3632277D01*
X3625000Y1530724D01*
X3616416Y1532431D01*
X3607832Y1530724D01*
X3600555Y1525861D01*
X3597277D01*
X3590000Y1530724D01*
X3581416Y1532431D01*
X3572832Y1530724D01*
X3565555Y1525861D01*
X3562277D01*
X3555000Y1530724D01*
X3546416Y1532431D01*
X3537832Y1530724D01*
X3530555Y1525861D01*
X3527277D01*
X3520000Y1530724D01*
X3511416Y1532431D01*
X3502832Y1530724D01*
X3495555Y1525861D01*
X3492277D01*
X3485000Y1530724D01*
X3476416Y1532431D01*
X3467832Y1530724D01*
X3460555Y1525861D01*
X3457277D01*
X3450000Y1530724D01*
X3441416Y1532431D01*
X3432832Y1530724D01*
X3425555Y1525861D01*
X3422277D01*
X3415000Y1530724D01*
X3406416Y1532431D01*
X3397832Y1530724D01*
X3390555Y1525861D01*
X3385693Y1518584D01*
X3383985Y1510000D01*
X3385693Y1501416D01*
X3390555Y1494139D01*
Y1490861D01*
X3385693Y1483584D01*
X3383985Y1475000D01*
X3385693Y1466416D01*
X3390555Y1459139D01*
Y1455861D01*
X3385693Y1448584D01*
X3383985Y1440000D01*
X3385693Y1431416D01*
X3390555Y1424139D01*
Y1420861D01*
X3385693Y1413584D01*
X3383985Y1405000D01*
X3385693Y1396416D01*
X3390555Y1389139D01*
Y1385861D01*
X3385693Y1378584D01*
X3383985Y1370000D01*
X3385693Y1361416D01*
X3390555Y1354139D01*
Y1350861D01*
X3385693Y1343584D01*
X3383985Y1335000D01*
X3385693Y1326416D01*
X3390555Y1319139D01*
Y1315861D01*
X3385693Y1308584D01*
X3383985Y1300000D01*
X3385693Y1291416D01*
X3390555Y1284139D01*
Y1280861D01*
X3385693Y1273584D01*
X3383985Y1265000D01*
X3385693Y1256416D01*
X3390555Y1249139D01*
Y1245861D01*
X3385693Y1238584D01*
X3383985Y1230000D01*
X3385693Y1221416D01*
X3390555Y1214139D01*
Y1210861D01*
X3385693Y1203584D01*
X3383985Y1195000D01*
X3385693Y1186416D01*
X3390555Y1179139D01*
Y1175861D01*
X3385693Y1168584D01*
X3383985Y1160000D01*
X3385693Y1151416D01*
X3390555Y1144139D01*
Y1140861D01*
X3385693Y1133584D01*
X3383985Y1125000D01*
X3385693Y1116416D01*
X3390555Y1109139D01*
X3397832Y1104276D01*
X3406416Y1102569D01*
X3415000Y1104276D01*
X3422277Y1109139D01*
X3425555D01*
X3432832Y1104276D01*
X3441416Y1102569D01*
X3450000Y1104276D01*
X3457277Y1109139D01*
X3460555D01*
X3467832Y1104276D01*
X3476416Y1102569D01*
X3485000Y1104276D01*
X3492277Y1109139D01*
X3495555D01*
X3502832Y1104276D01*
X3511416Y1102569D01*
X3520000Y1104276D01*
X3527277Y1109139D01*
X3530555D01*
X3537832Y1104276D01*
X3546416Y1102569D01*
X3555000Y1104276D01*
X3562277Y1109139D01*
X3565555D01*
X3572832Y1104276D01*
X3581416Y1102569D01*
X3590000Y1104276D01*
X3597277Y1109139D01*
X3600555D01*
X3607832Y1104276D01*
X3616416Y1102569D01*
X3625000Y1104276D01*
X3632277Y1109139D01*
X3635555D01*
X3642832Y1104276D01*
X3651416Y1102569D01*
X3660000Y1104276D01*
X3667277Y1109139D01*
X3670555D01*
X3677832Y1104276D01*
X3686416Y1102569D01*
X3695000Y1104276D01*
X3702277Y1109139D01*
X3707140Y1116416D01*
X3708847Y1125000D01*
X3707140Y1133584D01*
X3702277Y1140861D01*
Y1144139D01*
X3707140Y1151416D01*
X3708847Y1160000D01*
X3707140Y1168584D01*
X3702277Y1175861D01*
Y1179139D01*
X3707140Y1186416D01*
X3708847Y1195000D01*
X3707140Y1203584D01*
X3702277Y1210861D01*
Y1214139D01*
X3707140Y1221416D01*
X3708847Y1230000D01*
X3707140Y1238584D01*
X3702277Y1245861D01*
Y1249139D01*
X3707140Y1256416D01*
X3708847Y1265000D01*
X3707140Y1273584D01*
X3702277Y1280861D01*
Y1284139D01*
X3707140Y1291416D01*
X3708847Y1300000D01*
X3707140Y1308584D01*
X3702277Y1315861D01*
Y1319139D01*
X3707140Y1326416D01*
X3708847Y1335000D01*
X3707140Y1343584D01*
X3702277Y1350861D01*
Y1354139D01*
X3707140Y1361416D01*
X3708847Y1370000D01*
X3707140Y1378584D01*
X3702277Y1385861D01*
Y1389139D01*
X3707140Y1396416D01*
X3708847Y1405000D01*
X3707140Y1413584D01*
X3702277Y1420861D01*
Y1424139D01*
X3707140Y1431416D01*
X3708847Y1440000D01*
X3707140Y1448584D01*
X3702277Y1455861D01*
Y1459139D01*
X3707140Y1466416D01*
X3708847Y1475000D01*
X3707140Y1483584D01*
X3702277Y1490861D01*
Y1494139D01*
X3707140Y1501416D01*
X3708847Y1510000D01*
X3707140Y1518584D01*
X3702277Y1525861D01*
X3695000Y1530724D01*
X3686416Y1532431D01*
D02*
G37*
G36*
X2485056Y1586762D02*
X2405214D01*
Y1506920D01*
X2485056D01*
Y1586762D01*
D02*
G37*
G36*
X3250000Y1491210D02*
X3241416Y1489503D01*
X3235117Y1485294D01*
X2820000D01*
X2814147Y1484130D01*
X2809186Y1480814D01*
X2325669Y997298D01*
X2325000Y997431D01*
X2316416Y995723D01*
X2309139Y990861D01*
X2304276Y983584D01*
X2302569Y975000D01*
X2304276Y966416D01*
X2309139Y959139D01*
X2316416Y954277D01*
X2325000Y952569D01*
X2333584Y954277D01*
X2340861Y959139D01*
X2345724Y966416D01*
X2347431Y975000D01*
X2347298Y975669D01*
X2826335Y1454706D01*
X3232944D01*
X3234139Y1452918D01*
X3241416Y1448056D01*
X3250000Y1446349D01*
X3258584Y1448056D01*
X3265861Y1452918D01*
X3270724Y1460196D01*
X3272431Y1468780D01*
X3270724Y1477363D01*
X3265861Y1484641D01*
X3258584Y1489503D01*
X3250000Y1491210D01*
D02*
G37*
G36*
X2445135Y1468996D02*
X2434713Y1467624D01*
X2425002Y1463602D01*
X2416663Y1457203D01*
X2410264Y1448864D01*
X2406241Y1439152D01*
X2404869Y1428731D01*
X2406241Y1418309D01*
X2410264Y1408598D01*
X2416663Y1400259D01*
X2425002Y1393860D01*
X2434713Y1389837D01*
X2445135Y1388465D01*
X2455557Y1389837D01*
X2465268Y1393860D01*
X2473607Y1400259D01*
X2480006Y1408598D01*
X2484029Y1418309D01*
X2485401Y1428731D01*
X2484029Y1439152D01*
X2480006Y1448864D01*
X2473607Y1457203D01*
X2465268Y1463602D01*
X2455557Y1467624D01*
X2445135Y1468996D01*
D02*
G37*
G36*
Y1350886D02*
X2434713Y1349514D01*
X2425002Y1345492D01*
X2416663Y1339093D01*
X2410264Y1330754D01*
X2406241Y1321042D01*
X2404869Y1310621D01*
X2406241Y1300199D01*
X2410264Y1290488D01*
X2416663Y1282149D01*
X2425002Y1275749D01*
X2434713Y1271727D01*
X2445135Y1270355D01*
X2455557Y1271727D01*
X2465268Y1275749D01*
X2473607Y1282149D01*
X2480006Y1290488D01*
X2484029Y1300199D01*
X2485401Y1310621D01*
X2484029Y1321042D01*
X2480006Y1330754D01*
X2473607Y1339093D01*
X2465268Y1345492D01*
X2455557Y1349514D01*
X2445135Y1350886D01*
D02*
G37*
G36*
Y1232776D02*
X2434713Y1231404D01*
X2425002Y1227381D01*
X2416663Y1220983D01*
X2410264Y1212643D01*
X2406241Y1202932D01*
X2404869Y1192510D01*
X2406241Y1182089D01*
X2410264Y1172378D01*
X2416663Y1164038D01*
X2425002Y1157639D01*
X2434713Y1153617D01*
X2445135Y1152245D01*
X2455557Y1153617D01*
X2465268Y1157639D01*
X2473607Y1164038D01*
X2480006Y1172378D01*
X2484029Y1182089D01*
X2485401Y1192510D01*
X2484029Y1202932D01*
X2480006Y1212643D01*
X2473607Y1220983D01*
X2465268Y1227381D01*
X2455557Y1231404D01*
X2445135Y1232776D01*
D02*
G37*
G36*
X1435000Y1182431D02*
X1426416Y1180724D01*
X1419139Y1175861D01*
X1414276Y1168584D01*
X1412569Y1160000D01*
X1414276Y1151416D01*
X1419139Y1144139D01*
X1426416Y1139276D01*
X1435000Y1137569D01*
X1443584Y1139276D01*
X1450861Y1144139D01*
X1455724Y1151416D01*
X1457431Y1160000D01*
X1455724Y1168584D01*
X1450861Y1175861D01*
X1443584Y1180724D01*
X1435000Y1182431D01*
D02*
G37*
G36*
X445765Y1110062D02*
X437181Y1108355D01*
X429904Y1103492D01*
X425042Y1096215D01*
X423334Y1087631D01*
X425042Y1079047D01*
X429904Y1071770D01*
X437181Y1066908D01*
X445765Y1065200D01*
X454349Y1066908D01*
X461627Y1071770D01*
X466489Y1079047D01*
X468196Y1087631D01*
X466489Y1096215D01*
X461627Y1103492D01*
X454349Y1108355D01*
X445765Y1110062D01*
D02*
G37*
G36*
X2522300Y1109701D02*
X2513164Y1108498D01*
X2504649Y1104971D01*
X2497338Y1099361D01*
X2491728Y1092050D01*
X2488201Y1083535D01*
X2486998Y1074399D01*
X2488201Y1065262D01*
X2491728Y1056748D01*
X2497338Y1049436D01*
X2504649Y1043826D01*
X2513164Y1040300D01*
X2522300Y1039097D01*
X2531437Y1040300D01*
X2539951Y1043826D01*
X2547263Y1049436D01*
X2552873Y1056748D01*
X2556399Y1065262D01*
X2557602Y1074399D01*
X2556399Y1083535D01*
X2552873Y1092050D01*
X2547263Y1099361D01*
X2539951Y1104971D01*
X2531437Y1108498D01*
X2522300Y1109701D01*
D02*
G37*
G36*
X3250000Y1024951D02*
X3241416Y1023243D01*
X3234139Y1018381D01*
X3232076Y1015294D01*
X2510000D01*
X2504147Y1014130D01*
X2499186Y1010814D01*
X2381037Y892665D01*
X2341240D01*
X2340861Y893233D01*
X2333584Y898095D01*
X2325000Y899803D01*
X2316416Y898095D01*
X2309139Y893233D01*
X2304276Y885956D01*
X2302569Y877371D01*
X2304276Y868788D01*
X2309139Y861510D01*
X2316416Y856648D01*
X2325000Y854941D01*
X2333584Y856648D01*
X2340861Y861510D01*
X2341240Y862078D01*
X2387372D01*
X2393224Y863242D01*
X2398186Y866557D01*
X2516335Y984706D01*
X3237061D01*
X3241416Y981796D01*
X3250000Y980089D01*
X3258584Y981796D01*
X3265861Y986659D01*
X3270724Y993936D01*
X3272431Y1002520D01*
X3270724Y1011104D01*
X3265861Y1018381D01*
X3258584Y1023243D01*
X3250000Y1024951D01*
D02*
G37*
G36*
X308788Y1035431D02*
X300204Y1033724D01*
X292927Y1028861D01*
X288065Y1021584D01*
X286357Y1013000D01*
X288065Y1004416D01*
X292927Y997139D01*
X300204Y992277D01*
X308788Y990569D01*
X312136Y991235D01*
X324706Y978665D01*
Y950118D01*
X325870Y944265D01*
X329186Y939304D01*
X590711Y677778D01*
X595673Y674463D01*
X601525Y673299D01*
X620588D01*
X620967Y672731D01*
X628244Y667869D01*
X636828Y666162D01*
X645412Y667869D01*
X652689Y672731D01*
X657551Y680009D01*
X659259Y688593D01*
X659126Y689262D01*
X696239Y726375D01*
X699554Y731336D01*
X700718Y737189D01*
Y782273D01*
X704615Y786170D01*
X710340Y784824D01*
X714139Y779139D01*
X721416Y774277D01*
X730000Y772569D01*
X738584Y774277D01*
X745861Y779139D01*
X750723Y786416D01*
X752431Y795000D01*
X750723Y803584D01*
X745861Y810861D01*
X740176Y814660D01*
X738830Y820385D01*
X851151Y932706D01*
X1243849D01*
X1267369Y909186D01*
X1272331Y905870D01*
X1278184Y904706D01*
X1363760D01*
X1364139Y904139D01*
X1371416Y899277D01*
X1380000Y897569D01*
X1388584Y899277D01*
X1395861Y904139D01*
X1400724Y911416D01*
X1402431Y920000D01*
X1400724Y928584D01*
X1395861Y935861D01*
X1388584Y940723D01*
X1380000Y942431D01*
X1371416Y940723D01*
X1364139Y935861D01*
X1363760Y935294D01*
X1284519D01*
X1260998Y958814D01*
X1256036Y962130D01*
X1250184Y963294D01*
X996113D01*
X994596Y968294D01*
X995861Y969139D01*
X1000723Y976416D01*
X1002431Y985000D01*
X1000723Y993584D01*
X995861Y1000861D01*
X988584Y1005723D01*
X980000Y1007431D01*
X971416Y1005723D01*
X964139Y1000861D01*
X959277Y993584D01*
X957569Y985000D01*
X959277Y976416D01*
X964139Y969139D01*
X965404Y968294D01*
X963887Y963294D01*
X844816D01*
X838964Y962130D01*
X834002Y958814D01*
X674610Y799422D01*
X671294Y794461D01*
X670130Y788608D01*
Y743524D01*
X637497Y710890D01*
X636828Y711024D01*
X628244Y709316D01*
X620967Y704454D01*
X620588Y703886D01*
X607860D01*
X355294Y956453D01*
Y985000D01*
X354130Y990853D01*
X350814Y995814D01*
X330621Y1016008D01*
X329512Y1021584D01*
X324649Y1028861D01*
X317372Y1033724D01*
X308788Y1035431D01*
D02*
G37*
G36*
X1700000Y857431D02*
X1691416Y855723D01*
X1684139Y850861D01*
X1679276Y843584D01*
X1677569Y835000D01*
X1679276Y826416D01*
X1684139Y819139D01*
X1691416Y814277D01*
X1700000Y812569D01*
X1708584Y814277D01*
X1715861Y819139D01*
X1720724Y826416D01*
X1722431Y835000D01*
X1720724Y843584D01*
X1715861Y850861D01*
X1708584Y855723D01*
X1700000Y857431D01*
D02*
G37*
G36*
X910000Y822431D02*
X901416Y820723D01*
X894139Y815861D01*
X889277Y808584D01*
X887569Y800000D01*
X889277Y791416D01*
X894139Y784139D01*
X901416Y779277D01*
X910000Y777569D01*
X918584Y779277D01*
X925861Y784139D01*
X930723Y791416D01*
X932431Y800000D01*
X930723Y808584D01*
X925861Y815861D01*
X918584Y820723D01*
X910000Y822431D01*
D02*
G37*
G36*
X1190770Y812431D02*
X1182186Y810723D01*
X1174909Y805861D01*
X1170047Y798584D01*
X1168339Y790000D01*
X1170047Y781416D01*
X1174909Y774139D01*
X1182186Y769277D01*
X1190770Y767569D01*
X1199354Y769277D01*
X1206631Y774139D01*
X1211494Y781416D01*
X1213201Y790000D01*
X1211494Y798584D01*
X1206631Y805861D01*
X1199354Y810723D01*
X1190770Y812431D01*
D02*
G37*
G36*
X4200000Y1189931D02*
X4191416Y1188223D01*
X4184139Y1183361D01*
X4179276Y1176084D01*
X4177569Y1167500D01*
X4178117Y1164746D01*
X4108665Y1095294D01*
X3375000D01*
X3369147Y1094130D01*
X3364186Y1090814D01*
X3304186Y1030814D01*
X3300870Y1025853D01*
X3299706Y1020000D01*
Y931335D01*
X3074461Y706090D01*
X2341240D01*
X2340861Y706658D01*
X2333584Y711520D01*
X2325000Y713227D01*
X2316416Y711520D01*
X2309139Y706658D01*
X2304276Y699380D01*
X2302569Y690796D01*
X2304276Y682212D01*
X2309139Y674935D01*
X2316416Y670073D01*
X2325000Y668365D01*
X2333584Y670073D01*
X2340861Y674935D01*
X2341240Y675503D01*
X3080796D01*
X3086649Y676667D01*
X3091611Y679982D01*
X3325814Y914186D01*
X3329130Y919147D01*
X3330294Y925000D01*
Y1013665D01*
X3381335Y1064706D01*
X3387995D01*
X3389783Y1059706D01*
X3385693Y1053584D01*
X3383985Y1045000D01*
X3385693Y1036416D01*
X3390555Y1029139D01*
Y1025861D01*
X3385693Y1018584D01*
X3383985Y1010000D01*
X3385693Y1001416D01*
X3390555Y994139D01*
Y990861D01*
X3385693Y983584D01*
X3383985Y975000D01*
X3385693Y966416D01*
X3390555Y959139D01*
Y955861D01*
X3385693Y948584D01*
X3383985Y940000D01*
X3385693Y931416D01*
X3390555Y924139D01*
Y920861D01*
X3385693Y913584D01*
X3383985Y905000D01*
X3385693Y896416D01*
X3390555Y889139D01*
Y885861D01*
X3385693Y878584D01*
X3383985Y870000D01*
X3385693Y861416D01*
X3390555Y854139D01*
Y850861D01*
X3385693Y843584D01*
X3383985Y835000D01*
X3385693Y826416D01*
X3390555Y819139D01*
Y815861D01*
X3385693Y808584D01*
X3383985Y800000D01*
X3385693Y791416D01*
X3390555Y784139D01*
Y780861D01*
X3385693Y773584D01*
X3383985Y765000D01*
X3385693Y756416D01*
X3390555Y749139D01*
Y745861D01*
X3385693Y738584D01*
X3383985Y730000D01*
X3385693Y721416D01*
X3390555Y714139D01*
Y710861D01*
X3385693Y703584D01*
X3383985Y695000D01*
X3385693Y686416D01*
X3390555Y679139D01*
Y675861D01*
X3385693Y668584D01*
X3383985Y660000D01*
X3385693Y651416D01*
X3386837Y649704D01*
X3384480Y645294D01*
X3130000D01*
X3124147Y644130D01*
X3119186Y640814D01*
X3088665Y610294D01*
X2341240D01*
X2340861Y610861D01*
X2333584Y615723D01*
X2325000Y617431D01*
X2316416Y615723D01*
X2309139Y610861D01*
X2304276Y603584D01*
X2302569Y595000D01*
X2304276Y586416D01*
X2309139Y579139D01*
X2316416Y574277D01*
X2325000Y572569D01*
X2333584Y574277D01*
X2340861Y579139D01*
X2341240Y579706D01*
X3095000D01*
X3100853Y580870D01*
X3105814Y584186D01*
X3136335Y614706D01*
X3207261D01*
X3208778Y609706D01*
X3206666Y608295D01*
X3148665Y550294D01*
X2509046D01*
X2503193Y549130D01*
X2498231Y545814D01*
X2227711Y275294D01*
X1076335D01*
X946205Y405424D01*
Y576089D01*
X945040Y581942D01*
X941725Y586904D01*
X920814Y607814D01*
X915853Y611130D01*
X910000Y612294D01*
X837019D01*
X831710Y615842D01*
X823126Y617549D01*
X814542Y615842D01*
X807265Y610979D01*
X802403Y603702D01*
X800695Y595118D01*
X802403Y586534D01*
X807265Y579257D01*
X814542Y574395D01*
X823126Y572687D01*
X831710Y574395D01*
X838987Y579257D01*
X840624Y581706D01*
X868523D01*
X871619Y576706D01*
X870285Y570000D01*
X871993Y561416D01*
X876855Y554139D01*
X877423Y553760D01*
Y380712D01*
X878587Y374860D01*
X881902Y369898D01*
X1027614Y224185D01*
X1032576Y220870D01*
X1038429Y219706D01*
X2245000D01*
X2250853Y220870D01*
X2255814Y224186D01*
X2531335Y499706D01*
X3823936D01*
X3829788Y500870D01*
X3834750Y504186D01*
X3912751Y582186D01*
X3963760D01*
X3964139Y581619D01*
X3971416Y576757D01*
X3980000Y575049D01*
X3988584Y576757D01*
X3995861Y581619D01*
X4000724Y588896D01*
X4002431Y597480D01*
X4000724Y606064D01*
X3998290Y609706D01*
X4000963Y614706D01*
X4095000D01*
X4100853Y615870D01*
X4105814Y619186D01*
X4171335Y684706D01*
X4187031D01*
X4191416Y681776D01*
X4200000Y680069D01*
X4208584Y681776D01*
X4215861Y686639D01*
X4220724Y693916D01*
X4222431Y702500D01*
X4220724Y711084D01*
X4215861Y718361D01*
X4208584Y723223D01*
X4200000Y724931D01*
X4191416Y723223D01*
X4184139Y718361D01*
X4182090Y715294D01*
X4165000D01*
X4159147Y714130D01*
X4154185Y710814D01*
X4088665Y645294D01*
X4068352D01*
X4065995Y649704D01*
X4067140Y651416D01*
X4068847Y660000D01*
X4067140Y668584D01*
X4062277Y675861D01*
Y679139D01*
X4067140Y686416D01*
X4068847Y695000D01*
X4067140Y703584D01*
X4062277Y710861D01*
Y714139D01*
X4067140Y721416D01*
X4068847Y730000D01*
X4067140Y738584D01*
X4062277Y745861D01*
Y749139D01*
X4067140Y756416D01*
X4068847Y765000D01*
X4067140Y773584D01*
X4062277Y780861D01*
Y784139D01*
X4067140Y791416D01*
X4068847Y800000D01*
X4067140Y808584D01*
X4062277Y815861D01*
Y819139D01*
X4067140Y826416D01*
X4068847Y835000D01*
X4067140Y843584D01*
X4062277Y850861D01*
Y854139D01*
X4067140Y861416D01*
X4068847Y870000D01*
X4067140Y878584D01*
X4062277Y885861D01*
Y889139D01*
X4067140Y896416D01*
X4068847Y905000D01*
X4067140Y913584D01*
X4062277Y920861D01*
Y924139D01*
X4067140Y931416D01*
X4068847Y940000D01*
X4067140Y948584D01*
X4062277Y955861D01*
Y959139D01*
X4067140Y966416D01*
X4068847Y975000D01*
X4067140Y983584D01*
X4062277Y990861D01*
Y994139D01*
X4067140Y1001416D01*
X4068847Y1010000D01*
X4067140Y1018584D01*
X4062277Y1025861D01*
Y1029139D01*
X4067140Y1036416D01*
X4068847Y1045000D01*
X4067140Y1053584D01*
X4063049Y1059706D01*
X4064837Y1064706D01*
X4115000D01*
X4120853Y1065870D01*
X4125814Y1069186D01*
X4202119Y1145491D01*
X4208584Y1146776D01*
X4215861Y1151639D01*
X4220724Y1158916D01*
X4222431Y1167500D01*
X4220724Y1176084D01*
X4215861Y1183361D01*
X4208584Y1188223D01*
X4200000Y1189931D01*
D02*
G37*
G36*
X79134Y682009D02*
X69586Y680751D01*
X60689Y677066D01*
X53048Y671204D01*
X47186Y663563D01*
X43501Y654666D01*
X42243Y645118D01*
X43501Y635570D01*
X47186Y626673D01*
X53048Y619033D01*
X60689Y613170D01*
X69586Y609485D01*
X79134Y608228D01*
X88682Y609485D01*
X97579Y613170D01*
X105219Y619033D01*
X111082Y626673D01*
X114767Y635570D01*
X116024Y645118D01*
X114767Y654666D01*
X111082Y663563D01*
X105219Y671204D01*
X97579Y677066D01*
X88682Y680751D01*
X79134Y682009D01*
D02*
G37*
G36*
X436082Y767431D02*
X427498Y765723D01*
X420221Y760861D01*
X415358Y753584D01*
X413651Y745000D01*
X415358Y736416D01*
X420221Y729139D01*
X420247Y729121D01*
Y606602D01*
X419139Y605861D01*
X414276Y598584D01*
X413058Y592458D01*
X407714Y590732D01*
X395294Y603151D01*
Y729092D01*
X395364Y729139D01*
X400226Y736416D01*
X401934Y745000D01*
X400226Y753584D01*
X395364Y760861D01*
X388087Y765723D01*
X379503Y767431D01*
X370919Y765723D01*
X363642Y760861D01*
X358779Y753584D01*
X357072Y745000D01*
X358779Y736416D01*
X363642Y729139D01*
X364706Y728428D01*
Y596816D01*
X365870Y590964D01*
X369186Y586002D01*
X411234Y543953D01*
Y461729D01*
X410667Y461350D01*
X405804Y454072D01*
X404097Y445488D01*
X405804Y436904D01*
X406070Y436507D01*
X403633Y431581D01*
X400371Y431258D01*
X370294Y461335D01*
Y519252D01*
X369130Y525105D01*
X365814Y530066D01*
X213462Y682419D01*
X214767Y685570D01*
X216024Y695118D01*
X214767Y704666D01*
X211082Y713563D01*
X205219Y721204D01*
X197579Y727066D01*
X188682Y730751D01*
X179134Y732009D01*
X169586Y730751D01*
X160689Y727066D01*
X153048Y721204D01*
X147186Y713563D01*
X143500Y704666D01*
X142244Y695118D01*
X143500Y685570D01*
X147186Y676673D01*
X153048Y669033D01*
X160689Y663170D01*
X169586Y659485D01*
X179134Y658228D01*
X188682Y659485D01*
X191833Y660790D01*
X339706Y512917D01*
Y462708D01*
X335087Y460794D01*
X213462Y582419D01*
X214767Y585570D01*
X216024Y595118D01*
X214767Y604666D01*
X211082Y613563D01*
X205219Y621204D01*
X197579Y627066D01*
X188682Y630751D01*
X179134Y632009D01*
X169586Y630751D01*
X160689Y627066D01*
X153048Y621204D01*
X147186Y613563D01*
X143500Y604666D01*
X142244Y595118D01*
X143500Y585570D01*
X147186Y576673D01*
X153048Y569033D01*
X160689Y563170D01*
X169586Y559485D01*
X179134Y558228D01*
X188682Y559485D01*
X191833Y560790D01*
X381096Y371527D01*
X386058Y368212D01*
X391911Y367048D01*
X578760D01*
X579139Y366480D01*
X586416Y361618D01*
X595000Y359911D01*
X603584Y361618D01*
X610861Y366480D01*
X615723Y373757D01*
X617431Y382341D01*
X615723Y390925D01*
X610861Y398203D01*
X603584Y403065D01*
X595000Y404772D01*
X586416Y403065D01*
X579139Y398203D01*
X578760Y397635D01*
X535011D01*
X533494Y402635D01*
X535814Y404186D01*
X586168Y454539D01*
X586416Y454373D01*
X595000Y452665D01*
X603584Y454373D01*
X610861Y459235D01*
X615723Y466512D01*
X617431Y475096D01*
X615723Y483680D01*
X610861Y490957D01*
X603584Y495820D01*
X595000Y497527D01*
X586416Y495820D01*
X579139Y490957D01*
X576965Y487703D01*
X574282Y485911D01*
X518665Y430294D01*
X448138D01*
X445781Y434704D01*
X447251Y436904D01*
X448959Y445488D01*
X447251Y454072D01*
X442389Y461350D01*
X441822Y461729D01*
Y550288D01*
X440658Y556141D01*
X437342Y561103D01*
X435732Y562713D01*
X437458Y568058D01*
X443584Y569277D01*
X450861Y574139D01*
X455724Y581416D01*
X457431Y590000D01*
X455724Y598584D01*
X450861Y605861D01*
X450835Y605879D01*
Y728398D01*
X451943Y729139D01*
X456805Y736416D01*
X458513Y745000D01*
X456805Y753584D01*
X451943Y760861D01*
X444666Y765723D01*
X436082Y767431D01*
D02*
G37*
G36*
X79134Y582009D02*
X69586Y580751D01*
X60689Y577066D01*
X53048Y571204D01*
X47186Y563563D01*
X43501Y554666D01*
X42243Y545118D01*
X43501Y535570D01*
X47186Y526673D01*
X53048Y519033D01*
X60689Y513170D01*
X69586Y509485D01*
X79134Y508228D01*
X88682Y509485D01*
X97579Y513170D01*
X105219Y519033D01*
X111082Y526673D01*
X114767Y535570D01*
X116024Y545118D01*
X114767Y554666D01*
X111082Y563563D01*
X105219Y571204D01*
X97579Y577066D01*
X88682Y580751D01*
X79134Y582009D01*
D02*
G37*
G36*
Y482009D02*
X69586Y480752D01*
X60689Y477066D01*
X53048Y471204D01*
X47186Y463563D01*
X43501Y454666D01*
X42243Y445118D01*
X43501Y435570D01*
X47186Y426673D01*
X53048Y419033D01*
X60689Y413170D01*
X69586Y409485D01*
X79134Y408228D01*
X88682Y409485D01*
X97579Y413170D01*
X105219Y419033D01*
X111082Y426673D01*
X114767Y435570D01*
X116024Y445118D01*
X114767Y454666D01*
X111082Y463563D01*
X105219Y471204D01*
X97579Y477066D01*
X88682Y480752D01*
X79134Y482009D01*
D02*
G37*
G36*
X4100000Y387431D02*
X4091416Y385724D01*
X4084139Y380861D01*
X4083760Y380294D01*
X2491240D01*
X2490861Y380861D01*
X2483584Y385724D01*
X2475000Y387431D01*
X2466416Y385724D01*
X2459139Y380861D01*
X2454276Y373584D01*
X2452569Y365000D01*
X2454276Y356416D01*
X2459139Y349139D01*
X2466416Y344276D01*
X2475000Y342569D01*
X2483584Y344276D01*
X2490861Y349139D01*
X2491240Y349706D01*
X4083760D01*
X4084139Y349139D01*
X4091416Y344276D01*
X4100000Y342569D01*
X4108584Y344276D01*
X4115861Y349139D01*
X4120724Y356416D01*
X4122431Y365000D01*
X4120724Y373584D01*
X4115861Y380861D01*
X4108584Y385724D01*
X4100000Y387431D01*
D02*
G37*
G36*
X1105000Y787431D02*
X1096416Y785723D01*
X1089139Y780861D01*
X1084276Y773584D01*
X1082569Y765000D01*
X1084276Y756416D01*
X1089139Y749139D01*
X1096416Y744277D01*
X1105000Y742569D01*
X1105669Y742702D01*
X1464186Y384186D01*
X1469147Y380870D01*
X1475000Y379706D01*
X1571086D01*
X1571315Y379364D01*
X1578592Y374501D01*
X1587176Y372794D01*
X1595760Y374501D01*
X1603037Y379364D01*
X1607900Y386641D01*
X1609607Y395225D01*
X1607900Y403809D01*
X1603037Y411086D01*
X1595760Y415948D01*
X1587176Y417656D01*
X1578592Y415948D01*
X1571315Y411086D01*
X1570786Y410294D01*
X1481335D01*
X1127298Y764331D01*
X1127431Y765000D01*
X1125724Y773584D01*
X1120861Y780861D01*
X1113584Y785723D01*
X1105000Y787431D01*
D02*
G37*
G36*
X179134Y532009D02*
X169586Y530751D01*
X160689Y527066D01*
X153048Y521204D01*
X147186Y513563D01*
X143500Y504666D01*
X142244Y495118D01*
X143500Y485570D01*
X147186Y476673D01*
X153048Y469033D01*
X160689Y463170D01*
X169586Y459485D01*
X179134Y458228D01*
X188682Y459485D01*
X191833Y460790D01*
X375309Y277315D01*
X380270Y273999D01*
X386123Y272835D01*
X578760D01*
X579139Y272268D01*
X586416Y267406D01*
X595000Y265698D01*
X603584Y267406D01*
X610861Y272268D01*
X615723Y279545D01*
X617431Y288129D01*
X615723Y296713D01*
X610861Y303990D01*
X603584Y308853D01*
X595000Y310560D01*
X586416Y308853D01*
X579139Y303990D01*
X578760Y303423D01*
X392458D01*
X213462Y482419D01*
X214767Y485570D01*
X216024Y495118D01*
X214767Y504666D01*
X211082Y513563D01*
X205219Y521204D01*
X197579Y527066D01*
X188682Y530751D01*
X179134Y532009D01*
D02*
G37*
G36*
X4755000Y336854D02*
X4744167Y335428D01*
X4734073Y331247D01*
X4725405Y324595D01*
X4718753Y315927D01*
X4714572Y305833D01*
X4713146Y295000D01*
X4714572Y284167D01*
X4718753Y274073D01*
X4725405Y265405D01*
X4734073Y258753D01*
X4744167Y254572D01*
X4755000Y253146D01*
X4765833Y254572D01*
X4775927Y258753D01*
X4784595Y265405D01*
X4791247Y274073D01*
X4795428Y284167D01*
X4796854Y295000D01*
X4795428Y305833D01*
X4791247Y315927D01*
X4784595Y324595D01*
X4775927Y331247D01*
X4765833Y335428D01*
X4755000Y336854D01*
D02*
G37*
G36*
X4655000D02*
X4644167Y335428D01*
X4634073Y331247D01*
X4625405Y324595D01*
X4618753Y315927D01*
X4614572Y305833D01*
X4613146Y295000D01*
X4614572Y284167D01*
X4618753Y274073D01*
X4625405Y265405D01*
X4634073Y258753D01*
X4644167Y254572D01*
X4655000Y253146D01*
X4665833Y254572D01*
X4675927Y258753D01*
X4684595Y265405D01*
X4691247Y274073D01*
X4695428Y284167D01*
X4696854Y295000D01*
X4695428Y305833D01*
X4691247Y315927D01*
X4684595Y324595D01*
X4675927Y331247D01*
X4665833Y335428D01*
X4655000Y336854D01*
D02*
G37*
G36*
X4555000D02*
X4544167Y335428D01*
X4534073Y331247D01*
X4525405Y324595D01*
X4518753Y315927D01*
X4514572Y305833D01*
X4513146Y295000D01*
X4514572Y284167D01*
X4518753Y274073D01*
X4525405Y265405D01*
X4534073Y258753D01*
X4544167Y254572D01*
X4555000Y253146D01*
X4565833Y254572D01*
X4575927Y258753D01*
X4584595Y265405D01*
X4591247Y274073D01*
X4595428Y284167D01*
X4596854Y295000D01*
X4595428Y305833D01*
X4591247Y315927D01*
X4584595Y324595D01*
X4575927Y331247D01*
X4565833Y335428D01*
X4555000Y336854D01*
D02*
G37*
G36*
X4755000Y236854D02*
X4744167Y235428D01*
X4734073Y231247D01*
X4725405Y224595D01*
X4718753Y215927D01*
X4714572Y205833D01*
X4713146Y195000D01*
X4714572Y184167D01*
X4718753Y174073D01*
X4725405Y165405D01*
X4734073Y158753D01*
X4744167Y154572D01*
X4755000Y153146D01*
X4765833Y154572D01*
X4775927Y158753D01*
X4784595Y165405D01*
X4791247Y174073D01*
X4795428Y184167D01*
X4796854Y195000D01*
X4795428Y205833D01*
X4791247Y215927D01*
X4784595Y224595D01*
X4775927Y231247D01*
X4765833Y235428D01*
X4755000Y236854D01*
D02*
G37*
G36*
X4655000D02*
X4644167Y235428D01*
X4634073Y231247D01*
X4625405Y224595D01*
X4618753Y215927D01*
X4614572Y205833D01*
X4613146Y195000D01*
X4614572Y184167D01*
X4618753Y174073D01*
X4625405Y165405D01*
X4634073Y158753D01*
X4644167Y154572D01*
X4655000Y153146D01*
X4665833Y154572D01*
X4675927Y158753D01*
X4684595Y165405D01*
X4691247Y174073D01*
X4695428Y184167D01*
X4696854Y195000D01*
X4695428Y205833D01*
X4691247Y215927D01*
X4684595Y224595D01*
X4675927Y231247D01*
X4665833Y235428D01*
X4655000Y236854D01*
D02*
G37*
G36*
X4555000D02*
X4544167Y235428D01*
X4534073Y231247D01*
X4525405Y224595D01*
X4518753Y215927D01*
X4514572Y205833D01*
X4513146Y195000D01*
X4514572Y184167D01*
X4518753Y174073D01*
X4525405Y165405D01*
X4534073Y158753D01*
X4544167Y154572D01*
X4555000Y153146D01*
X4565833Y154572D01*
X4575927Y158753D01*
X4584595Y165405D01*
X4591247Y174073D01*
X4595428Y184167D01*
X4596854Y195000D01*
X4595428Y205833D01*
X4591247Y215927D01*
X4584595Y224595D01*
X4575927Y231247D01*
X4565833Y235428D01*
X4555000Y236854D01*
D02*
G37*
G36*
X179134Y432009D02*
X169586Y430752D01*
X160689Y427066D01*
X153048Y421204D01*
X147186Y413563D01*
X143500Y404666D01*
X142244Y395118D01*
X143500Y385570D01*
X147186Y376673D01*
X153048Y369033D01*
X160689Y363170D01*
X169586Y359485D01*
X179134Y358228D01*
X188682Y359485D01*
X192094Y360898D01*
X363216Y189776D01*
X368178Y186461D01*
X374030Y185297D01*
X578760D01*
X579139Y184730D01*
X586416Y179867D01*
X595000Y178160D01*
X603584Y179867D01*
X610861Y184730D01*
X611240Y185297D01*
X890264D01*
X915216Y160345D01*
X920178Y157030D01*
X926030Y155865D01*
X1170049D01*
X1170428Y155298D01*
X1177705Y150436D01*
X1186289Y148728D01*
X1194873Y150436D01*
X1202150Y155298D01*
X1207012Y162575D01*
X1208720Y171159D01*
X1207012Y179743D01*
X1202150Y187020D01*
X1194873Y191883D01*
X1186289Y193590D01*
X1177705Y191883D01*
X1170428Y187020D01*
X1170049Y186453D01*
X932365D01*
X907413Y211405D01*
X902452Y214720D01*
X896599Y215885D01*
X611240D01*
X610861Y216452D01*
X603584Y221314D01*
X595000Y223022D01*
X586416Y221314D01*
X579139Y216452D01*
X578760Y215885D01*
X380365D01*
X213570Y382680D01*
X214767Y385570D01*
X216024Y395118D01*
X214767Y404666D01*
X211082Y413563D01*
X205219Y421204D01*
X197579Y427066D01*
X188682Y430752D01*
X179134Y432009D01*
D02*
G37*
G36*
X4755000Y136854D02*
X4744167Y135428D01*
X4734073Y131247D01*
X4725405Y124595D01*
X4718753Y115927D01*
X4714572Y105833D01*
X4713146Y95000D01*
X4714572Y84167D01*
X4718753Y74073D01*
X4725405Y65405D01*
X4734073Y58753D01*
X4744167Y54572D01*
X4755000Y53146D01*
X4765833Y54572D01*
X4775927Y58753D01*
X4784595Y65405D01*
X4791247Y74073D01*
X4795428Y84167D01*
X4796854Y95000D01*
X4795428Y105833D01*
X4791247Y115927D01*
X4784595Y124595D01*
X4775927Y131247D01*
X4765833Y135428D01*
X4755000Y136854D01*
D02*
G37*
G36*
X4655000D02*
X4644167Y135428D01*
X4634073Y131247D01*
X4625405Y124595D01*
X4618753Y115927D01*
X4614572Y105833D01*
X4613146Y95000D01*
X4614572Y84167D01*
X4618753Y74073D01*
X4625405Y65405D01*
X4634073Y58753D01*
X4644167Y54572D01*
X4655000Y53146D01*
X4665833Y54572D01*
X4675927Y58753D01*
X4684595Y65405D01*
X4691247Y74073D01*
X4695428Y84167D01*
X4696854Y95000D01*
X4695428Y105833D01*
X4691247Y115927D01*
X4684595Y124595D01*
X4675927Y131247D01*
X4665833Y135428D01*
X4655000Y136854D01*
D02*
G37*
G36*
X4555000D02*
X4544167Y135428D01*
X4534073Y131247D01*
X4525405Y124595D01*
X4518753Y115927D01*
X4514572Y105833D01*
X4513146Y95000D01*
X4514572Y84167D01*
X4518753Y74073D01*
X4525405Y65405D01*
X4534073Y58753D01*
X4544167Y54572D01*
X4555000Y53146D01*
X4565833Y54572D01*
X4575927Y58753D01*
X4584595Y65405D01*
X4591247Y74073D01*
X4595428Y84167D01*
X4596854Y95000D01*
X4595428Y105833D01*
X4591247Y115927D01*
X4584595Y124595D01*
X4575927Y131247D01*
X4565833Y135428D01*
X4555000Y136854D01*
D02*
G37*
G36*
X150000Y129869D02*
X139681Y128510D01*
X130066Y124527D01*
X121809Y118191D01*
X115473Y109934D01*
X111490Y100319D01*
X110131Y90000D01*
X111490Y79681D01*
X115473Y70066D01*
X121809Y61809D01*
X130066Y55473D01*
X139681Y51490D01*
X150000Y50131D01*
X160319Y51490D01*
X169934Y55473D01*
X178191Y61809D01*
X184527Y70066D01*
X188510Y79681D01*
X189869Y90000D01*
X188510Y100319D01*
X184527Y109934D01*
X178191Y118191D01*
X169934Y124527D01*
X160319Y128510D01*
X150000Y129869D01*
D02*
G37*
%LPD*%
G36*
X3897714Y609706D02*
X3895602Y608295D01*
X3817601Y530294D01*
X3178456D01*
X3176542Y534913D01*
X3223815Y582186D01*
X3453760D01*
X3454139Y581619D01*
X3461416Y576757D01*
X3470000Y575049D01*
X3478584Y576757D01*
X3485861Y581619D01*
X3490724Y588896D01*
X3492431Y597480D01*
X3490724Y606064D01*
X3488290Y609706D01*
X3490963Y614706D01*
X3896197D01*
X3897714Y609706D01*
D02*
G37*
D39*
X1070000Y260000D02*
X2234046D01*
X2509046Y535000D02*
X3155000D01*
X2234046Y260000D02*
X2509046Y535000D01*
X2525000Y515000D02*
X3823936D01*
X1038429Y235000D02*
X2245000D01*
X2525000Y515000D01*
X2475000Y365000D02*
X4100000D01*
X930911Y399089D02*
X1070000Y260000D01*
X3823936Y515000D02*
X3906416Y597480D01*
X3980000D01*
X3155000Y535000D02*
X3217480Y597480D01*
X3470000D01*
X3095000Y595000D02*
X3130000Y630000D01*
X4095000D01*
X4165000Y700000D01*
X4197500D02*
X4200000Y702500D01*
X4165000Y700000D02*
X4197500D01*
X2325000Y595000D02*
X3095000D01*
X4200000Y1165000D02*
Y1167500D01*
X4115000Y1080000D02*
X4200000Y1165000D01*
X3375000Y1080000D02*
X4115000D01*
X3315000Y925000D02*
Y1020000D01*
X3375000Y1080000D01*
X3080796Y690796D02*
X3315000Y925000D01*
X2325000Y690796D02*
X3080796D01*
X3247480Y1000000D02*
X3250000Y1002520D01*
X2510000Y1000000D02*
X3247480D01*
X2387372Y877371D02*
X2510000Y1000000D01*
X2325000Y877371D02*
X2387372D01*
X3248780Y1470000D02*
X3250000Y1468780D01*
X2820000Y1470000D02*
X3248780D01*
X2325000Y975000D02*
X2820000Y1470000D01*
X386123Y288129D02*
X595000D01*
X179134Y495118D02*
X386123Y288129D01*
X435541Y744459D02*
X436082Y745000D01*
X435541Y590541D02*
Y744459D01*
X435000Y590000D02*
X435541Y590541D01*
X1066453Y1550778D02*
X1198852D01*
X850000Y1334325D02*
X1066453Y1550778D01*
X850000Y1189590D02*
Y1334325D01*
X760410Y1100000D02*
X850000Y1189590D01*
X1278184Y920000D02*
X1380000D01*
X1250184Y948000D02*
X1278184Y920000D01*
X844816Y948000D02*
X1250184D01*
X685424Y788608D02*
X844816Y948000D01*
X685424Y737189D02*
Y788608D01*
X636828Y688593D02*
X685424Y737189D01*
X601525Y688593D02*
X636828D01*
X340000Y950118D02*
X601525Y688593D01*
X340000Y950118D02*
Y985000D01*
X312000Y1013000D02*
X340000Y985000D01*
X308788Y1013000D02*
X312000D01*
X823126Y595118D02*
X825008Y597000D01*
X910000D01*
X930911Y576089D01*
Y399089D02*
Y576089D01*
X795978Y1084755D02*
X880000Y1168777D01*
Y1330000D01*
X1070000Y1520000D01*
X1255000D01*
X1285000Y1550000D01*
X1340000D01*
X1340778Y1550778D01*
X1341647D01*
X391911Y382341D02*
X595000D01*
X179134Y595118D02*
X391911Y382341D01*
X426528Y445488D02*
Y550288D01*
X380000Y596816D02*
X426528Y550288D01*
X380000Y596816D02*
Y744503D01*
X379503Y745000D02*
X380000Y744503D01*
X585096Y475096D02*
X595000D01*
X525000Y415000D02*
X585096Y475096D01*
X395000Y415000D02*
X525000D01*
X355000Y455000D02*
X395000Y415000D01*
X355000Y455000D02*
Y519252D01*
X179134Y695118D02*
X355000Y519252D01*
X907755Y1049537D02*
X911543D01*
X896298Y1038080D02*
X907755Y1049537D01*
X396920Y1038080D02*
X896298D01*
X275000Y1160000D02*
X396920Y1038080D01*
X892716Y380712D02*
Y570000D01*
Y380712D02*
X1038429Y235000D01*
X1586951Y395000D02*
X1587176Y395225D01*
X1475000Y395000D02*
X1586951D01*
X1105000Y765000D02*
X1475000Y395000D01*
X179134Y395118D02*
X179503D01*
X374030Y200591D01*
X595000D01*
X896599D01*
X926030Y171159D01*
X1186289D01*
D41*
X3651416Y940000D02*
D03*
X3406416D02*
D03*
X3651416Y1010000D02*
D03*
X3406416D02*
D03*
X3581416Y940000D02*
D03*
Y1010000D02*
D03*
X3651416Y975000D02*
D03*
X3406416D02*
D03*
X3581416D02*
D03*
X3651416Y1045000D02*
D03*
X3581416D02*
D03*
X3476416Y940000D02*
D03*
Y1010000D02*
D03*
X3441416Y940000D02*
D03*
Y1010000D02*
D03*
X3511416Y940000D02*
D03*
X3546416D02*
D03*
X3511416Y1010000D02*
D03*
X3546416D02*
D03*
X3616416Y940000D02*
D03*
Y1010000D02*
D03*
X3686416Y940000D02*
D03*
Y1010000D02*
D03*
X3476416Y975000D02*
D03*
X3441416D02*
D03*
X3476416Y1045000D02*
D03*
X3511416Y975000D02*
D03*
X3546416D02*
D03*
X3511416Y1045000D02*
D03*
X3546416D02*
D03*
X3616416Y975000D02*
D03*
Y1045000D02*
D03*
X3686416Y975000D02*
D03*
Y1045000D02*
D03*
X3581416Y870000D02*
D03*
X3406416D02*
D03*
X3581416Y800000D02*
D03*
X3406416D02*
D03*
X3651416D02*
D03*
Y870000D02*
D03*
X3581416Y660000D02*
D03*
X3406416D02*
D03*
Y695000D02*
D03*
X3581416D02*
D03*
Y730000D02*
D03*
X3406416D02*
D03*
X3581416Y765000D02*
D03*
X3406416D02*
D03*
Y835000D02*
D03*
X3581416D02*
D03*
X3406416Y905000D02*
D03*
X3581416D02*
D03*
X3651416Y695000D02*
D03*
Y660000D02*
D03*
Y765000D02*
D03*
Y730000D02*
D03*
Y835000D02*
D03*
Y905000D02*
D03*
X3476416Y800000D02*
D03*
Y870000D02*
D03*
X3441416D02*
D03*
Y800000D02*
D03*
X3511416Y870000D02*
D03*
X3546416D02*
D03*
Y800000D02*
D03*
X3511416D02*
D03*
X3616416Y870000D02*
D03*
Y800000D02*
D03*
X3686416Y870000D02*
D03*
Y800000D02*
D03*
X3441416Y695000D02*
D03*
X3476416Y660000D02*
D03*
Y695000D02*
D03*
X3441416Y660000D02*
D03*
X3476416Y730000D02*
D03*
X3441416D02*
D03*
X3476416Y765000D02*
D03*
X3441416D02*
D03*
X3476416Y835000D02*
D03*
X3441416D02*
D03*
Y905000D02*
D03*
X3476416D02*
D03*
X3511416Y660000D02*
D03*
X3546416Y695000D02*
D03*
Y660000D02*
D03*
X3511416Y695000D02*
D03*
X3546416Y765000D02*
D03*
X3511416D02*
D03*
Y730000D02*
D03*
X3546416D02*
D03*
Y835000D02*
D03*
X3511416D02*
D03*
Y905000D02*
D03*
X3546416D02*
D03*
X3616416Y660000D02*
D03*
Y695000D02*
D03*
Y765000D02*
D03*
Y730000D02*
D03*
Y835000D02*
D03*
Y905000D02*
D03*
X3686416Y660000D02*
D03*
Y695000D02*
D03*
Y730000D02*
D03*
Y765000D02*
D03*
Y835000D02*
D03*
Y905000D02*
D03*
X3441416Y1045000D02*
D03*
X3406416D02*
D03*
X4011416Y940000D02*
D03*
X3766416D02*
D03*
X4011416Y1010000D02*
D03*
X3766416D02*
D03*
X3941416Y940000D02*
D03*
Y1010000D02*
D03*
X4011416Y975000D02*
D03*
X3766416D02*
D03*
X3941416D02*
D03*
X4011416Y1045000D02*
D03*
X3941416D02*
D03*
X3836416Y940000D02*
D03*
Y1010000D02*
D03*
X3801416Y940000D02*
D03*
Y1010000D02*
D03*
X3871416Y940000D02*
D03*
X3906416D02*
D03*
X3871416Y1010000D02*
D03*
X3906416D02*
D03*
X3976416Y940000D02*
D03*
Y1010000D02*
D03*
X4046416Y940000D02*
D03*
Y1010000D02*
D03*
X3836416Y975000D02*
D03*
X3801416D02*
D03*
X3836416Y1045000D02*
D03*
X3871416Y975000D02*
D03*
X3906416D02*
D03*
X3871416Y1045000D02*
D03*
X3906416D02*
D03*
X3976416Y975000D02*
D03*
Y1045000D02*
D03*
X4046416Y975000D02*
D03*
Y1045000D02*
D03*
X3941416Y870000D02*
D03*
X3766416D02*
D03*
X3941416Y800000D02*
D03*
X3766416D02*
D03*
X4011416D02*
D03*
Y870000D02*
D03*
X3941416Y660000D02*
D03*
X3766416D02*
D03*
Y695000D02*
D03*
X3941416D02*
D03*
Y730000D02*
D03*
X3766416D02*
D03*
X3941416Y765000D02*
D03*
X3766416D02*
D03*
Y835000D02*
D03*
X3941416D02*
D03*
X3766416Y905000D02*
D03*
X3941416D02*
D03*
X4011416Y695000D02*
D03*
Y660000D02*
D03*
Y765000D02*
D03*
Y730000D02*
D03*
Y835000D02*
D03*
Y905000D02*
D03*
X3836416Y800000D02*
D03*
Y870000D02*
D03*
X3801416D02*
D03*
Y800000D02*
D03*
X3871416Y870000D02*
D03*
X3906416D02*
D03*
Y800000D02*
D03*
X3871416D02*
D03*
X3976416Y870000D02*
D03*
Y800000D02*
D03*
X4046416Y870000D02*
D03*
Y800000D02*
D03*
X3801416Y695000D02*
D03*
X3836416Y660000D02*
D03*
Y695000D02*
D03*
X3801416Y660000D02*
D03*
X3836416Y730000D02*
D03*
X3801416D02*
D03*
X3836416Y765000D02*
D03*
X3801416D02*
D03*
X3836416Y835000D02*
D03*
X3801416D02*
D03*
Y905000D02*
D03*
X3836416D02*
D03*
X3871416Y660000D02*
D03*
X3906416Y695000D02*
D03*
Y660000D02*
D03*
X3871416Y695000D02*
D03*
X3906416Y765000D02*
D03*
X3871416D02*
D03*
Y730000D02*
D03*
X3906416D02*
D03*
Y835000D02*
D03*
X3871416D02*
D03*
Y905000D02*
D03*
X3906416D02*
D03*
X3976416Y660000D02*
D03*
Y695000D02*
D03*
Y765000D02*
D03*
Y730000D02*
D03*
Y835000D02*
D03*
Y905000D02*
D03*
X4046416Y660000D02*
D03*
Y695000D02*
D03*
Y730000D02*
D03*
Y765000D02*
D03*
Y835000D02*
D03*
Y905000D02*
D03*
X3801416Y1045000D02*
D03*
X3766416D02*
D03*
X4011416Y1405000D02*
D03*
X3766416D02*
D03*
X4011416Y1475000D02*
D03*
X3766416D02*
D03*
X3941416Y1405000D02*
D03*
Y1475000D02*
D03*
X4011416Y1440000D02*
D03*
X3766416D02*
D03*
X3941416D02*
D03*
X4011416Y1510000D02*
D03*
X3941416D02*
D03*
X3836416Y1405000D02*
D03*
Y1475000D02*
D03*
X3801416Y1405000D02*
D03*
Y1475000D02*
D03*
X3871416Y1405000D02*
D03*
X3906416D02*
D03*
X3871416Y1475000D02*
D03*
X3906416D02*
D03*
X3976416Y1405000D02*
D03*
Y1475000D02*
D03*
X4046416Y1405000D02*
D03*
Y1475000D02*
D03*
X3836416Y1440000D02*
D03*
X3801416D02*
D03*
X3836416Y1510000D02*
D03*
X3871416Y1440000D02*
D03*
X3906416D02*
D03*
X3871416Y1510000D02*
D03*
X3906416D02*
D03*
X3976416Y1440000D02*
D03*
Y1510000D02*
D03*
X4046416Y1440000D02*
D03*
Y1510000D02*
D03*
X3941416Y1335000D02*
D03*
X3766416D02*
D03*
X3941416Y1265000D02*
D03*
X3766416D02*
D03*
X4011416D02*
D03*
Y1335000D02*
D03*
X3941416Y1125000D02*
D03*
X3766416D02*
D03*
Y1160000D02*
D03*
X3941416D02*
D03*
Y1195000D02*
D03*
X3766416D02*
D03*
X3941416Y1230000D02*
D03*
X3766416D02*
D03*
Y1300000D02*
D03*
X3941416D02*
D03*
X3766416Y1370000D02*
D03*
X3941416D02*
D03*
X4011416Y1160000D02*
D03*
Y1125000D02*
D03*
Y1230000D02*
D03*
Y1195000D02*
D03*
Y1300000D02*
D03*
Y1370000D02*
D03*
X3836416Y1265000D02*
D03*
Y1335000D02*
D03*
X3801416D02*
D03*
Y1265000D02*
D03*
X3871416Y1335000D02*
D03*
X3906416D02*
D03*
Y1265000D02*
D03*
X3871416D02*
D03*
X3976416Y1335000D02*
D03*
Y1265000D02*
D03*
X4046416Y1335000D02*
D03*
Y1265000D02*
D03*
X3801416Y1160000D02*
D03*
X3836416Y1125000D02*
D03*
Y1160000D02*
D03*
X3801416Y1125000D02*
D03*
X3836416Y1195000D02*
D03*
X3801416D02*
D03*
X3836416Y1230000D02*
D03*
X3801416D02*
D03*
X3836416Y1300000D02*
D03*
X3801416D02*
D03*
Y1370000D02*
D03*
X3836416D02*
D03*
X3871416Y1125000D02*
D03*
X3906416Y1160000D02*
D03*
Y1125000D02*
D03*
X3871416Y1160000D02*
D03*
X3906416Y1230000D02*
D03*
X3871416D02*
D03*
Y1195000D02*
D03*
X3906416D02*
D03*
Y1300000D02*
D03*
X3871416D02*
D03*
Y1370000D02*
D03*
X3906416D02*
D03*
X3976416Y1125000D02*
D03*
Y1160000D02*
D03*
Y1230000D02*
D03*
Y1195000D02*
D03*
Y1300000D02*
D03*
Y1370000D02*
D03*
X4046416Y1125000D02*
D03*
Y1160000D02*
D03*
Y1195000D02*
D03*
Y1230000D02*
D03*
Y1300000D02*
D03*
Y1370000D02*
D03*
X3801416Y1510000D02*
D03*
X3766416D02*
D03*
X3651416Y1405000D02*
D03*
X3406416D02*
D03*
X3651416Y1475000D02*
D03*
X3406416D02*
D03*
X3581416Y1405000D02*
D03*
Y1475000D02*
D03*
X3651416Y1440000D02*
D03*
X3406416D02*
D03*
X3581416D02*
D03*
X3651416Y1510000D02*
D03*
X3581416D02*
D03*
X3476416Y1405000D02*
D03*
Y1475000D02*
D03*
X3441416Y1405000D02*
D03*
Y1475000D02*
D03*
X3511416Y1405000D02*
D03*
X3546416D02*
D03*
X3511416Y1475000D02*
D03*
X3546416D02*
D03*
X3616416Y1405000D02*
D03*
Y1475000D02*
D03*
X3686416Y1405000D02*
D03*
Y1475000D02*
D03*
X3476416Y1440000D02*
D03*
X3441416D02*
D03*
X3476416Y1510000D02*
D03*
X3511416Y1440000D02*
D03*
X3546416D02*
D03*
X3511416Y1510000D02*
D03*
X3546416D02*
D03*
X3616416Y1440000D02*
D03*
Y1510000D02*
D03*
X3686416Y1440000D02*
D03*
Y1510000D02*
D03*
X3581416Y1335000D02*
D03*
X3406416D02*
D03*
X3581416Y1265000D02*
D03*
X3406416D02*
D03*
X3651416D02*
D03*
Y1335000D02*
D03*
X3581416Y1125000D02*
D03*
X3406416D02*
D03*
Y1160000D02*
D03*
X3581416D02*
D03*
Y1195000D02*
D03*
X3406416D02*
D03*
X3581416Y1230000D02*
D03*
X3406416D02*
D03*
Y1300000D02*
D03*
X3581416D02*
D03*
X3406416Y1370000D02*
D03*
X3581416D02*
D03*
X3651416Y1160000D02*
D03*
Y1125000D02*
D03*
Y1230000D02*
D03*
Y1195000D02*
D03*
Y1300000D02*
D03*
Y1370000D02*
D03*
X3476416Y1265000D02*
D03*
Y1335000D02*
D03*
X3441416D02*
D03*
Y1265000D02*
D03*
X3511416Y1335000D02*
D03*
X3546416D02*
D03*
Y1265000D02*
D03*
X3511416D02*
D03*
X3616416Y1335000D02*
D03*
Y1265000D02*
D03*
X3686416Y1335000D02*
D03*
Y1265000D02*
D03*
X3441416Y1160000D02*
D03*
X3476416Y1125000D02*
D03*
Y1160000D02*
D03*
X3441416Y1125000D02*
D03*
X3476416Y1195000D02*
D03*
X3441416D02*
D03*
X3476416Y1230000D02*
D03*
X3441416D02*
D03*
X3476416Y1300000D02*
D03*
X3441416D02*
D03*
Y1370000D02*
D03*
X3476416D02*
D03*
X3511416Y1125000D02*
D03*
X3546416Y1160000D02*
D03*
Y1125000D02*
D03*
X3511416Y1160000D02*
D03*
X3546416Y1230000D02*
D03*
X3511416D02*
D03*
Y1195000D02*
D03*
X3546416D02*
D03*
Y1300000D02*
D03*
X3511416D02*
D03*
Y1370000D02*
D03*
X3546416D02*
D03*
X3616416Y1125000D02*
D03*
Y1160000D02*
D03*
Y1230000D02*
D03*
Y1195000D02*
D03*
Y1300000D02*
D03*
Y1370000D02*
D03*
X3686416Y1125000D02*
D03*
Y1160000D02*
D03*
Y1195000D02*
D03*
Y1230000D02*
D03*
Y1300000D02*
D03*
Y1370000D02*
D03*
X3441416Y1510000D02*
D03*
X3406416D02*
D03*
X4100000Y365000D02*
D03*
X2475000D02*
D03*
X3820000Y597480D02*
D03*
X4200000Y702500D02*
D03*
X2325000Y595000D02*
D03*
X4200000Y1167500D02*
D03*
X3250000Y1002520D02*
D03*
X2325000Y690796D02*
D03*
Y877371D02*
D03*
X3250000Y1468780D02*
D03*
X2325000Y975000D02*
D03*
X3620000Y597480D02*
D03*
X3980000D02*
D03*
X3470000D02*
D03*
X1640000Y655000D02*
D03*
X1405000Y401861D02*
D03*
X1435000Y1160000D02*
D03*
X950000Y1079878D02*
D03*
X595000Y288129D02*
D03*
X1235000Y425000D02*
D03*
X1615000Y875000D02*
D03*
X1470000Y585000D02*
D03*
X1839921Y1375079D02*
D03*
X436082Y745000D02*
D03*
X435000Y590000D02*
D03*
X1198852Y1550778D02*
D03*
X760410Y1100000D02*
D03*
X1380000Y920000D02*
D03*
X636828Y688593D02*
D03*
X308788Y1013000D02*
D03*
X1700000Y835000D02*
D03*
X1255000Y1038080D02*
D03*
X823126Y595118D02*
D03*
X795978Y1084755D02*
D03*
X1341647Y1550778D02*
D03*
X840000Y1075000D02*
D03*
X1190770Y790000D02*
D03*
X595000Y382341D02*
D03*
X670000Y1330000D02*
D03*
X980000Y1100000D02*
D03*
X426528Y445488D02*
D03*
X379503Y745000D02*
D03*
X730000Y795000D02*
D03*
X700000Y1005000D02*
D03*
X595000Y475096D02*
D03*
X815000Y1330000D02*
D03*
X290000Y1500000D02*
D03*
X911543Y1049537D02*
D03*
X275000Y1160000D02*
D03*
X910000Y800000D02*
D03*
X1010000Y1005000D02*
D03*
X892716Y570000D02*
D03*
X1587176Y395225D02*
D03*
X1105000Y765000D02*
D03*
X1985000Y860000D02*
D03*
X1165000Y205000D02*
D03*
X750000Y120000D02*
D03*
X1255000Y905000D02*
D03*
X595000Y200591D02*
D03*
X1186289Y171159D02*
D03*
X1065000Y1335000D02*
D03*
X930911Y1334325D02*
D03*
X950000Y53377D02*
D03*
X1255000Y835000D02*
D03*
X433387Y1293000D02*
D03*
X445765Y1087631D02*
D03*
X997000Y1338415D02*
D03*
X980000Y985000D02*
D03*
X740000Y1330000D02*
D03*
X760410Y779795D02*
D03*
X880000Y1075000D02*
D03*
X730000Y985000D02*
D03*
X936443Y778628D02*
D03*
X1255000Y975000D02*
D03*
D42*
X4655000Y195000D02*
D03*
X4755000D02*
D03*
Y295000D02*
D03*
X4655000D02*
D03*
X4555000D02*
D03*
Y195000D02*
D03*
X4755000Y95000D02*
D03*
X4555000D02*
D03*
X4655000D02*
D03*
X3095000Y195000D02*
D03*
X3195000D02*
D03*
Y295000D02*
D03*
X3095000D02*
D03*
X2995000D02*
D03*
Y195000D02*
D03*
X3195000Y95000D02*
D03*
X2995000D02*
D03*
X3095000D02*
D03*
D43*
X2445135Y1310621D02*
D03*
Y1428731D02*
D03*
Y1192510D02*
D03*
D44*
Y1546841D02*
D03*
D45*
X179134Y395118D02*
D03*
Y495118D02*
D03*
Y595118D02*
D03*
Y695118D02*
D03*
X79134Y445118D02*
D03*
Y545118D02*
D03*
Y645118D02*
D03*
X179134Y195118D02*
D03*
X79134Y245118D02*
D03*
X179134Y295118D02*
D03*
X79134Y345118D02*
D03*
D46*
Y145118D02*
D03*
D47*
X2522300Y1664951D02*
D03*
Y1074399D02*
D03*
D48*
X150000Y90000D02*
D03*
D49*
X1890000Y1240000D02*
D03*
%TF.MD5,4e3ba9415751bbc25f48388a80890c89*%
M02*
